<svg width="107" height="185" viewBox="0 0 107 185" fill="none" xmlns="http://www.w3.org/2000/svg">
<path d="M115.088 21.6343L115.466 21.5029L115.224 22.8521C123.572 25.9434 131.207 30.5097 137.81 36.2356L108.892 43.7006C104.23 42.2611 99.2782 41.4863 94.1487 41.4863C66.5878 41.4863 44.2452 63.829 44.2452 91.3896C44.2452 118.95 66.5878 141.293 94.1487 141.293C109.15 141.293 122.605 134.673 131.75 124.2L138.745 146.398C132.154 152.311 124.489 157.049 116.081 160.283L115.181 160.629L114.891 161.549L108.393 182.198H90.3397L85.1937 166.265L84.7848 164.999L83.4592 164.887C78.6404 164.479 73.9556 163.607 69.4493 162.315L68.4413 162.026L67.6302 162.69L51.9296 175.558L36.3 165.682L40.6056 147.695L40.8789 146.553L40.0151 145.758C36.7213 142.726 33.7055 139.396 31.0103 135.812L30.3347 134.913L29.2159 135.023L11.6362 136.754L4.11631 119.864L17.0899 107.84L17.9082 107.082L17.6928 105.987C16.7855 101.376 16.3096 96.6089 16.3096 91.7285C16.3096 90.2046 16.356 88.6915 16.4475 87.191L16.5165 86.059L15.5804 85.4186L2.3203 76.3477L7.41641 58.5754L23.5084 57.7808L24.6309 57.7253L25.1673 56.7378C28.5339 50.5397 32.7678 44.8788 37.7064 39.9201L38.5484 39.0747L38.2044 37.9321L33.6414 22.7788L48.7613 12.139L62.8755 22.4092L63.7343 23.0341L64.733 22.6726C70.5905 20.5521 76.7953 19.1548 83.2402 18.59L84.5402 18.4761L84.9595 17.2402L90.1301 2H108.252L115.088 21.6343Z" fill="#CBCBCB" stroke="#BFBFBF" stroke-width="4"/>
</svg>
