<svg width="533" height="247" viewBox="0 0 533 247" fill="none" xmlns="http://www.w3.org/2000/svg">
<g filter="url(#filter0_d_1524_1228)">
<path fill-rule="evenodd" clip-rule="evenodd" d="M28.5805 44.6386C20.5279 46.584 15.5771 54.689 17.5225 62.7416L45.9062 180.23C47.8516 188.283 55.9566 193.234 64.0092 191.288L181.499 162.904C189.551 160.959 194.502 152.854 192.557 144.801L164.173 27.3126C162.228 19.26 154.123 14.3092 146.07 16.2546L28.5805 44.6386ZM55.5805 60.6385C47.5279 62.5839 42.577 70.6889 44.5225 78.7415L64.5726 161.735C66.518 169.788 74.623 174.739 82.6757 172.793L164.561 153.011C172.613 151.065 177.564 142.96 175.619 134.908L155.569 51.9142C153.623 43.8616 145.518 38.9107 137.466 40.8561L55.5805 60.6385Z" fill="url(#paint0_linear_1524_1228)"/>
<path fill-rule="evenodd" clip-rule="evenodd" d="M60.1152 191.707L72.6823 170.761C68.6273 168.917 65.4319 165.292 64.3047 160.626L44.5225 78.7415C43.5863 74.8663 44.2472 70.979 46.0823 67.7718L19.191 51.5848C17.2736 54.8272 16.568 58.7907 17.5225 62.7415L45.9062 180.23C47.5362 186.977 53.4906 191.547 60.1152 191.707Z" fill="url(#paint1_linear_1524_1228)"/>
<path fill-rule="evenodd" clip-rule="evenodd" d="M60.1152 191.707L72.6823 170.761C68.6273 168.917 65.4319 165.292 64.3047 160.626L44.5225 78.7415C43.5863 74.8663 44.2472 70.979 46.0823 67.7718L19.191 51.5848C17.2736 54.8272 16.568 58.7907 17.5225 62.7415L45.9062 180.23C47.5362 186.977 53.4906 191.547 60.1152 191.707Z" fill="url(#paint2_linear_1524_1228)"/>
<path fill-rule="evenodd" clip-rule="evenodd" d="M190.016 157.271L175.323 140.97C174.006 146.203 169.902 150.546 164.293 151.901L82.4077 171.684C78.0093 172.746 73.5952 171.752 70.1778 169.318L58.8866 191.626C60.5558 191.805 62.2837 191.705 64.0092 191.288L181.499 162.904C185.049 162.046 187.997 159.991 190.016 157.271Z" fill="url(#paint3_linear_1524_1228)"/>
<path fill-rule="evenodd" clip-rule="evenodd" d="M190.016 157.271L175.323 140.97C174.006 146.203 169.902 150.546 164.293 151.901L82.4077 171.684C78.0093 172.746 73.5952 171.752 70.1778 169.318L58.8866 191.626C60.5558 191.805 62.2837 191.705 64.0092 191.288L181.499 162.904C185.049 162.046 187.997 159.991 190.016 157.271Z" fill="url(#paint4_linear_1524_1228)"/>
<path fill-rule="evenodd" clip-rule="evenodd" d="M155.595 17.0871C152.699 15.8202 149.38 15.4547 146.07 16.2543L28.5807 44.6383C24.4789 45.6292 21.182 48.2183 19.1912 51.5845L45.7152 68.4534C47.6309 64.6669 51.1326 61.7129 55.5807 60.6383L137.466 40.8559C139.49 40.3669 141.517 40.3137 143.449 40.6358L155.595 17.0871Z" fill="url(#paint5_linear_1524_1228)"/>
<path fill-rule="evenodd" clip-rule="evenodd" d="M155.595 17.0871C152.699 15.8202 149.38 15.4547 146.07 16.2543L28.5807 44.6383C24.4789 45.6292 21.182 48.2183 19.1912 51.5845L45.7152 68.4534C47.6309 64.6669 51.1326 61.7129 55.5807 60.6383L137.466 40.8559C139.49 40.3669 141.517 40.3137 143.449 40.6358L155.595 17.0871Z" fill="url(#paint6_linear_1524_1228)"/>
<path fill-rule="evenodd" clip-rule="evenodd" d="M189.522 157.9C192.436 154.382 193.712 149.582 192.557 144.801L164.173 27.3123C162.901 22.0493 158.999 18.1112 154.199 16.5575L143.446 40.6353C149.202 41.5939 154.112 45.8844 155.568 51.9139L175.351 133.798C176.207 137.343 175.727 140.898 174.235 143.933L189.522 157.9Z" fill="url(#paint7_linear_1524_1228)"/>
<path fill-rule="evenodd" clip-rule="evenodd" d="M189.522 157.9C192.436 154.382 193.712 149.582 192.557 144.801L164.173 27.3123C162.901 22.0493 158.999 18.1112 154.199 16.5575L143.446 40.6353C149.202 41.5939 154.112 45.8844 155.568 51.9139L175.351 133.798C176.207 137.343 175.727 140.898 174.235 143.933L189.522 157.9Z" fill="url(#paint8_linear_1524_1228)"/>
<path d="M55.8121 60.2769L137.165 40.623C145.166 38.69 153.225 43.5889 155.193 51.5817L175.436 133.819L175.524 134.198C177.265 142.135 172.329 150.048 164.377 151.937L82.1969 171.467C74.2832 173.347 66.3456 168.557 64.2857 160.737L64.1923 160.363L44.7747 78.2493L44.691 77.8737C43.0362 69.9921 47.939 62.1791 55.8121 60.2769Z" fill="url(#paint9_linear_1524_1228)" stroke="white" stroke-width="0.1"/>
<rect x="14" y="48.161" width="150.87" height="150.869" rx="15" transform="rotate(-13.5817 14 48.161)" fill="#4E9AFF" fill-opacity="0.3"/>
<rect x="359.083" y="61.649" width="114.088" height="114.021" rx="14.95" transform="rotate(-17.3711 359.083 61.649)" fill="url(#paint10_linear_1524_1228)" stroke="white" stroke-width="0.1"/>
<path fill-rule="evenodd" clip-rule="evenodd" d="M345.283 42.9067C337.377 45.38 332.972 53.7945 335.446 61.7009L371.532 177.057C374.006 184.963 382.42 189.368 390.327 186.894L505.683 150.807C513.59 148.334 517.994 139.92 515.521 132.013L479.434 16.6573C476.961 8.75086 468.547 4.34648 460.64 6.81983L345.283 42.9067ZM373.282 57.0872C365.375 59.5606 360.971 67.9751 363.444 75.8815L388.595 156.279C391.068 164.186 399.483 168.59 407.389 166.117L487.788 140.966C495.694 138.493 500.099 130.078 497.625 122.172L472.475 41.7738C470.001 33.8673 461.587 29.463 453.68 31.9363L373.282 57.0872Z" fill="url(#paint11_linear_1524_1228)"/>
<path fill-rule="evenodd" clip-rule="evenodd" d="M386.469 187.569L397.624 165.839C393.456 164.266 390.028 160.861 388.595 156.279L363.444 75.8815C362.254 72.0766 362.656 68.1541 364.276 64.8327L336.373 50.4583C334.674 53.8204 334.232 57.8218 335.446 61.7009L371.532 177.057C373.605 183.681 379.848 187.847 386.469 187.569Z" fill="url(#paint12_linear_1524_1228)"/>
<path fill-rule="evenodd" clip-rule="evenodd" d="M386.469 187.569L397.624 165.839C393.456 164.266 390.028 160.861 388.595 156.279L363.444 75.8815C362.254 72.0766 362.656 68.1541 364.276 64.8327L336.373 50.4583C334.674 53.8204 334.232 57.8218 335.446 61.7009L371.532 177.057C373.605 183.681 379.848 187.847 386.469 187.569Z" fill="url(#paint13_linear_1524_1228)"/>
<path fill-rule="evenodd" clip-rule="evenodd" d="M513.81 144.623L498.071 129.33C497.103 134.638 493.295 139.243 487.788 140.966L407.389 166.117C403.071 167.468 398.6 166.767 395.03 164.564L385.237 187.57C386.915 187.638 388.632 187.424 390.327 186.894L505.683 150.807C509.17 149.717 511.975 147.471 513.81 144.623Z" fill="url(#paint14_linear_1524_1228)"/>
<path fill-rule="evenodd" clip-rule="evenodd" d="M513.81 144.623L498.071 129.33C497.103 134.638 493.295 139.243 487.788 140.966L407.389 166.117C403.071 167.468 398.6 166.767 395.03 164.564L385.237 187.57C386.915 187.638 388.632 187.424 390.327 186.894L505.683 150.807C509.17 149.717 511.975 147.471 513.81 144.623Z" fill="url(#paint15_linear_1524_1228)"/>
<path fill-rule="evenodd" clip-rule="evenodd" d="M470.199 7.02115C467.225 5.94834 463.89 5.80304 460.64 6.81963L345.283 42.9065C341.256 44.1663 338.137 46.9676 336.374 50.458L363.954 65.537C365.616 61.6322 368.914 58.4533 373.282 57.087L453.68 31.9361C455.668 31.3144 457.687 31.1273 459.636 31.321L470.199 7.02115Z" fill="url(#paint16_linear_1524_1228)"/>
<path fill-rule="evenodd" clip-rule="evenodd" d="M470.199 7.02115C467.225 5.94834 463.89 5.80304 460.64 6.81963L345.283 42.9065C341.256 44.1663 338.137 46.9676 336.374 50.458L363.954 65.537C365.616 61.6322 368.914 58.4533 373.282 57.087L453.68 31.9361C455.668 31.3144 457.687 31.1273 459.636 31.321L470.199 7.02115Z" fill="url(#paint17_linear_1524_1228)"/>
<path fill-rule="evenodd" clip-rule="evenodd" d="M513.359 145.284C516.033 141.581 516.989 136.707 515.521 132.013L479.434 16.657C477.818 11.4895 473.663 7.81798 468.771 6.58486L459.633 31.3206C465.44 31.8968 470.622 35.8534 472.474 41.7735L497.625 122.171C498.714 125.652 498.47 129.23 497.181 132.357L513.359 145.284Z" fill="url(#paint18_linear_1524_1228)"/>
<path fill-rule="evenodd" clip-rule="evenodd" d="M513.359 145.284C516.033 141.581 516.989 136.707 515.521 132.013L479.434 16.657C477.818 11.4895 473.663 7.81798 468.771 6.58486L459.633 31.3206C465.44 31.8968 470.622 35.8534 472.474 41.7735L497.625 122.171C498.714 125.652 498.47 129.23 497.181 132.357L513.359 145.284Z" fill="url(#paint19_linear_1524_1228)"/>
<rect x="330.967" y="47.385" width="150.87" height="150.869" rx="15" transform="rotate(-17.3711 330.967 47.385)" fill="#4E9AFF" fill-opacity="0.3"/>
<path fill-rule="evenodd" clip-rule="evenodd" d="M316.821 54.1605C317.19 54.3809 317.552 54.6179 317.903 54.871L344.234 73.829C348.468 76.8775 350.814 81.9071 350.428 87.1101L342.169 198.612C341.848 202.946 339.716 206.71 336.573 209.223L300.049 148.206L302.762 62.4579L316.821 54.1605Z" fill="#D9D9D9"/>
<path fill-rule="evenodd" clip-rule="evenodd" d="M316.821 54.1605C317.19 54.3809 317.552 54.6179 317.903 54.871L344.234 73.829C348.468 76.8775 350.814 81.9071 350.428 87.1101L342.169 198.612C341.848 202.946 339.716 206.71 336.573 209.223L300.049 148.206L302.762 62.4579L316.821 54.1605Z" fill="url(#paint20_linear_1524_1228)"/>
<path fill-rule="evenodd" clip-rule="evenodd" d="M211.924 53.2606L215.048 55.7058L208.048 138.706L178.153 184.841C178.163 184.723 178.174 184.606 178.187 184.488L189.045 83.4263C189.373 80.3729 190.628 77.4954 192.647 75.1814C199.562 67.2549 208.594 56.9455 211.924 53.2606Z" fill="#D9D9D9"/>
<path fill-rule="evenodd" clip-rule="evenodd" d="M211.924 53.2606L215.048 55.7058L208.048 138.706L178.153 184.841C178.163 184.723 178.174 184.606 178.187 184.488L189.045 83.4263C189.373 80.3729 190.628 77.4954 192.647 75.1814C199.562 67.2549 208.594 56.9455 211.924 53.2606Z" fill="url(#paint21_linear_1524_1228)"/>
<path fill-rule="evenodd" clip-rule="evenodd" d="M211.924 53.2606L215.048 55.7058L208.048 138.706L178.153 184.841C178.163 184.723 178.174 184.606 178.187 184.488L189.045 83.4263C189.373 80.3729 190.628 77.4954 192.647 75.1814C199.562 67.2549 208.594 56.9455 211.924 53.2606Z" fill="#4E9AFF" fill-opacity="0.3"/>
<path fill-rule="evenodd" clip-rule="evenodd" d="M336.573 209.223C339.717 206.711 341.849 202.947 342.17 198.612L350.429 87.1102C350.814 81.9072 348.469 76.8776 344.235 73.8291L319.481 56.0063C318.778 55.2501 317.997 54.5656 317.15 53.9662L316.821 54.1604C317.191 54.3809 317.552 54.6179 317.904 54.8711L319.481 56.0063C322.276 59.0137 323.841 63.1553 323.433 67.5939L315.895 149.6C315.415 154.821 312.31 159.18 307.992 161.477L336.573 209.223Z" fill="#D9D9D9"/>
<path fill-rule="evenodd" clip-rule="evenodd" d="M336.573 209.223C339.717 206.711 341.849 202.947 342.17 198.612L350.429 87.1102C350.814 81.9072 348.469 76.8776 344.235 73.8291L319.481 56.0063C318.778 55.2501 317.997 54.5656 317.15 53.9662L316.821 54.1604C317.191 54.3809 317.552 54.6179 317.904 54.8711L319.481 56.0063C322.276 59.0137 323.841 63.1553 323.433 67.5939L315.895 149.6C315.415 154.821 312.31 159.18 307.992 161.477L336.573 209.223Z" fill="url(#paint22_linear_1524_1228)"/>
<path fill-rule="evenodd" clip-rule="evenodd" d="M336.573 209.223C339.717 206.711 341.849 202.947 342.17 198.612L350.429 87.1102C350.814 81.9072 348.469 76.8776 344.235 73.8291L319.481 56.0063C318.778 55.2501 317.997 54.5656 317.15 53.9662L316.821 54.1604C317.191 54.3809 317.552 54.6179 317.904 54.8711L319.481 56.0063C322.276 59.0137 323.841 63.1553 323.433 67.5939L315.895 149.6C315.415 154.821 312.31 159.18 307.992 161.477L336.573 209.223Z" fill="#4E9AFF" fill-opacity="0.3"/>
<path fill-rule="evenodd" clip-rule="evenodd" d="M178.549 181.736L178.227 184.751C177.334 193.114 183.49 200.577 191.87 201.29L325.477 212.661C330.196 213.062 334.597 211.306 337.712 208.217L303.048 143.429L216.048 126.929L178.549 181.736Z" fill="#D9D9D9"/>
<path fill-rule="evenodd" clip-rule="evenodd" d="M178.549 181.736L178.227 184.751C177.334 193.114 183.49 200.577 191.87 201.29L325.477 212.661C330.196 213.062 334.597 211.306 337.712 208.217L303.048 143.429L216.048 126.929L178.549 181.736Z" fill="url(#paint23_linear_1524_1228)"/>
<path fill-rule="evenodd" clip-rule="evenodd" d="M178.549 181.736L178.227 184.751C177.334 193.114 183.49 200.577 191.87 201.29L325.477 212.661C330.196 213.062 334.597 211.306 337.712 208.217L303.048 143.429L216.048 126.929L178.549 181.736Z" fill="#4E9AFF" fill-opacity="0.3"/>
<path d="M226.669 45.5819L269.819 49.9944L269.819 49.9954L269.822 49.9946L310.302 51.4658C318.727 51.7721 325.203 58.9695 324.681 67.3307L324.65 67.7299L317.223 151.286C316.501 159.409 309.402 165.455 301.267 164.875L259.101 161.862L259.102 161.862L216.223 158.1C208.102 157.388 202.074 150.31 202.612 142.222L202.642 141.837L210.26 59.0838C211.011 50.9324 218.167 44.9258 226.281 45.5472L226.669 45.5819Z" fill="url(#paint24_linear_1524_1228)" stroke="white" stroke-width="0.1"/>
<path d="M210.211 59.0791C210.975 50.7706 218.373 44.683 226.674 45.5319L269.824 49.9451L310.304 51.4162C318.891 51.7282 325.461 59.1756 324.7 67.7343L317.273 151.29C316.549 159.441 309.425 165.507 301.263 164.924L259.098 161.912L216.219 158.15C207.941 157.423 201.831 150.106 202.593 141.832L210.211 59.0791Z" fill="#4E9AFF" fill-opacity="0.3"/>
<path d="M87.706 100.629L83.2415 82.1473L74.6347 103.787L87.706 100.629ZM91.2791 115.047L88.8714 105.08L70.9874 109.4L69.7767 104.388L82.1982 73.9602L86.5269 72.9146L92.9174 99.3705L98.9263 97.919L100.006 102.39L93.9974 103.842L96.4051 113.809L91.2791 115.047Z" fill="white"/>
<path d="M242.459 67.8878C246.974 68.1794 250.119 70.25 251.893 74.0995C253.266 77.075 253.791 81.0641 253.468 86.0667C253.162 90.8095 252.202 94.6863 250.589 97.6973C248.255 102.016 244.765 104.025 240.12 103.725C235.93 103.454 232.929 101.434 231.117 97.6632C229.608 94.5158 229.018 90.3839 229.349 85.2676C229.605 81.3045 230.336 77.9348 231.543 75.1585C233.801 69.9873 237.44 67.5637 242.459 67.8878ZM240.354 99.7275C242.628 99.8744 244.504 98.9843 245.982 97.0573C247.46 95.1304 248.376 91.4219 248.731 85.9321C248.987 81.969 248.71 78.6809 247.9 76.068C247.091 73.4388 245.282 72.0334 242.472 71.852C239.889 71.6852 237.918 72.7812 236.559 75.1399C235.217 77.4834 234.394 81.0185 234.088 85.7449C233.859 89.302 234.056 92.1853 234.68 94.3948C235.636 97.7675 237.528 99.545 240.354 99.7275Z" fill="white"/>
<path d="M409.01 94.8385L402.713 76.8976L396.321 99.2917L409.01 94.8385ZM414.012 108.825L410.616 99.1494L393.256 105.242L391.548 100.377L400.854 68.8566L405.055 67.3819L414.069 93.063L419.901 91.0159L421.425 95.3559L415.592 97.4031L418.988 107.078L414.012 108.825Z" fill="white"/>
</g>
<defs>
<filter id="filter0_d_1524_1228" x="0.899548" y="6.13147" width="531.51" height="240.786" filterUnits="userSpaceOnUse" color-interpolation-filters="sRGB">
<feFlood flood-opacity="0" result="BackgroundImageFix"/>
<feColorMatrix in="SourceAlpha" type="matrix" values="0 0 0 0 0 0 0 0 0 0 0 0 0 0 0 0 0 0 127 0" result="hardAlpha"/>
<feOffset dy="18"/>
<feGaussianBlur stdDeviation="8.1"/>
<feComposite in2="hardAlpha" operator="out"/>
<feColorMatrix type="matrix" values="0 0 0 0 0 0 0 0 0 0 0 0 0 0 0 0 0 0 0.3 0"/>
<feBlend mode="normal" in2="BackgroundImageFix" result="effect1_dropShadow_1524_1228"/>
<feBlend mode="normal" in="SourceGraphic" in2="effect1_dropShadow_1524_1228" result="shape"/>
</filter>
<linearGradient id="paint0_linear_1524_1228" x1="178.221" y1="145.681" x2="41.6516" y2="66.8597" gradientUnits="userSpaceOnUse">
<stop stop-color="#062853"/>
<stop offset="1" stop-color="#0E4895"/>
</linearGradient>
<linearGradient id="paint1_linear_1524_1228" x1="44.8909" y1="51.5848" x2="44.8909" y2="191.707" gradientUnits="userSpaceOnUse">
<stop stop-color="#D9D9D9"/>
<stop offset="1" stop-color="#737373"/>
</linearGradient>
<linearGradient id="paint2_linear_1524_1228" x1="57.9553" y1="176.094" x2="-10.844" y2="130.228" gradientUnits="userSpaceOnUse">
<stop stop-color="#0E4895"/>
<stop offset="0.5" stop-color="#062853"/>
<stop offset="1" stop-color="#0E4895"/>
</linearGradient>
<linearGradient id="paint3_linear_1524_1228" x1="50.5732" y1="51.5848" x2="50.5732" y2="189.612" gradientUnits="userSpaceOnUse">
<stop stop-color="#D9D9D9"/>
<stop offset="1" stop-color="#737373"/>
</linearGradient>
<linearGradient id="paint4_linear_1524_1228" x1="61.8213" y1="181.732" x2="115.687" y2="106.098" gradientUnits="userSpaceOnUse">
<stop stop-color="#0E4895"/>
<stop offset="0.5" stop-color="#062853"/>
<stop offset="1" stop-color="#0E4895"/>
</linearGradient>
<linearGradient id="paint5_linear_1524_1228" x1="32.912" y1="58.7703" x2="32.912" y2="186.571" gradientUnits="userSpaceOnUse">
<stop stop-color="#D9D9D9"/>
<stop offset="1" stop-color="#737373"/>
</linearGradient>
<linearGradient id="paint6_linear_1524_1228" x1="33.7618" y1="61.2321" x2="73.1919" y2="-7.59311" gradientUnits="userSpaceOnUse">
<stop stop-color="#0E4895"/>
<stop offset="0.223922" stop-color="#062853"/>
<stop offset="1" stop-color="#0E4895"/>
</linearGradient>
<linearGradient id="paint7_linear_1524_1228" x1="24.608" y1="62.9673" x2="24.608" y2="203.536" gradientUnits="userSpaceOnUse">
<stop stop-color="#D9D9D9"/>
<stop offset="1" stop-color="#737373"/>
</linearGradient>
<linearGradient id="paint8_linear_1524_1228" x1="143.233" y1="23.1453" x2="234.226" y2="87.3351" gradientUnits="userSpaceOnUse">
<stop stop-color="#0E4794"/>
<stop offset="0.46124" stop-color="#062853"/>
<stop offset="0.914873" stop-color="#0E4895"/>
</linearGradient>
<linearGradient id="paint9_linear_1524_1228" x1="177.761" y1="145.061" x2="41.7257" y2="66.7963" gradientUnits="userSpaceOnUse">
<stop stop-color="#062853"/>
<stop offset="1" stop-color="#0E4895"/>
</linearGradient>
<linearGradient id="paint10_linear_1524_1228" x1="473.209" y1="172.965" x2="359.083" y2="64.3239" gradientUnits="userSpaceOnUse">
<stop stop-color="#062853"/>
<stop offset="1" stop-color="#0E4895"/>
</linearGradient>
<linearGradient id="paint11_linear_1524_1228" x1="501.275" y1="133.838" x2="359.794" y2="64.2153" gradientUnits="userSpaceOnUse">
<stop stop-color="#062853"/>
<stop offset="1" stop-color="#0E4895"/>
</linearGradient>
<linearGradient id="paint12_linear_1524_1228" x1="362.017" y1="48.7598" x2="371.278" y2="188.575" gradientUnits="userSpaceOnUse">
<stop stop-color="#D9D9D9"/>
<stop offset="1" stop-color="#737373"/>
</linearGradient>
<linearGradient id="paint13_linear_1524_1228" x1="383.282" y1="172.133" x2="311.602" y2="130.915" gradientUnits="userSpaceOnUse">
<stop stop-color="#0E4895"/>
<stop offset="0.5" stop-color="#062853"/>
<stop offset="1" stop-color="#0E4895"/>
</linearGradient>
<linearGradient id="paint14_linear_1524_1228" x1="367.687" y1="48.3843" x2="376.809" y2="186.109" gradientUnits="userSpaceOnUse">
<stop stop-color="#D9D9D9"/>
<stop offset="1" stop-color="#737373"/>
</linearGradient>
<linearGradient id="paint15_linear_1524_1228" x1="387.512" y1="177.504" x2="436.261" y2="98.4744" gradientUnits="userSpaceOnUse">
<stop stop-color="#0E4895"/>
<stop offset="0.5" stop-color="#062853"/>
<stop offset="1" stop-color="#0E4895"/>
</linearGradient>
<linearGradient id="paint16_linear_1524_1228" x1="350.539" y1="56.7213" x2="358.986" y2="184.242" gradientUnits="userSpaceOnUse">
<stop stop-color="#D9D9D9"/>
<stop offset="1" stop-color="#737373"/>
</linearGradient>
<linearGradient id="paint17_linear_1524_1228" x1="351.55" y1="59.1215" x2="386.345" y2="-12.1591" gradientUnits="userSpaceOnUse">
<stop stop-color="#0E4895"/>
<stop offset="0.223922" stop-color="#062853"/>
<stop offset="1" stop-color="#0E4895"/>
</linearGradient>
<linearGradient id="paint18_linear_1524_1228" x1="342.531" y1="61.4579" x2="351.821" y2="201.719" gradientUnits="userSpaceOnUse">
<stop stop-color="#D9D9D9"/>
<stop offset="1" stop-color="#737373"/>
</linearGradient>
<linearGradient id="paint19_linear_1524_1228" x1="458.265" y1="13.883" x2="553.301" y2="71.9187" gradientUnits="userSpaceOnUse">
<stop stop-color="#0E4794"/>
<stop offset="0.46124" stop-color="#062853"/>
<stop offset="0.914873" stop-color="#0E4895"/>
</linearGradient>
<linearGradient id="paint20_linear_1524_1228" x1="350.562" y1="155.773" x2="300.758" y2="147.838" gradientUnits="userSpaceOnUse">
<stop stop-color="#062853"/>
<stop offset="1" stop-color="#0E4895"/>
</linearGradient>
<linearGradient id="paint21_linear_1524_1228" x1="183.431" y1="214.766" x2="123.971" y2="165.822" gradientUnits="userSpaceOnUse">
<stop stop-color="#062853"/>
<stop offset="1" stop-color="#0E4895"/>
</linearGradient>
<linearGradient id="paint22_linear_1524_1228" x1="350.549" y1="155.706" x2="308.285" y2="150.04" gradientUnits="userSpaceOnUse">
<stop stop-color="#062853"/>
<stop offset="1" stop-color="#0E4895"/>
</linearGradient>
<linearGradient id="paint23_linear_1524_1228" x1="320.484" y1="197.212" x2="245.854" y2="113.468" gradientUnits="userSpaceOnUse">
<stop stop-color="#041D3D"/>
<stop offset="1" stop-color="#174E99"/>
</linearGradient>
<linearGradient id="paint24_linear_1524_1228" x1="319.363" y1="162.128" x2="213.026" y2="45.7051" gradientUnits="userSpaceOnUse">
<stop stop-color="#062853"/>
<stop offset="1" stop-color="#0E4895"/>
</linearGradient>
</defs>
</svg>
