<svg width="533" height="247" viewBox="0 0 533 247" fill="none" xmlns="http://www.w3.org/2000/svg">
<g filter="url(#filter0_d_731_1817)">
<rect x="14" y="48.1686" width="150.87" height="150.869" rx="15" transform="rotate(-13.5817 14 48.1686)" fill="url(#paint0_linear_731_1817)"/>
<rect x="41.853" y="63.9112" width="113.019" height="113.019" rx="14.95" transform="rotate(-13.5817 41.853 63.9112)" fill="url(#paint1_linear_731_1817)" stroke="white" stroke-width="0.1"/>
<path fill-rule="evenodd" clip-rule="evenodd" d="M28.481 44.1483C20.4284 46.0937 15.4775 54.1987 17.4229 62.2513L45.8067 179.74C47.7521 187.793 55.8571 192.743 63.9097 190.798L181.399 162.414C189.452 160.469 194.403 152.364 192.457 144.311L164.074 26.8224C162.128 18.7698 154.023 13.8189 145.971 15.7643L28.481 44.1483ZM55.481 60.1483C47.4284 62.0937 42.4775 70.1987 44.4229 78.2514L64.2051 160.136C66.1505 168.188 74.2555 173.139 82.3082 171.194L164.193 151.411C172.246 149.466 177.197 141.361 175.251 133.308L155.469 51.424C153.524 43.3714 145.419 38.4205 137.366 40.3659L55.481 60.1483Z" fill="url(#paint2_linear_731_1817)"/>
<path fill-rule="evenodd" clip-rule="evenodd" d="M60.0156 191.217L72.5828 170.271C68.5278 168.426 65.3324 164.802 64.2051 160.136L44.4229 78.2513C43.4867 74.3761 44.1476 70.4887 45.9827 67.2816L19.0915 51.0946C17.174 54.337 16.4684 58.3004 17.4229 62.2513L45.8067 179.74C47.4367 186.487 53.391 191.057 60.0156 191.217Z" fill="url(#paint3_linear_731_1817)"/>
<path fill-rule="evenodd" clip-rule="evenodd" d="M60.0156 191.217L72.5828 170.271C68.5278 168.426 65.3324 164.802 64.2051 160.136L44.4229 78.2513C43.4867 74.3761 44.1476 70.4887 45.9827 67.2816L19.0915 51.0946C17.174 54.337 16.4684 58.3004 17.4229 62.2513L45.8067 179.74C47.4367 186.487 53.391 191.057 60.0156 191.217Z" fill="url(#paint4_linear_731_1817)"/>
<path fill-rule="evenodd" clip-rule="evenodd" d="M189.917 156.78L175.223 140.48C173.906 145.713 169.802 150.056 164.193 151.411L82.3082 171.194C77.9097 172.256 73.4957 171.261 70.0783 168.827L58.787 191.136C60.4562 191.315 62.1842 191.215 63.9097 190.798L181.399 162.414C184.95 161.556 187.898 159.501 189.917 156.78Z" fill="url(#paint5_linear_731_1817)"/>
<path fill-rule="evenodd" clip-rule="evenodd" d="M189.917 156.78L175.223 140.48C173.906 145.713 169.802 150.056 164.193 151.411L82.3082 171.194C77.9097 172.256 73.4957 171.261 70.0783 168.827L58.787 191.136C60.4562 191.315 62.1842 191.215 63.9097 190.798L181.399 162.414C184.95 161.556 187.898 159.501 189.917 156.78Z" fill="url(#paint6_linear_731_1817)"/>
<path fill-rule="evenodd" clip-rule="evenodd" d="M155.495 16.5969C152.599 15.3299 149.281 14.9645 145.971 15.7641L28.4811 44.1481C24.3794 45.139 21.0824 47.7281 19.0917 51.0943L45.6156 67.9632C47.5314 64.1767 51.033 61.2227 55.4811 60.1481L137.366 40.3657C139.39 39.8767 141.418 39.8234 143.35 40.1456L155.495 16.5969Z" fill="url(#paint7_linear_731_1817)"/>
<path fill-rule="evenodd" clip-rule="evenodd" d="M155.495 16.5969C152.599 15.3299 149.281 14.9645 145.971 15.7641L28.4811 44.1481C24.3794 45.139 21.0824 47.7281 19.0917 51.0943L45.6156 67.9632C47.5314 64.1767 51.033 61.2227 55.4811 60.1481L137.366 40.3657C139.39 39.8767 141.418 39.8234 143.35 40.1456L155.495 16.5969Z" fill="url(#paint8_linear_731_1817)"/>
<path fill-rule="evenodd" clip-rule="evenodd" d="M189.423 157.41C192.336 153.892 193.612 149.092 192.457 144.311L164.073 26.8221C162.802 21.559 158.899 17.621 154.1 16.0673L143.347 40.145C149.102 41.1037 154.012 45.3942 155.469 51.4237L175.251 133.308C176.107 136.853 175.627 140.407 174.135 143.442L189.423 157.41Z" fill="url(#paint9_linear_731_1817)"/>
<path fill-rule="evenodd" clip-rule="evenodd" d="M189.423 157.41C192.336 153.892 193.612 149.092 192.457 144.311L164.073 26.8221C162.802 21.559 158.899 17.621 154.1 16.0673L143.347 40.145C149.102 41.1037 154.012 45.3942 155.469 51.4237L175.251 133.308C176.107 136.853 175.627 140.407 174.135 143.442L189.423 157.41Z" fill="url(#paint10_linear_731_1817)"/>
<path fill-rule="evenodd" clip-rule="evenodd" d="M27.8703 43.6617C19.8177 45.6071 14.8668 53.7121 16.8122 61.7648L45.4776 180.419C47.423 188.472 55.528 193.423 63.5806 191.477L181.681 162.946C189.734 161 194.684 152.895 192.739 144.843L164.074 26.1883C162.128 18.1356 154.023 13.1848 145.971 15.1302L27.8703 43.6617Z" fill="#4E9AFF" fill-opacity="0.3"/>
<rect x="331" y="47.385" width="150.87" height="150.869" rx="15" transform="rotate(-17.3711 331 47.385)" fill="url(#paint11_linear_731_1817)"/>
<rect x="359.833" y="61.2525" width="113.019" height="113.019" rx="14.95" transform="rotate(-17.3711 359.833 61.2525)" fill="url(#paint12_linear_731_1817)" stroke="white" stroke-width="0.1"/>
<path fill-rule="evenodd" clip-rule="evenodd" d="M345.184 42.4165C337.277 44.8899 332.873 53.3044 335.346 61.2108L371.433 176.567C373.906 184.473 382.321 188.877 390.227 186.404L505.584 150.317C513.49 147.844 517.895 139.429 515.421 131.523L479.335 16.1672C476.862 8.26075 468.447 3.85637 460.541 6.32972L345.184 42.4165ZM373.182 56.5971C365.276 59.0705 360.871 67.485 363.345 75.3914L388.495 155.789C390.969 163.696 399.383 168.1 407.29 165.627L487.688 140.476C495.595 138.002 499.999 129.588 497.526 121.682L472.375 41.2837C469.902 33.3772 461.487 28.9728 453.581 31.4462L373.182 56.5971Z" fill="url(#paint13_linear_731_1817)"/>
<path fill-rule="evenodd" clip-rule="evenodd" d="M386.369 187.079L397.525 165.349C393.357 163.776 389.929 160.371 388.495 155.789L363.345 75.3914C362.154 71.5865 362.557 67.664 364.176 64.3426L336.274 49.9682C334.575 53.3303 334.133 57.3317 335.346 61.2108L371.433 176.567C373.505 183.191 379.749 187.357 386.369 187.079Z" fill="url(#paint14_linear_731_1817)"/>
<path fill-rule="evenodd" clip-rule="evenodd" d="M386.369 187.079L397.525 165.349C393.357 163.776 389.929 160.371 388.495 155.789L363.345 75.3914C362.154 71.5865 362.557 67.664 364.176 64.3426L336.274 49.9682C334.575 53.3303 334.133 57.3317 335.346 61.2108L371.433 176.567C373.505 183.191 379.749 187.357 386.369 187.079Z" fill="url(#paint15_linear_731_1817)"/>
<path fill-rule="evenodd" clip-rule="evenodd" d="M513.71 144.133L497.972 128.84C497.004 134.148 493.195 138.753 487.688 140.476L407.29 165.627C402.971 166.978 398.501 166.277 394.93 164.074L385.138 187.08C386.815 187.148 388.533 186.934 390.227 186.404L505.584 150.317C509.07 149.227 511.875 146.981 513.71 144.133Z" fill="url(#paint16_linear_731_1817)"/>
<path fill-rule="evenodd" clip-rule="evenodd" d="M513.71 144.133L497.972 128.84C497.004 134.148 493.195 138.753 487.688 140.476L407.29 165.627C402.971 166.978 398.501 166.277 394.93 164.074L385.138 187.08C386.815 187.148 388.533 186.934 390.227 186.404L505.584 150.317C509.07 149.227 511.875 146.981 513.71 144.133Z" fill="url(#paint17_linear_731_1817)"/>
<path fill-rule="evenodd" clip-rule="evenodd" d="M470.099 6.53103C467.126 5.45823 463.79 5.31293 460.541 6.32952L345.184 42.4163C341.157 43.6762 338.038 46.4775 336.274 49.9679L363.855 65.0469C365.516 61.1421 368.815 57.9632 373.182 56.5969L453.581 31.446C455.568 30.8243 457.588 30.6372 459.537 30.8309L470.099 6.53103Z" fill="url(#paint18_linear_731_1817)"/>
<path fill-rule="evenodd" clip-rule="evenodd" d="M470.099 6.53103C467.126 5.45823 463.79 5.31293 460.541 6.32952L345.184 42.4163C341.157 43.6762 338.038 46.4775 336.274 49.9679L363.855 65.0469C365.516 61.1421 368.815 57.9632 373.182 56.5969L453.581 31.446C455.568 30.8243 457.588 30.6372 459.537 30.8309L470.099 6.53103Z" fill="url(#paint19_linear_731_1817)"/>
<path fill-rule="evenodd" clip-rule="evenodd" d="M513.259 144.794C515.933 141.091 516.89 136.217 515.421 131.523L479.335 16.1669C477.718 10.9994 473.564 7.32787 468.672 6.09475L459.534 30.8305C465.34 31.4067 470.523 35.3633 472.375 41.2834L497.525 121.681C498.614 125.162 498.37 128.74 497.082 131.867L513.259 144.794Z" fill="url(#paint20_linear_731_1817)"/>
<path fill-rule="evenodd" clip-rule="evenodd" d="M513.259 144.794C515.933 141.091 516.89 136.217 515.421 131.523L479.335 16.1669C477.718 10.9994 473.564 7.32787 468.672 6.09475L459.534 30.8305C465.34 31.4067 470.523 35.3633 472.375 41.2834L497.525 121.681C498.614 125.162 498.37 128.74 497.082 131.867L513.259 144.794Z" fill="url(#paint21_linear_731_1817)"/>
<path fill-rule="evenodd" clip-rule="evenodd" d="M345.065 42.2904C337.158 44.7637 332.754 53.1782 335.227 61.0846L371.466 176.925C373.939 184.831 382.353 189.236 390.26 186.763L505.617 150.676C513.523 148.202 517.928 139.788 515.454 131.881L479.216 16.041C476.743 8.13456 468.328 3.73018 460.422 6.20353L345.065 42.2904Z" fill="#4E9AFF" fill-opacity="0.3"/>
<mask id="path-17-inside-1_731_1817" fill="white">
<path fill-rule="evenodd" clip-rule="evenodd" d="M212.488 52.7465C211.41 54.5804 210.706 56.6741 210.493 58.9327L202.868 139.713C202.086 147.999 208.2 155.338 216.491 156.065L258.449 159.745L299.789 162.698C307.933 163.28 315.047 157.24 315.794 149.109L323.333 67.1036C323.741 62.665 322.176 58.5234 319.38 55.516L344.134 73.3388C348.368 76.3873 350.714 81.4168 350.329 86.6199L342.069 198.122C341.453 206.447 334.157 212.667 325.838 211.959L191.729 200.546C183.345 199.832 177.188 192.364 178.087 183.998L188.968 82.7185C189.282 79.8007 190.436 77.04 192.361 74.8254C199.115 67.0576 210.736 54.4587 212.449 52.7454L212.488 52.7465ZM212.488 52.7465C215.36 47.8612 220.893 44.8193 226.906 45.4155L269.004 49.5886L308.828 50.7368C313.024 50.8578 316.748 52.6839 319.38 55.516L317.804 54.3808C314.988 52.3535 311.556 51.365 308.094 51.5837L265.949 54.2454L212.488 52.7465Z"/>
</mask>
<path fill-rule="evenodd" clip-rule="evenodd" d="M212.488 52.7465C211.41 54.5804 210.706 56.6741 210.493 58.9327L202.868 139.713C202.086 147.999 208.2 155.338 216.491 156.065L258.449 159.745L299.789 162.698C307.933 163.28 315.047 157.24 315.794 149.109L323.333 67.1036C323.741 62.665 322.176 58.5234 319.38 55.516L344.134 73.3388C348.368 76.3873 350.714 81.4168 350.329 86.6199L342.069 198.122C341.453 206.447 334.157 212.667 325.838 211.959L191.729 200.546C183.345 199.832 177.188 192.364 178.087 183.998L188.968 82.7185C189.282 79.8007 190.436 77.04 192.361 74.8254C199.115 67.0576 210.736 54.4587 212.449 52.7454L212.488 52.7465ZM212.488 52.7465C215.36 47.8612 220.893 44.8193 226.906 45.4155L269.004 49.5886L308.828 50.7368C313.024 50.8578 316.748 52.6839 319.38 55.516L317.804 54.3808C314.988 52.3535 311.556 51.365 308.094 51.5837L265.949 54.2454L212.488 52.7465Z" fill="url(#paint22_linear_731_1817)"/>
<path d="M210.493 58.9327L210.593 58.9421L210.493 58.9327ZM202.868 139.713L202.768 139.703L202.868 139.713ZM216.491 156.065L216.482 156.164L216.491 156.065ZM258.449 159.745L258.44 159.845L258.442 159.845L258.449 159.745ZM299.789 162.698L299.796 162.599L299.789 162.698ZM315.794 149.109L315.695 149.1L315.794 149.109ZM323.333 67.1036L323.233 67.0944V67.0945L323.333 67.1036ZM344.134 73.3388L344.193 73.2576L344.134 73.3388ZM350.329 86.6199L350.428 86.6273L350.329 86.6199ZM342.069 198.122L341.97 198.114L342.069 198.122ZM325.838 211.959L325.83 212.059L325.838 211.959ZM191.729 200.546L191.721 200.646L191.729 200.546ZM178.087 183.998L178.187 184.008L178.087 183.998ZM188.968 82.7185L188.869 82.7078L188.968 82.7185ZM192.361 74.8254L192.437 74.891L192.361 74.8254ZM212.449 52.7454L212.452 52.6455L212.409 52.6443L212.378 52.6747L212.449 52.7454ZM226.906 45.4155L226.916 45.316L226.906 45.4155ZM269.004 49.5886L268.995 49.6883L269.002 49.6885L269.004 49.5886ZM308.828 50.7368L308.825 50.8367L308.828 50.7368ZM317.804 54.3808L317.745 54.462L317.804 54.3808ZM308.094 51.5837L308.087 51.4839L308.094 51.5837ZM265.949 54.2454L265.946 54.3458L265.955 54.3452L265.949 54.2454ZM210.593 58.9421C210.804 56.6984 211.503 54.6188 212.574 52.7972L212.402 52.6958C211.316 54.5421 210.608 56.6499 210.393 58.9233L210.593 58.9421ZM202.968 139.722L210.593 58.9421L210.393 58.9233L202.768 139.703L202.968 139.722ZM216.5 155.965C208.264 155.243 202.191 147.953 202.968 139.722L202.768 139.703C201.981 148.045 208.136 155.432 216.482 156.164L216.5 155.965ZM258.458 159.646L216.5 155.965L216.482 156.164L258.44 159.845L258.458 159.646ZM299.796 162.599L258.456 159.646L258.442 159.845L299.782 162.798L299.796 162.599ZM315.695 149.1C314.952 157.177 307.886 163.176 299.796 162.599L299.782 162.798C307.98 163.384 315.142 157.304 315.894 149.119L315.695 149.1ZM323.233 67.0945L315.695 149.1L315.894 149.119L323.432 67.1128L323.233 67.0945ZM319.307 55.5841C322.084 58.5716 323.638 62.6854 323.233 67.0944L323.432 67.1128C323.843 62.6446 322.268 58.4752 319.454 55.4479L319.307 55.5841ZM319.322 55.5972L344.076 73.4199L344.193 73.2576L319.439 55.4349L319.322 55.5972ZM344.076 73.4199C348.282 76.4481 350.612 81.4441 350.229 86.6125L350.428 86.6273C350.816 81.3895 348.455 76.3264 344.193 73.2576L344.076 73.4199ZM350.229 86.6125L341.97 198.114L342.169 198.129L350.428 86.6273L350.229 86.6125ZM341.97 198.114C341.357 206.384 334.11 212.563 325.847 211.86L325.83 212.059C334.204 212.772 341.548 206.51 342.169 198.129L341.97 198.114ZM325.847 211.86L191.738 200.446L191.721 200.646L325.83 212.059L325.847 211.86ZM191.738 200.446C183.41 199.737 177.294 192.318 178.187 184.008L177.988 183.987C177.083 192.409 183.281 199.927 191.721 200.646L191.738 200.446ZM178.187 184.008L189.068 82.7292L188.869 82.7078L177.988 183.987L178.187 184.008ZM189.068 82.7292C189.379 79.8306 190.525 77.0894 192.437 74.891L192.286 74.7598C190.346 76.9907 189.184 79.7708 188.869 82.7078L189.068 82.7292ZM192.437 74.891C199.19 67.1238 210.809 54.527 212.52 52.8161L212.378 52.6747C210.663 54.3905 199.04 66.9913 192.286 74.7598L192.437 74.891ZM212.446 52.8454L212.485 52.8465L212.491 52.6465L212.452 52.6455L212.446 52.8454ZM212.574 52.7972C215.427 47.9442 220.923 44.9228 226.896 45.515L226.916 45.316C220.862 44.7158 215.293 47.7782 212.402 52.6958L212.574 52.7972ZM226.896 45.515L268.995 49.6881L269.014 49.489L226.916 45.316L226.896 45.515ZM269.002 49.6885L308.825 50.8367L308.831 50.6368L269.007 49.4886L269.002 49.6885ZM308.825 50.8367C312.993 50.9569 316.692 52.7708 319.307 55.5841L319.454 55.4479C316.804 52.5971 313.054 50.7586 308.831 50.6368L308.825 50.8367ZM317.745 54.462L319.322 55.5972L319.439 55.4349L317.862 54.2997L317.745 54.462ZM308.1 51.6835C311.54 51.4662 314.948 52.4481 317.745 54.462L317.862 54.2997C315.028 52.2588 311.573 51.2637 308.087 51.4839L308.1 51.6835ZM265.955 54.3452L308.1 51.6835L308.087 51.4839L265.943 54.1456L265.955 54.3452ZM212.485 52.8465L265.946 54.3454L265.952 54.1455L212.491 52.6465L212.485 52.8465Z" fill="white" mask="url(#path-17-inside-1_731_1817)"/>
<path fill-rule="evenodd" clip-rule="evenodd" d="M336.473 208.733C339.617 206.22 341.749 202.456 342.07 198.122L350.329 86.62C350.715 81.4169 348.369 76.3874 344.135 73.3389L319.381 55.5161C318.678 54.7599 317.897 54.0754 317.051 53.476L316.722 53.6702C317.091 53.8906 317.453 54.1277 317.804 54.3809L319.381 55.5161C322.177 58.5235 323.741 62.6651 323.333 67.1037L315.795 149.11C315.315 154.331 312.21 158.69 307.893 160.987L336.473 208.733Z" fill="#D9D9D9"/>
<path fill-rule="evenodd" clip-rule="evenodd" d="M336.473 208.733C339.617 206.22 341.749 202.456 342.07 198.122L350.329 86.62C350.715 81.4169 348.369 76.3874 344.135 73.3389L319.381 55.5161C318.678 54.7599 317.897 54.0754 317.051 53.476L316.722 53.6702C317.091 53.8906 317.453 54.1277 317.804 54.3809L319.381 55.5161C322.177 58.5235 323.741 62.6651 323.333 67.1037L315.795 149.11C315.315 154.331 312.21 158.69 307.893 160.987L336.473 208.733Z" fill="url(#paint23_linear_731_1817)"/>
<path fill-rule="evenodd" clip-rule="evenodd" d="M203.381 145.265L178.053 184.351C178.063 184.233 178.074 184.115 178.087 183.997L188.968 82.7184C189.282 79.8006 190.436 77.0399 192.361 74.8253C198.816 67.4018 209.715 55.5663 212.164 53.036L212.274 53.1222C211.317 54.8644 210.692 56.8269 210.493 58.9326L202.868 139.713C202.686 141.638 202.877 143.513 203.381 145.265Z" fill="#D9D9D9"/>
<path fill-rule="evenodd" clip-rule="evenodd" d="M203.381 145.265L178.053 184.351C178.063 184.233 178.074 184.115 178.087 183.997L188.968 82.7184C189.282 79.8006 190.436 77.0399 192.361 74.8253C198.816 67.4018 209.715 55.5663 212.164 53.036L212.274 53.1222C211.317 54.8644 210.692 56.8269 210.493 58.9326L202.868 139.713C202.686 141.638 202.877 143.513 203.381 145.265Z" fill="url(#paint24_linear_731_1817)"/>
<path fill-rule="evenodd" clip-rule="evenodd" d="M337.69 207.648C334.675 210.644 330.411 212.348 325.838 211.959L191.729 200.546C183.346 199.832 177.188 192.363 178.087 183.997L178.399 181.097L203.249 144.777C204.762 150.801 209.949 155.491 216.491 156.065L258.449 159.745L299.789 162.698C304.248 163.017 308.398 161.35 311.363 158.443L337.69 207.648Z" fill="#D9D9D9"/>
<path fill-rule="evenodd" clip-rule="evenodd" d="M337.69 207.648C334.675 210.644 330.411 212.348 325.838 211.959L191.729 200.546C183.346 199.832 177.188 192.363 178.087 183.997L178.399 181.097L203.249 144.777C204.762 150.801 209.949 155.491 216.491 156.065L258.449 159.745L299.789 162.698C304.248 163.017 308.398 161.35 311.363 158.443L337.69 207.648Z" fill="url(#paint25_linear_731_1817)"/>
<mask id="path-22-inside-2_731_1817" fill="white">
<path fill-rule="evenodd" clip-rule="evenodd" d="M212.488 52.7465C211.41 54.5804 210.706 56.6741 210.493 58.9327L202.868 139.713C202.086 147.999 208.2 155.338 216.491 156.065L258.449 159.745L299.789 162.698C307.933 163.28 315.047 157.24 315.794 149.109L323.333 67.1036C323.741 62.665 322.176 58.5234 319.38 55.516L344.134 73.3388C348.368 76.3873 350.714 81.4168 350.329 86.6199L342.069 198.122C341.453 206.447 334.157 212.667 325.838 211.959L191.729 200.546C183.345 199.832 177.188 192.364 178.087 183.998L188.968 82.7185C189.282 79.8007 190.436 77.04 192.361 74.8254C199.115 67.0576 210.736 54.4587 212.449 52.7454L212.488 52.7465ZM212.488 52.7465C215.36 47.8612 220.893 44.8193 226.906 45.4155L269.004 49.5886L308.828 50.7368C313.024 50.8578 316.748 52.6839 319.38 55.516L317.804 54.3808C314.988 52.3535 311.556 51.365 308.094 51.5837L265.949 54.2454L212.488 52.7465Z"/>
</mask>
<path fill-rule="evenodd" clip-rule="evenodd" d="M212.488 52.7465C211.41 54.5804 210.706 56.6741 210.493 58.9327L202.868 139.713C202.086 147.999 208.2 155.338 216.491 156.065L258.449 159.745L299.789 162.698C307.933 163.28 315.047 157.24 315.794 149.109L323.333 67.1036C323.741 62.665 322.176 58.5234 319.38 55.516L344.134 73.3388C348.368 76.3873 350.714 81.4168 350.329 86.6199L342.069 198.122C341.453 206.447 334.157 212.667 325.838 211.959L191.729 200.546C183.345 199.832 177.188 192.364 178.087 183.998L188.968 82.7185C189.282 79.8007 190.436 77.04 192.361 74.8254C199.115 67.0576 210.736 54.4587 212.449 52.7454L212.488 52.7465ZM212.488 52.7465C215.36 47.8612 220.893 44.8193 226.906 45.4155L269.004 49.5886L308.828 50.7368C313.024 50.8578 316.748 52.6839 319.38 55.516L317.804 54.3808C314.988 52.3535 311.556 51.365 308.094 51.5837L265.949 54.2454L212.488 52.7465Z" fill="url(#paint26_linear_731_1817)"/>
<path d="M210.493 58.9327L210.593 58.9421L210.493 58.9327ZM202.868 139.713L202.768 139.703L202.868 139.713ZM216.491 156.065L216.482 156.164L216.491 156.065ZM258.449 159.745L258.44 159.845L258.442 159.845L258.449 159.745ZM299.789 162.698L299.796 162.599L299.789 162.698ZM315.794 149.109L315.695 149.1L315.794 149.109ZM323.333 67.1036L323.233 67.0944V67.0945L323.333 67.1036ZM344.134 73.3388L344.193 73.2576L344.134 73.3388ZM350.329 86.6199L350.428 86.6273L350.329 86.6199ZM342.069 198.122L341.97 198.114L342.069 198.122ZM325.838 211.959L325.83 212.059L325.838 211.959ZM191.729 200.546L191.721 200.646L191.729 200.546ZM178.087 183.998L178.187 184.008L178.087 183.998ZM188.968 82.7185L188.869 82.7078L188.968 82.7185ZM192.361 74.8254L192.437 74.891L192.361 74.8254ZM212.449 52.7454L212.452 52.6455L212.409 52.6443L212.378 52.6747L212.449 52.7454ZM226.906 45.4155L226.916 45.316L226.906 45.4155ZM269.004 49.5886L268.995 49.6883L269.002 49.6885L269.004 49.5886ZM308.828 50.7368L308.825 50.8367L308.828 50.7368ZM317.804 54.3808L317.745 54.462L317.804 54.3808ZM308.094 51.5837L308.087 51.4839L308.094 51.5837ZM265.949 54.2454L265.946 54.3458L265.955 54.3452L265.949 54.2454ZM210.593 58.9421C210.804 56.6984 211.503 54.6188 212.574 52.7972L212.402 52.6958C211.316 54.5421 210.608 56.6499 210.393 58.9233L210.593 58.9421ZM202.968 139.722L210.593 58.9421L210.393 58.9233L202.768 139.703L202.968 139.722ZM216.5 155.965C208.264 155.243 202.191 147.953 202.968 139.722L202.768 139.703C201.981 148.045 208.136 155.432 216.482 156.164L216.5 155.965ZM258.458 159.646L216.5 155.965L216.482 156.164L258.44 159.845L258.458 159.646ZM299.796 162.599L258.456 159.646L258.442 159.845L299.782 162.798L299.796 162.599ZM315.695 149.1C314.952 157.177 307.886 163.176 299.796 162.599L299.782 162.798C307.98 163.384 315.142 157.304 315.894 149.119L315.695 149.1ZM323.233 67.0945L315.695 149.1L315.894 149.119L323.432 67.1128L323.233 67.0945ZM319.307 55.5841C322.084 58.5716 323.638 62.6854 323.233 67.0944L323.432 67.1128C323.843 62.6446 322.268 58.4752 319.454 55.4479L319.307 55.5841ZM319.322 55.5972L344.076 73.4199L344.193 73.2576L319.439 55.4349L319.322 55.5972ZM344.076 73.4199C348.282 76.4481 350.612 81.4441 350.229 86.6125L350.428 86.6273C350.816 81.3895 348.455 76.3264 344.193 73.2576L344.076 73.4199ZM350.229 86.6125L341.97 198.114L342.169 198.129L350.428 86.6273L350.229 86.6125ZM341.97 198.114C341.357 206.384 334.11 212.563 325.847 211.86L325.83 212.059C334.204 212.772 341.548 206.51 342.169 198.129L341.97 198.114ZM325.847 211.86L191.738 200.446L191.721 200.646L325.83 212.059L325.847 211.86ZM191.738 200.446C183.41 199.737 177.294 192.318 178.187 184.008L177.988 183.987C177.083 192.409 183.281 199.927 191.721 200.646L191.738 200.446ZM178.187 184.008L189.068 82.7292L188.869 82.7078L177.988 183.987L178.187 184.008ZM189.068 82.7292C189.379 79.8306 190.525 77.0894 192.437 74.891L192.286 74.7598C190.346 76.9907 189.184 79.7708 188.869 82.7078L189.068 82.7292ZM192.437 74.891C199.19 67.1238 210.809 54.527 212.52 52.8161L212.378 52.6747C210.663 54.3905 199.04 66.9913 192.286 74.7598L192.437 74.891ZM212.446 52.8454L212.485 52.8465L212.491 52.6465L212.452 52.6455L212.446 52.8454ZM212.574 52.7972C215.427 47.9442 220.923 44.9228 226.896 45.515L226.916 45.316C220.862 44.7158 215.293 47.7782 212.402 52.6958L212.574 52.7972ZM226.896 45.515L268.995 49.6881L269.014 49.489L226.916 45.316L226.896 45.515ZM269.002 49.6885L308.825 50.8367L308.831 50.6368L269.007 49.4886L269.002 49.6885ZM308.825 50.8367C312.993 50.9569 316.692 52.7708 319.307 55.5841L319.454 55.4479C316.804 52.5971 313.054 50.7586 308.831 50.6368L308.825 50.8367ZM317.745 54.462L319.322 55.5972L319.439 55.4349L317.862 54.2997L317.745 54.462ZM308.1 51.6835C311.54 51.4662 314.948 52.4481 317.745 54.462L317.862 54.2997C315.028 52.2588 311.573 51.2637 308.087 51.4839L308.1 51.6835ZM265.955 54.3452L308.1 51.6835L308.087 51.4839L265.943 54.1456L265.955 54.3452ZM212.485 52.8465L265.946 54.3454L265.952 54.1455L212.491 52.6465L212.485 52.8465Z" fill="white" mask="url(#path-22-inside-2_731_1817)"/>
<path fill-rule="evenodd" clip-rule="evenodd" d="M336.473 208.733C339.617 206.22 341.749 202.456 342.07 198.122L350.329 86.62C350.715 81.4169 348.369 76.3874 344.135 73.3389L319.381 55.5161C318.678 54.7599 317.897 54.0754 317.051 53.476L316.722 53.6702C317.091 53.8906 317.453 54.1277 317.804 54.3809L319.381 55.5161C322.177 58.5235 323.741 62.6651 323.333 67.1037L315.795 149.11C315.315 154.331 312.21 158.69 307.893 160.987L336.473 208.733Z" fill="#D9D9D9"/>
<path fill-rule="evenodd" clip-rule="evenodd" d="M336.473 208.733C339.617 206.22 341.749 202.456 342.07 198.122L350.329 86.62C350.715 81.4169 348.369 76.3874 344.135 73.3389L319.381 55.5161C318.678 54.7599 317.897 54.0754 317.051 53.476L316.722 53.6702C317.091 53.8906 317.453 54.1277 317.804 54.3809L319.381 55.5161C322.177 58.5235 323.741 62.6651 323.333 67.1037L315.795 149.11C315.315 154.331 312.21 158.69 307.893 160.987L336.473 208.733Z" fill="url(#paint27_linear_731_1817)"/>
<path fill-rule="evenodd" clip-rule="evenodd" d="M203.381 145.265L178.053 184.351C178.063 184.233 178.074 184.115 178.087 183.997L188.968 82.7184C189.282 79.8006 190.436 77.0399 192.361 74.8253C198.816 67.4018 209.715 55.5663 212.164 53.036L212.274 53.1222C211.317 54.8644 210.692 56.8269 210.493 58.9326L202.868 139.713C202.686 141.638 202.877 143.513 203.381 145.265Z" fill="#D9D9D9"/>
<path fill-rule="evenodd" clip-rule="evenodd" d="M203.381 145.265L178.053 184.351C178.063 184.233 178.074 184.115 178.087 183.997L188.968 82.7184C189.282 79.8006 190.436 77.0399 192.361 74.8253C198.816 67.4018 209.715 55.5663 212.164 53.036L212.274 53.1222C211.317 54.8644 210.692 56.8269 210.493 58.9326L202.868 139.713C202.686 141.638 202.877 143.513 203.381 145.265Z" fill="url(#paint28_linear_731_1817)"/>
<path fill-rule="evenodd" clip-rule="evenodd" d="M337.69 207.648C334.675 210.644 330.411 212.348 325.838 211.959L191.729 200.546C183.346 199.832 177.188 192.363 178.087 183.997L178.399 181.097L203.249 144.777C204.762 150.801 209.949 155.491 216.491 156.065L258.449 159.745L299.789 162.698C304.248 163.017 308.398 161.35 311.363 158.443L337.69 207.648Z" fill="#D9D9D9"/>
<path fill-rule="evenodd" clip-rule="evenodd" d="M337.69 207.648C334.675 210.644 330.411 212.348 325.838 211.959L191.729 200.546C183.346 199.832 177.188 192.363 178.087 183.997L178.399 181.097L203.249 144.777C204.762 150.801 209.949 155.491 216.491 156.065L258.449 159.745L299.789 162.698C304.248 163.017 308.398 161.35 311.363 158.443L337.69 207.648Z" fill="url(#paint29_linear_731_1817)"/>
<path d="M269.719 49.5046L269.719 49.5047L269.723 49.5048L310.413 50.6768C319.036 50.9251 325.659 58.3989 324.87 66.9887L317.164 150.843C316.419 158.947 309.329 164.967 301.211 164.387L259.003 161.372L259.002 161.372L216.158 157.613C207.895 156.888 201.801 149.574 202.581 141.315L210.375 58.7148C211.154 50.4671 218.49 44.4249 226.734 45.2423L269.719 49.5046Z" fill="url(#paint30_linear_731_1817)" stroke="white" stroke-width="0.1"/>
<path fill-rule="evenodd" clip-rule="evenodd" d="M218.5 44.5C216.763 46.2372 200.201 64.5319 192.273 73.6791C190.343 75.9061 189.185 78.6768 188.878 81.6077L178.097 184.285C177.22 192.639 183.374 200.085 191.743 200.797L325.861 212.212C334.191 212.92 341.492 206.684 342.094 198.346L350.261 85.2615C350.628 80.1819 348.392 75.2631 344.324 72.1992L319.007 53.1319C316.407 51.1731 313.239 50.1138 309.983 50.1138H272L218.5 44.5Z" fill="#4E9AFF" fill-opacity="0.3"/>
<path d="M378.401 71.086L382.997 69.473L396.831 87.1126L396.559 64.7134L401.106 63.1174L409.42 86.8058L406.372 87.8754L401.465 73.8946C401.295 73.4108 401.025 72.6062 400.654 71.4806C400.283 70.355 399.873 69.1526 399.424 67.8733L399.68 90.2241L396.503 91.3391L382.686 73.7478L382.941 74.4735C383.145 75.054 383.467 75.9371 383.907 77.1229C384.354 78.2941 384.676 79.1592 384.872 79.7182L389.779 93.6991L386.715 94.7744L378.401 71.086Z" fill="white"/>
<path d="M240.753 66.7491C243.807 66.9638 245.984 67.7605 247.358 69.2825C248.759 70.8758 249.39 72.6753 249.273 74.6521C248.211 74.5318 247.145 74.4148 246.076 74.3009C245.97 72.8348 245.442 71.6404 244.521 70.729C243.6 69.8375 242.171 69.3141 240.188 69.1265C237.758 68.8492 235.596 69.2944 233.739 70.5438C231.921 71.8149 230.721 74.0543 230.18 77.2635C229.764 79.8877 230.108 82.055 231.225 83.7359C232.355 85.3572 234.279 86.2128 236.982 86.4421C239.471 86.742 241.484 86.2702 243.035 84.9172C243.858 84.1728 244.535 83.1216 245.107 81.7454C246.18 81.9196 247.257 82.0971 248.336 82.2782C247.694 84.5822 246.447 86.2989 244.574 87.4575C242.336 88.7402 239.549 89.0577 236.193 88.6695C233.287 88.5113 230.957 87.788 229.201 86.2992C226.902 84.1758 226.079 80.8263 226.757 76.3418C227.307 72.9528 228.783 70.3553 231.191 68.6297C233.831 66.8643 237.058 66.3259 240.753 66.7491Z" fill="white"/>
<path d="M75.215 86.0568L68.9062 76.1704L67.5734 87.9027L75.215 86.0568ZM66.3038 72.9663L70.0415 72.0635L84.7905 94.3278L81.169 95.2026L76.9282 88.4912L67.2766 90.8226L66.4009 98.7699L63.0121 99.5885L66.3038 72.9663Z" fill="white"/>
</g>
<defs>
<filter id="filter0_d_731_1817" x="0.189281" y="5.51538" width="532.252" height="240.951" filterUnits="userSpaceOnUse" color-interpolation-filters="sRGB">
<feFlood flood-opacity="0" result="BackgroundImageFix"/>
<feColorMatrix in="SourceAlpha" type="matrix" values="0 0 0 0 0 0 0 0 0 0 0 0 0 0 0 0 0 0 127 0" result="hardAlpha"/>
<feOffset dy="18"/>
<feGaussianBlur stdDeviation="8.1"/>
<feComposite in2="hardAlpha" operator="out"/>
<feColorMatrix type="matrix" values="0 0 0 0 0 0 0 0 0 0 0 0 0 0 0 0 0 0 0.3 0"/>
<feBlend mode="normal" in2="BackgroundImageFix" result="effect1_dropShadow_731_1817"/>
<feBlend mode="normal" in="SourceGraphic" in2="effect1_dropShadow_731_1817" result="shape"/>
</filter>
<linearGradient id="paint0_linear_731_1817" x1="164.87" y1="195.371" x2="13.9995" y2="51.835" gradientUnits="userSpaceOnUse">
<stop stop-color="#062853"/>
<stop offset="1" stop-color="#0E4895"/>
</linearGradient>
<linearGradient id="paint1_linear_731_1817" x1="154.912" y1="174.244" x2="41.7923" y2="66.6234" gradientUnits="userSpaceOnUse">
<stop stop-color="#062853"/>
<stop offset="1" stop-color="#0E4895"/>
</linearGradient>
<linearGradient id="paint2_linear_731_1817" x1="178.122" y1="145.191" x2="41.552" y2="66.3695" gradientUnits="userSpaceOnUse">
<stop stop-color="#062853"/>
<stop offset="1" stop-color="#0E4895"/>
</linearGradient>
<linearGradient id="paint3_linear_731_1817" x1="44.7914" y1="51.0946" x2="44.7914" y2="191.217" gradientUnits="userSpaceOnUse">
<stop stop-color="#D9D9D9"/>
<stop offset="1" stop-color="#737373"/>
</linearGradient>
<linearGradient id="paint4_linear_731_1817" x1="57.8557" y1="175.603" x2="-10.9435" y2="129.738" gradientUnits="userSpaceOnUse">
<stop stop-color="#0E4895"/>
<stop offset="0.5" stop-color="#062853"/>
<stop offset="1" stop-color="#0E4895"/>
</linearGradient>
<linearGradient id="paint5_linear_731_1817" x1="50.4736" y1="51.0946" x2="50.4736" y2="189.121" gradientUnits="userSpaceOnUse">
<stop stop-color="#D9D9D9"/>
<stop offset="1" stop-color="#737373"/>
</linearGradient>
<linearGradient id="paint6_linear_731_1817" x1="61.7217" y1="181.242" x2="115.588" y2="105.607" gradientUnits="userSpaceOnUse">
<stop stop-color="#0E4895"/>
<stop offset="0.5" stop-color="#062853"/>
<stop offset="1" stop-color="#0E4895"/>
</linearGradient>
<linearGradient id="paint7_linear_731_1817" x1="32.8125" y1="58.2801" x2="32.8125" y2="186.081" gradientUnits="userSpaceOnUse">
<stop stop-color="#D9D9D9"/>
<stop offset="1" stop-color="#737373"/>
</linearGradient>
<linearGradient id="paint8_linear_731_1817" x1="33.6622" y1="60.7418" x2="73.0924" y2="-8.08334" gradientUnits="userSpaceOnUse">
<stop stop-color="#0E4895"/>
<stop offset="0.223922" stop-color="#062853"/>
<stop offset="1" stop-color="#0E4895"/>
</linearGradient>
<linearGradient id="paint9_linear_731_1817" x1="24.5084" y1="62.4771" x2="24.5084" y2="203.046" gradientUnits="userSpaceOnUse">
<stop stop-color="#D9D9D9"/>
<stop offset="1" stop-color="#737373"/>
</linearGradient>
<linearGradient id="paint10_linear_731_1817" x1="143.134" y1="22.6551" x2="234.127" y2="86.8448" gradientUnits="userSpaceOnUse">
<stop stop-color="#0E4794"/>
<stop offset="0.46124" stop-color="#062853"/>
<stop offset="0.914873" stop-color="#0E4895"/>
</linearGradient>
<linearGradient id="paint11_linear_731_1817" x1="481.87" y1="194.588" x2="331" y2="51.0514" gradientUnits="userSpaceOnUse">
<stop stop-color="#062853"/>
<stop offset="1" stop-color="#0E4895"/>
</linearGradient>
<linearGradient id="paint12_linear_731_1817" x1="472.889" y1="171.59" x2="359.77" y2="63.9687" gradientUnits="userSpaceOnUse">
<stop stop-color="#062853"/>
<stop offset="1" stop-color="#0E4895"/>
</linearGradient>
<linearGradient id="paint13_linear_731_1817" x1="501.175" y1="133.348" x2="359.695" y2="63.7252" gradientUnits="userSpaceOnUse">
<stop stop-color="#062853"/>
<stop offset="1" stop-color="#0E4895"/>
</linearGradient>
<linearGradient id="paint14_linear_731_1817" x1="361.918" y1="48.2697" x2="371.178" y2="188.085" gradientUnits="userSpaceOnUse">
<stop stop-color="#D9D9D9"/>
<stop offset="1" stop-color="#737373"/>
</linearGradient>
<linearGradient id="paint15_linear_731_1817" x1="383.182" y1="171.643" x2="311.502" y2="130.425" gradientUnits="userSpaceOnUse">
<stop stop-color="#0E4895"/>
<stop offset="0.5" stop-color="#062853"/>
<stop offset="1" stop-color="#0E4895"/>
</linearGradient>
<linearGradient id="paint16_linear_731_1817" x1="367.587" y1="47.8942" x2="376.71" y2="185.619" gradientUnits="userSpaceOnUse">
<stop stop-color="#D9D9D9"/>
<stop offset="1" stop-color="#737373"/>
</linearGradient>
<linearGradient id="paint17_linear_731_1817" x1="387.412" y1="177.013" x2="436.162" y2="97.9843" gradientUnits="userSpaceOnUse">
<stop stop-color="#0E4895"/>
<stop offset="0.5" stop-color="#062853"/>
<stop offset="1" stop-color="#0E4895"/>
</linearGradient>
<linearGradient id="paint18_linear_731_1817" x1="350.44" y1="56.2312" x2="358.886" y2="183.752" gradientUnits="userSpaceOnUse">
<stop stop-color="#D9D9D9"/>
<stop offset="1" stop-color="#737373"/>
</linearGradient>
<linearGradient id="paint19_linear_731_1817" x1="351.45" y1="58.6314" x2="386.246" y2="-12.6493" gradientUnits="userSpaceOnUse">
<stop stop-color="#0E4895"/>
<stop offset="0.223922" stop-color="#062853"/>
<stop offset="1" stop-color="#0E4895"/>
</linearGradient>
<linearGradient id="paint20_linear_731_1817" x1="342.431" y1="60.9678" x2="351.721" y2="201.229" gradientUnits="userSpaceOnUse">
<stop stop-color="#D9D9D9"/>
<stop offset="1" stop-color="#737373"/>
</linearGradient>
<linearGradient id="paint21_linear_731_1817" x1="458.165" y1="13.3929" x2="553.202" y2="71.4286" gradientUnits="userSpaceOnUse">
<stop stop-color="#0E4794"/>
<stop offset="0.46124" stop-color="#062853"/>
<stop offset="0.914873" stop-color="#0E4895"/>
</linearGradient>
<linearGradient id="paint22_linear_731_1817" x1="317.792" y1="159.961" x2="213.176" y2="45.3225" gradientUnits="userSpaceOnUse">
<stop stop-color="#062853"/>
<stop offset="1" stop-color="#0E4895"/>
</linearGradient>
<linearGradient id="paint23_linear_731_1817" x1="350.449" y1="155.216" x2="308.185" y2="149.55" gradientUnits="userSpaceOnUse">
<stop stop-color="#062853"/>
<stop offset="1" stop-color="#0E4895"/>
</linearGradient>
<linearGradient id="paint24_linear_731_1817" x1="182.949" y1="214.216" x2="124.588" y2="169.569" gradientUnits="userSpaceOnUse">
<stop stop-color="#062853"/>
<stop offset="1" stop-color="#0E4895"/>
</linearGradient>
<linearGradient id="paint25_linear_731_1817" x1="320.449" y1="199.862" x2="265.181" y2="120.675" gradientUnits="userSpaceOnUse">
<stop stop-color="#062853"/>
<stop offset="1" stop-color="#0E4895"/>
</linearGradient>
<linearGradient id="paint26_linear_731_1817" x1="317.792" y1="159.961" x2="213.176" y2="45.3225" gradientUnits="userSpaceOnUse">
<stop stop-color="#062853"/>
<stop offset="1" stop-color="#0E4895"/>
</linearGradient>
<linearGradient id="paint27_linear_731_1817" x1="350.449" y1="155.216" x2="308.185" y2="149.55" gradientUnits="userSpaceOnUse">
<stop stop-color="#062853"/>
<stop offset="1" stop-color="#0E4895"/>
</linearGradient>
<linearGradient id="paint28_linear_731_1817" x1="182.949" y1="214.216" x2="124.588" y2="169.569" gradientUnits="userSpaceOnUse">
<stop stop-color="#062853"/>
<stop offset="1" stop-color="#0E4895"/>
</linearGradient>
<linearGradient id="paint29_linear_731_1817" x1="320.449" y1="199.862" x2="265.181" y2="120.675" gradientUnits="userSpaceOnUse">
<stop stop-color="#062853"/>
<stop offset="1" stop-color="#0E4895"/>
</linearGradient>
<linearGradient id="paint30_linear_731_1817" x1="319.264" y1="161.638" x2="212.926" y2="45.2146" gradientUnits="userSpaceOnUse">
<stop stop-color="#062853"/>
<stop offset="1" stop-color="#0E4895"/>
</linearGradient>
</defs>
</svg>
