<svg width="533" height="248" viewBox="0 0 533 248" fill="none" xmlns="http://www.w3.org/2000/svg">
<g filter="url(#filter0_d_1463_831)">
<path fill-rule="evenodd" clip-rule="evenodd" d="M28.5805 45.148C20.5279 47.0934 15.5771 55.1984 17.5225 63.251L45.9062 180.74C47.8516 188.792 55.9566 193.743 64.0092 191.798L181.499 163.414C189.551 161.468 194.502 153.363 192.557 145.311L164.173 27.822C162.228 19.7694 154.123 14.8186 146.07 16.764L28.5805 45.148ZM55.5805 61.1479C47.5279 63.0933 42.577 71.1983 44.5225 79.2509L64.5726 162.244C66.518 170.297 74.623 175.248 82.6757 173.303L164.561 153.52C172.613 151.575 177.564 143.47 175.619 135.417L155.569 52.4236C153.623 44.371 145.518 39.4201 137.466 41.3655L55.5805 61.1479Z" fill="url(#paint0_linear_1463_831)"/>
<path fill-rule="evenodd" clip-rule="evenodd" d="M60.1152 192.216L72.6823 171.271C68.6273 169.426 65.4319 165.801 64.3047 161.135L44.5225 79.2509C43.5863 75.3757 44.2472 71.4884 46.0823 68.2812L19.191 52.0942C17.2736 55.3366 16.568 59.3001 17.5225 63.2509L45.9062 180.74C47.5362 187.487 53.4906 192.056 60.1152 192.216Z" fill="url(#paint1_linear_1463_831)"/>
<path fill-rule="evenodd" clip-rule="evenodd" d="M60.1152 192.216L72.6823 171.271C68.6273 169.426 65.4319 165.801 64.3047 161.135L44.5225 79.2509C43.5863 75.3757 44.2472 71.4884 46.0823 68.2812L19.191 52.0942C17.2736 55.3366 16.568 59.3001 17.5225 63.2509L45.9062 180.74C47.5362 187.487 53.4906 192.056 60.1152 192.216Z" fill="url(#paint2_linear_1463_831)"/>
<path fill-rule="evenodd" clip-rule="evenodd" d="M190.016 157.78L175.323 141.48C174.006 146.712 169.902 151.056 164.293 152.411L82.4077 172.193C78.0093 173.256 73.5952 172.261 70.1778 169.827L58.8866 192.135C60.5558 192.315 62.2837 192.214 64.0092 191.797L181.499 163.414C185.049 162.556 187.997 160.5 190.016 157.78Z" fill="url(#paint3_linear_1463_831)"/>
<path fill-rule="evenodd" clip-rule="evenodd" d="M190.016 157.78L175.323 141.48C174.006 146.712 169.902 151.056 164.293 152.411L82.4077 172.193C78.0093 173.256 73.5952 172.261 70.1778 169.827L58.8866 192.135C60.5558 192.315 62.2837 192.214 64.0092 191.797L181.499 163.414C185.049 162.556 187.997 160.5 190.016 157.78Z" fill="url(#paint4_linear_1463_831)"/>
<path fill-rule="evenodd" clip-rule="evenodd" d="M155.595 17.5965C152.699 16.3296 149.38 15.9641 146.07 16.7637L28.5807 45.1477C24.4789 46.1386 21.182 48.7277 19.1912 52.0939L45.7152 68.9628C47.6309 65.1763 51.1326 62.2223 55.5807 61.1477L137.466 41.3653C139.49 40.8763 141.517 40.8231 143.449 41.1452L155.595 17.5965Z" fill="url(#paint5_linear_1463_831)"/>
<path fill-rule="evenodd" clip-rule="evenodd" d="M155.595 17.5965C152.699 16.3296 149.38 15.9641 146.07 16.7637L28.5807 45.1477C24.4789 46.1386 21.182 48.7277 19.1912 52.0939L45.7152 68.9628C47.6309 65.1763 51.1326 62.2223 55.5807 61.1477L137.466 41.3653C139.49 40.8763 141.517 40.8231 143.449 41.1452L155.595 17.5965Z" fill="url(#paint6_linear_1463_831)"/>
<path fill-rule="evenodd" clip-rule="evenodd" d="M189.522 158.41C192.436 154.892 193.712 150.092 192.557 145.31L164.173 27.8217C162.901 22.5587 158.999 18.6206 154.199 17.0669L143.446 41.1447C149.202 42.1033 154.112 46.3938 155.568 52.4233L175.351 134.308C176.207 137.852 175.727 141.407 174.235 144.442L189.522 158.41Z" fill="url(#paint7_linear_1463_831)"/>
<path fill-rule="evenodd" clip-rule="evenodd" d="M189.522 158.41C192.436 154.892 193.712 150.092 192.557 145.31L164.173 27.8217C162.901 22.5587 158.999 18.6206 154.199 17.0669L143.446 41.1447C149.202 42.1033 154.112 46.3938 155.568 52.4233L175.351 134.308C176.207 137.852 175.727 141.407 174.235 144.442L189.522 158.41Z" fill="url(#paint8_linear_1463_831)"/>
<path d="M55.8124 60.7864L137.165 41.1326C145.166 39.1996 153.225 44.0982 155.193 52.0911L175.437 134.329C177.421 142.392 172.455 150.527 164.376 152.447L82.1971 171.976C74.1578 173.887 66.0934 168.913 64.1918 160.872L44.7744 78.7587C42.8808 70.7511 47.8141 62.7187 55.8124 60.7864Z" fill="url(#paint9_linear_1463_831)" stroke="white" stroke-width="0.1"/>
<rect x="14" y="48.6704" width="150.87" height="150.869" rx="15" transform="rotate(-13.5817 14 48.6704)" fill="#4E9AFF" fill-opacity="0.3"/>
<rect x="359.083" y="62.1584" width="114.088" height="114.021" rx="14.95" transform="rotate(-17.3711 359.083 62.1584)" fill="url(#paint10_linear_1463_831)" stroke="white" stroke-width="0.1"/>
<path fill-rule="evenodd" clip-rule="evenodd" d="M345.283 43.4161C337.377 45.8894 332.972 54.3039 335.446 62.2103L371.532 177.566C374.006 185.473 382.42 189.877 390.327 187.404L505.683 151.317C513.59 148.843 517.994 140.429 515.521 132.523L479.434 17.1667C476.961 9.26026 468.547 4.85588 460.64 7.32923L345.283 43.4161ZM373.282 57.5966C365.375 60.07 360.971 68.4845 363.444 76.3909L388.595 156.789C391.068 164.695 399.483 169.1 407.389 166.626L487.788 141.475C495.694 139.002 500.099 130.587 497.625 122.681L472.475 42.2832C470.001 34.3767 461.587 29.9724 453.68 32.4457L373.282 57.5966Z" fill="url(#paint11_linear_1463_831)"/>
<path fill-rule="evenodd" clip-rule="evenodd" d="M386.469 188.079L397.624 166.349C393.456 164.776 390.028 161.37 388.595 156.789L363.444 76.3909C362.254 72.586 362.656 68.6635 364.276 65.3421L336.373 50.9677C334.674 54.3298 334.232 58.3312 335.446 62.2103L371.532 177.566C373.605 184.191 379.848 188.357 386.469 188.079Z" fill="url(#paint12_linear_1463_831)"/>
<path fill-rule="evenodd" clip-rule="evenodd" d="M386.469 188.079L397.624 166.349C393.456 164.776 390.028 161.37 388.595 156.789L363.444 76.3909C362.254 72.586 362.656 68.6635 364.276 65.3421L336.373 50.9677C334.674 54.3298 334.232 58.3312 335.446 62.2103L371.532 177.566C373.605 184.191 379.848 188.357 386.469 188.079Z" fill="url(#paint13_linear_1463_831)"/>
<path fill-rule="evenodd" clip-rule="evenodd" d="M513.81 145.133L498.071 129.839C497.103 135.147 493.295 139.752 487.788 141.475L407.389 166.626C403.071 167.977 398.6 167.276 395.03 165.073L385.237 188.079C386.915 188.148 388.632 187.933 390.327 187.403L505.683 151.317C509.17 150.226 511.975 147.98 513.81 145.133Z" fill="url(#paint14_linear_1463_831)"/>
<path fill-rule="evenodd" clip-rule="evenodd" d="M513.81 145.133L498.071 129.839C497.103 135.147 493.295 139.752 487.788 141.475L407.389 166.626C403.071 167.977 398.6 167.276 395.03 165.073L385.237 188.079C386.915 188.148 388.632 187.933 390.327 187.403L505.683 151.317C509.17 150.226 511.975 147.98 513.81 145.133Z" fill="url(#paint15_linear_1463_831)"/>
<path fill-rule="evenodd" clip-rule="evenodd" d="M470.199 7.53055C467.225 6.45774 463.89 6.31244 460.64 7.32903L345.283 43.4159C341.256 44.6757 338.137 47.477 336.374 50.9674L363.954 66.0464C365.616 62.1416 368.914 58.9627 373.282 57.5964L453.68 32.4455C455.668 31.8238 457.687 31.6367 459.636 31.8304L470.199 7.53055Z" fill="url(#paint16_linear_1463_831)"/>
<path fill-rule="evenodd" clip-rule="evenodd" d="M470.199 7.53055C467.225 6.45774 463.89 6.31244 460.64 7.32903L345.283 43.4159C341.256 44.6757 338.137 47.477 336.374 50.9674L363.954 66.0464C365.616 62.1416 368.914 58.9627 373.282 57.5964L453.68 32.4455C455.668 31.8238 457.687 31.6367 459.636 31.8304L470.199 7.53055Z" fill="url(#paint17_linear_1463_831)"/>
<path fill-rule="evenodd" clip-rule="evenodd" d="M513.359 145.793C516.033 142.091 516.989 137.217 515.521 132.522L479.434 17.1664C477.818 11.9989 473.663 8.32738 468.771 7.09426L459.633 31.83C465.44 32.4062 470.622 36.3628 472.474 42.2829L497.625 122.681C498.714 126.161 498.47 129.74 497.181 132.867L513.359 145.793Z" fill="url(#paint18_linear_1463_831)"/>
<path fill-rule="evenodd" clip-rule="evenodd" d="M513.359 145.793C516.033 142.091 516.989 137.217 515.521 132.522L479.434 17.1664C477.818 11.9989 473.663 8.32738 468.771 7.09426L459.633 31.83C465.44 32.4062 470.622 36.3628 472.474 42.2829L497.625 122.681C498.714 126.161 498.47 129.74 497.181 132.867L513.359 145.793Z" fill="url(#paint19_linear_1463_831)"/>
<rect x="330.967" y="47.8944" width="150.87" height="150.869" rx="15" transform="rotate(-17.3711 330.967 47.8944)" fill="#4E9AFF" fill-opacity="0.3"/>
<path fill-rule="evenodd" clip-rule="evenodd" d="M316.821 54.6699C317.19 54.8903 317.552 55.1273 317.903 55.3804L344.234 74.3384C348.468 77.3869 350.814 82.4164 350.428 87.6195L342.169 199.121C341.848 203.456 339.716 207.22 336.573 209.732L300.049 148.715L302.762 62.9673L316.821 54.6699Z" fill="#D9D9D9"/>
<path fill-rule="evenodd" clip-rule="evenodd" d="M316.821 54.6699C317.19 54.8903 317.552 55.1273 317.903 55.3804L344.234 74.3384C348.468 77.3869 350.814 82.4164 350.428 87.6195L342.169 199.121C341.848 203.456 339.716 207.22 336.573 209.732L300.049 148.715L302.762 62.9673L316.821 54.6699Z" fill="url(#paint20_linear_1463_831)"/>
<path fill-rule="evenodd" clip-rule="evenodd" d="M211.924 53.77L215.048 56.2152L208.048 139.215L178.153 185.35C178.163 185.233 178.174 185.115 178.187 184.997L189.045 83.9357C189.373 80.8823 190.628 78.0048 192.647 75.6908C199.562 67.7643 208.594 57.4549 211.924 53.77Z" fill="#D9D9D9"/>
<path fill-rule="evenodd" clip-rule="evenodd" d="M211.924 53.77L215.048 56.2152L208.048 139.215L178.153 185.35C178.163 185.233 178.174 185.115 178.187 184.997L189.045 83.9357C189.373 80.8823 190.628 78.0048 192.647 75.6908C199.562 67.7643 208.594 57.4549 211.924 53.77Z" fill="url(#paint21_linear_1463_831)"/>
<path fill-rule="evenodd" clip-rule="evenodd" d="M211.924 53.77L215.048 56.2152L208.048 139.215L178.153 185.35C178.163 185.233 178.174 185.115 178.187 184.997L189.045 83.9357C189.373 80.8823 190.628 78.0048 192.647 75.6908C199.562 67.7643 208.594 57.4549 211.924 53.77Z" fill="#4E9AFF" fill-opacity="0.3"/>
<path fill-rule="evenodd" clip-rule="evenodd" d="M336.573 209.733C339.717 207.22 341.849 203.456 342.17 199.121L350.429 87.6196C350.814 82.4166 348.469 77.387 344.235 74.3385L319.481 56.5157C318.778 55.7595 317.997 55.075 317.15 54.4756L316.821 54.6698C317.191 54.8903 317.552 55.1273 317.904 55.3805L319.481 56.5157C322.276 59.5231 323.841 63.6647 323.433 68.1033L315.895 150.109C315.415 155.33 312.31 159.689 307.992 161.986L336.573 209.733Z" fill="#D9D9D9"/>
<path fill-rule="evenodd" clip-rule="evenodd" d="M336.573 209.733C339.717 207.22 341.849 203.456 342.17 199.121L350.429 87.6196C350.814 82.4166 348.469 77.387 344.235 74.3385L319.481 56.5157C318.778 55.7595 317.997 55.075 317.15 54.4756L316.821 54.6698C317.191 54.8903 317.552 55.1273 317.904 55.3805L319.481 56.5157C322.276 59.5231 323.841 63.6647 323.433 68.1033L315.895 150.109C315.415 155.33 312.31 159.689 307.992 161.986L336.573 209.733Z" fill="url(#paint22_linear_1463_831)"/>
<path fill-rule="evenodd" clip-rule="evenodd" d="M336.573 209.733C339.717 207.22 341.849 203.456 342.17 199.121L350.429 87.6196C350.814 82.4166 348.469 77.387 344.235 74.3385L319.481 56.5157C318.778 55.7595 317.997 55.075 317.15 54.4756L316.821 54.6698C317.191 54.8903 317.552 55.1273 317.904 55.3805L319.481 56.5157C322.276 59.5231 323.841 63.6647 323.433 68.1033L315.895 150.109C315.415 155.33 312.31 159.689 307.992 161.986L336.573 209.733Z" fill="#4E9AFF" fill-opacity="0.3"/>
<path fill-rule="evenodd" clip-rule="evenodd" d="M178.549 182.246L178.227 185.26C177.334 193.623 183.49 201.086 191.87 201.799L325.477 213.17C330.196 213.572 334.597 211.815 337.712 208.726L303.048 143.939L216.048 127.439L178.549 182.246Z" fill="#D9D9D9"/>
<path fill-rule="evenodd" clip-rule="evenodd" d="M178.549 182.246L178.227 185.26C177.334 193.623 183.49 201.086 191.87 201.799L325.477 213.17C330.196 213.572 334.597 211.815 337.712 208.726L303.048 143.939L216.048 127.439L178.549 182.246Z" fill="url(#paint23_linear_1463_831)"/>
<path fill-rule="evenodd" clip-rule="evenodd" d="M178.549 182.246L178.227 185.26C177.334 193.623 183.49 201.086 191.87 201.799L325.477 213.17C330.196 213.572 334.597 211.815 337.712 208.726L303.048 143.939L216.048 127.439L178.549 182.246Z" fill="#4E9AFF" fill-opacity="0.3"/>
<path d="M269.818 50.5042L269.818 50.5043L269.822 50.5044L310.302 51.9756C318.86 52.2866 325.409 59.7091 324.65 68.2393L317.223 151.795C316.501 159.919 309.402 165.965 301.267 165.384L259.102 162.371L259.101 162.371L216.223 158.609C207.973 157.885 201.883 150.593 202.643 142.346L210.26 59.5931C211.023 51.3123 218.396 45.245 226.668 46.0911L269.818 50.5042Z" fill="url(#paint24_linear_1463_831)" stroke="white" stroke-width="0.1"/>
<path d="M210.211 59.5885C210.975 51.28 218.373 45.1924 226.674 46.0413L269.824 50.4545L310.304 51.9256C318.891 52.2376 325.461 59.685 324.7 68.2437L317.273 151.8C316.549 159.95 309.425 166.016 301.263 165.433L259.098 162.421L216.219 158.659C207.941 157.933 201.831 150.616 202.593 142.342L210.211 59.5885Z" fill="#4E9AFF" fill-opacity="0.3"/>
<path d="M378.501 72.0856L383.097 70.4726L396.931 88.1122L396.658 65.713L401.205 64.117L409.519 87.8054L406.472 88.8751L401.565 74.8942C401.395 74.4105 401.125 73.6058 400.754 72.4802C400.383 71.3546 399.973 70.1522 399.524 68.8729L399.779 91.2238L396.603 92.3387L382.786 74.7475L383.04 75.4731C383.244 76.0536 383.566 76.9368 384.006 78.1225C384.454 79.2937 384.775 80.1588 384.972 80.7179L389.878 94.6987L386.815 95.774L378.501 72.0856Z" fill="white"/>
<path d="M240.853 67.7487C243.906 67.9634 246.083 68.7601 247.457 70.2821C248.859 71.8754 249.49 73.675 249.373 75.6517C248.31 75.5315 247.244 75.4144 246.175 75.3005C246.07 73.8344 245.542 72.64 244.621 71.7286C243.699 70.8371 242.271 70.3137 240.287 70.1261C237.857 69.8488 235.695 70.294 233.839 71.5434C232.021 72.8146 230.821 75.0539 230.279 78.2631C229.863 80.8874 230.208 83.0547 231.325 84.7355C232.455 86.3568 234.379 87.2124 237.081 87.4417C239.571 87.7417 241.583 87.2699 243.134 85.9169C243.958 85.1724 244.635 84.1212 245.206 82.7451C246.28 82.9192 247.356 83.0968 248.436 83.2779C247.794 85.5818 246.547 87.2985 244.674 88.4572C242.435 89.7398 239.649 90.0573 236.293 89.6691C233.387 89.511 231.056 88.7876 229.3 87.2988C227.001 85.1755 226.178 81.8259 226.856 77.3415C227.406 73.9524 228.882 71.3549 231.29 69.6293C233.931 67.8639 237.158 67.3255 240.853 67.7487Z" fill="white"/>
<path d="M75.3145 87.0565L69.0058 77.1701L67.673 88.9023L75.3145 87.0565ZM66.4034 73.966L70.1411 73.0631L84.89 95.3274L81.2686 96.2022L77.0278 89.4908L67.3762 91.8222L66.5005 99.7695L63.1116 100.588L66.4034 73.966Z" fill="white"/>
</g>
<defs>
<filter id="filter0_d_1463_831" x="0.899548" y="6.64087" width="531.51" height="240.786" filterUnits="userSpaceOnUse" color-interpolation-filters="sRGB">
<feFlood flood-opacity="0" result="BackgroundImageFix"/>
<feColorMatrix in="SourceAlpha" type="matrix" values="0 0 0 0 0 0 0 0 0 0 0 0 0 0 0 0 0 0 127 0" result="hardAlpha"/>
<feOffset dy="18"/>
<feGaussianBlur stdDeviation="8.1"/>
<feComposite in2="hardAlpha" operator="out"/>
<feColorMatrix type="matrix" values="0 0 0 0 0 0 0 0 0 0 0 0 0 0 0 0 0 0 0.3 0"/>
<feBlend mode="normal" in2="BackgroundImageFix" result="effect1_dropShadow_1463_831"/>
<feBlend mode="normal" in="SourceGraphic" in2="effect1_dropShadow_1463_831" result="shape"/>
</filter>
<linearGradient id="paint0_linear_1463_831" x1="178.221" y1="146.19" x2="41.6516" y2="67.3691" gradientUnits="userSpaceOnUse">
<stop stop-color="#062853"/>
<stop offset="1" stop-color="#0E4895"/>
</linearGradient>
<linearGradient id="paint1_linear_1463_831" x1="44.8909" y1="52.0942" x2="44.8909" y2="192.216" gradientUnits="userSpaceOnUse">
<stop stop-color="#D9D9D9"/>
<stop offset="1" stop-color="#737373"/>
</linearGradient>
<linearGradient id="paint2_linear_1463_831" x1="57.9553" y1="176.603" x2="-10.844" y2="130.738" gradientUnits="userSpaceOnUse">
<stop stop-color="#0E4895"/>
<stop offset="0.5" stop-color="#062853"/>
<stop offset="1" stop-color="#0E4895"/>
</linearGradient>
<linearGradient id="paint3_linear_1463_831" x1="50.5732" y1="52.0942" x2="50.5732" y2="190.121" gradientUnits="userSpaceOnUse">
<stop stop-color="#D9D9D9"/>
<stop offset="1" stop-color="#737373"/>
</linearGradient>
<linearGradient id="paint4_linear_1463_831" x1="61.8213" y1="182.241" x2="115.687" y2="106.607" gradientUnits="userSpaceOnUse">
<stop stop-color="#0E4895"/>
<stop offset="0.5" stop-color="#062853"/>
<stop offset="1" stop-color="#0E4895"/>
</linearGradient>
<linearGradient id="paint5_linear_1463_831" x1="32.912" y1="59.2797" x2="32.912" y2="187.08" gradientUnits="userSpaceOnUse">
<stop stop-color="#D9D9D9"/>
<stop offset="1" stop-color="#737373"/>
</linearGradient>
<linearGradient id="paint6_linear_1463_831" x1="33.7618" y1="61.7415" x2="73.1919" y2="-7.08371" gradientUnits="userSpaceOnUse">
<stop stop-color="#0E4895"/>
<stop offset="0.223922" stop-color="#062853"/>
<stop offset="1" stop-color="#0E4895"/>
</linearGradient>
<linearGradient id="paint7_linear_1463_831" x1="24.608" y1="63.4767" x2="24.608" y2="204.046" gradientUnits="userSpaceOnUse">
<stop stop-color="#D9D9D9"/>
<stop offset="1" stop-color="#737373"/>
</linearGradient>
<linearGradient id="paint8_linear_1463_831" x1="143.233" y1="23.6547" x2="234.226" y2="87.8445" gradientUnits="userSpaceOnUse">
<stop stop-color="#0E4794"/>
<stop offset="0.46124" stop-color="#062853"/>
<stop offset="0.914873" stop-color="#0E4895"/>
</linearGradient>
<linearGradient id="paint9_linear_1463_831" x1="177.761" y1="145.57" x2="41.7257" y2="67.3057" gradientUnits="userSpaceOnUse">
<stop stop-color="#062853"/>
<stop offset="1" stop-color="#0E4895"/>
</linearGradient>
<linearGradient id="paint10_linear_1463_831" x1="473.209" y1="173.474" x2="359.083" y2="64.8333" gradientUnits="userSpaceOnUse">
<stop stop-color="#062853"/>
<stop offset="1" stop-color="#0E4895"/>
</linearGradient>
<linearGradient id="paint11_linear_1463_831" x1="501.275" y1="134.348" x2="359.794" y2="64.7247" gradientUnits="userSpaceOnUse">
<stop stop-color="#062853"/>
<stop offset="1" stop-color="#0E4895"/>
</linearGradient>
<linearGradient id="paint12_linear_1463_831" x1="362.017" y1="49.2692" x2="371.278" y2="189.085" gradientUnits="userSpaceOnUse">
<stop stop-color="#D9D9D9"/>
<stop offset="1" stop-color="#737373"/>
</linearGradient>
<linearGradient id="paint13_linear_1463_831" x1="383.282" y1="172.642" x2="311.602" y2="131.424" gradientUnits="userSpaceOnUse">
<stop stop-color="#0E4895"/>
<stop offset="0.5" stop-color="#062853"/>
<stop offset="1" stop-color="#0E4895"/>
</linearGradient>
<linearGradient id="paint14_linear_1463_831" x1="367.687" y1="48.8937" x2="376.809" y2="186.619" gradientUnits="userSpaceOnUse">
<stop stop-color="#D9D9D9"/>
<stop offset="1" stop-color="#737373"/>
</linearGradient>
<linearGradient id="paint15_linear_1463_831" x1="387.512" y1="178.013" x2="436.261" y2="98.9838" gradientUnits="userSpaceOnUse">
<stop stop-color="#0E4895"/>
<stop offset="0.5" stop-color="#062853"/>
<stop offset="1" stop-color="#0E4895"/>
</linearGradient>
<linearGradient id="paint16_linear_1463_831" x1="350.539" y1="57.2307" x2="358.986" y2="184.752" gradientUnits="userSpaceOnUse">
<stop stop-color="#D9D9D9"/>
<stop offset="1" stop-color="#737373"/>
</linearGradient>
<linearGradient id="paint17_linear_1463_831" x1="351.55" y1="59.6309" x2="386.345" y2="-11.6497" gradientUnits="userSpaceOnUse">
<stop stop-color="#0E4895"/>
<stop offset="0.223922" stop-color="#062853"/>
<stop offset="1" stop-color="#0E4895"/>
</linearGradient>
<linearGradient id="paint18_linear_1463_831" x1="342.531" y1="61.9673" x2="351.821" y2="202.229" gradientUnits="userSpaceOnUse">
<stop stop-color="#D9D9D9"/>
<stop offset="1" stop-color="#737373"/>
</linearGradient>
<linearGradient id="paint19_linear_1463_831" x1="458.265" y1="14.3924" x2="553.301" y2="72.4281" gradientUnits="userSpaceOnUse">
<stop stop-color="#0E4794"/>
<stop offset="0.46124" stop-color="#062853"/>
<stop offset="0.914873" stop-color="#0E4895"/>
</linearGradient>
<linearGradient id="paint20_linear_1463_831" x1="350.562" y1="156.282" x2="300.758" y2="148.347" gradientUnits="userSpaceOnUse">
<stop stop-color="#062853"/>
<stop offset="1" stop-color="#0E4895"/>
</linearGradient>
<linearGradient id="paint21_linear_1463_831" x1="183.431" y1="215.276" x2="123.971" y2="166.331" gradientUnits="userSpaceOnUse">
<stop stop-color="#062853"/>
<stop offset="1" stop-color="#0E4895"/>
</linearGradient>
<linearGradient id="paint22_linear_1463_831" x1="350.549" y1="156.215" x2="308.285" y2="150.55" gradientUnits="userSpaceOnUse">
<stop stop-color="#062853"/>
<stop offset="1" stop-color="#0E4895"/>
</linearGradient>
<linearGradient id="paint23_linear_1463_831" x1="320.484" y1="197.721" x2="245.854" y2="113.978" gradientUnits="userSpaceOnUse">
<stop stop-color="#041D3D"/>
<stop offset="1" stop-color="#174E99"/>
</linearGradient>
<linearGradient id="paint24_linear_1463_831" x1="319.363" y1="162.637" x2="213.026" y2="46.2145" gradientUnits="userSpaceOnUse">
<stop stop-color="#062853"/>
<stop offset="1" stop-color="#0E4895"/>
</linearGradient>
</defs>
</svg>
