<svg width="1126" height="648" viewBox="0 0 1126 648" fill="none" xmlns="http://www.w3.org/2000/svg">
<g filter="url(#filter0_d_3338_1151)">
<path d="M158.641 399.225L27.6682 289.159C23.2385 285.436 20.9952 279.584 21.9463 273.876C22.5232 270.414 23.1344 267.304 23.5236 267.177C123.148 234.858 332.863 177.939 346.504 172.47C360.145 167 507.451 269.482 508.95 275.982C507.134 285.556 508.488 292.511 501.547 298.78C499.328 300.784 496.567 301.936 493.728 302.875C410.825 330.296 257.556 384.972 210.296 399.212C176.652 409.35 169.37 407.729 158.641 399.225Z" fill="#D9D9D9"/>
</g>
<path d="M161.562 384.257L23.9744 269.566C20.7654 266.891 28.9876 263.113 33.4998 261.559C133.124 229.24 335.783 163.234 349.424 157.764C363.065 152.295 375.882 159.427 380.585 163.677C415.157 192.447 487.783 252.87 501.711 264.398C515.64 275.925 506.006 284.41 499.449 287.212C417.636 314.13 253.952 371.961 213.217 384.244C172.48 396.528 169.453 389.97 161.562 384.257Z" fill="white"/>
<g filter="url(#filter1_i_3338_1151)">
<ellipse cx="86.4013" cy="279.028" rx="15.478" ry="9.13454" transform="rotate(10.7438 86.4013 279.028)" fill="#A9FF9D"/>
</g>
<path d="M360.62 286.835C360.047 286.992 359.475 287.15 358.902 287.307C361.255 293.711 363.706 300.162 366.253 306.66C364.301 307.193 362.347 307.724 360.391 308.255C357.447 300.659 354.682 293.143 352.098 285.706C355.297 284.831 358.492 283.955 361.684 283.077C372.351 288.359 383.032 293.677 393.727 299.03C391.794 299.572 389.861 300.112 387.928 300.651C378.802 296.022 369.7 291.416 360.62 286.835ZM358.919 298.953C365.503 297.193 372.054 295.419 378.572 293.632C379.52 294.536 380.465 295.439 381.409 296.343C374.901 298.135 368.369 299.916 361.813 301.685C360.843 300.773 359.878 299.862 358.919 298.953Z" fill="#B7B7B7"/>
<path d="M385.723 287.227C384.205 285.786 383.242 284.356 382.834 282.933C382.438 281.491 382.558 280.135 383.159 278.861C383.767 277.565 384.839 276.406 386.355 275.373C387.899 274.339 389.846 273.495 392.215 272.842C395.515 271.927 399.018 271.528 402.684 271.644C406.384 271.754 409.844 272.421 413.077 273.645C411.825 274.382 410.575 275.118 409.327 275.852C407.72 275.284 406.069 274.917 404.374 274.763C402.679 274.61 401.065 274.607 399.542 274.751C398.014 274.895 396.628 275.143 395.373 275.494C393.192 276.102 391.567 276.929 390.471 277.986C389.363 279.025 388.874 280.208 389.02 281.525C389.172 282.824 390.004 284.187 391.51 285.61C393 287.02 394.776 288.121 396.844 288.916C398.917 289.692 401.13 290.131 403.458 290.229C405.793 290.336 408.039 290.07 410.221 289.444C411.498 289.074 412.689 288.58 413.784 287.973C414.894 287.342 415.749 286.559 416.354 285.642C416.975 284.697 417.182 283.627 416.98 282.431C418.829 282.258 420.678 282.083 422.527 281.904C423.095 284.292 422.488 286.381 420.718 288.153C418.931 289.92 416.319 291.315 412.923 292.315C410.555 292.996 408.105 293.387 405.546 293.484C403.014 293.58 400.515 293.397 398.048 292.945C395.603 292.483 393.309 291.786 391.172 290.831C389.046 289.857 387.229 288.654 385.723 287.227Z" fill="#B7B7B7"/>
<path d="M440.039 283.854C438.099 284.449 436.163 285.042 434.23 285.633C427.543 279.406 420.799 273.212 413.999 267.049C416.173 266.449 418.347 265.848 420.521 265.245C429.639 268.911 438.727 272.531 447.783 276.106C446.421 270.364 445.058 264.614 443.695 258.857C445.854 258.267 448.013 257.678 450.172 257.091C456.858 263.145 463.544 269.012 470.231 274.692C468.306 275.265 466.383 275.839 464.461 276.415C459.948 272.508 455.431 268.558 450.91 264.564C452.089 269.498 453.269 274.46 454.448 279.452C452.983 279.901 451.517 280.348 450.052 280.794C442.196 277.694 434.326 274.561 426.443 271.397C430.996 275.538 435.528 279.691 440.039 283.854Z" fill="#B7B7B7"/>
<g filter="url(#filter2_d_3338_1151)">
<path d="M738.977 393.472L640.357 310.164C636.659 307.04 635.046 294.921 639.666 293.476C719.12 268.622 797.631 254.549 799.928 243.098C799.928 243.098 898.297 328.718 902 332.134C902.478 336.247 902.035 340.565 901.404 344.248C900.574 349.096 896.938 353.027 892.302 354.669C835.635 374.746 805.006 384.232 780.036 393.892C753.987 403.968 743.349 396.975 738.977 393.472Z" fill="#D9D9D9"/>
<path d="M741.301 381.512L638.538 295.983C636.009 293.831 642.2 291.998 645.799 290.802C725.519 260.871 765.636 247.953 776.525 243.725C787.413 239.497 797.274 239.221 800.978 242.635C828.227 265.775 885.469 314.374 896.448 323.646C907.426 332.917 899.699 339.575 894.464 341.744C833.621 362.998 808.413 371.874 782.364 381.939C756.314 392.005 745.197 385.338 741.301 381.512Z" fill="white"/>
</g>
<path d="M736.962 324.242C733.329 320.966 730.993 317.682 729.956 314.381C728.943 311.036 729.141 307.861 730.471 304.85C731.812 301.783 734.249 299.012 737.728 296.507C741.273 293.998 745.773 291.91 751.267 290.241C758.925 287.907 767.085 286.763 775.657 286.814C784.308 286.851 792.433 288.202 800.059 290.867C797.179 292.665 794.303 294.459 791.431 296.25C787.641 295.019 783.761 294.259 779.792 294.002C775.823 293.745 772.051 293.836 768.502 294.263C764.94 294.692 761.717 295.353 758.807 296.249C753.746 297.8 749.999 299.83 747.501 302.366C744.975 304.859 743.903 307.653 744.324 310.722C744.756 313.748 746.782 316.883 750.387 320.117C753.952 323.321 758.167 325.789 763.047 327.521C767.938 329.209 773.134 330.102 778.581 330.192C784.042 330.303 789.275 329.547 794.334 327.953C797.296 327.011 800.05 325.786 802.57 324.301C805.128 322.761 807.078 320.88 808.436 318.702C809.831 316.457 810.25 313.944 809.706 311.162C814.016 310.647 818.326 310.126 822.635 309.598C824.106 315.144 822.813 320.062 818.783 324.306C814.713 328.542 808.695 331.959 800.819 334.499C795.327 336.232 789.627 337.292 783.653 337.672C777.745 338.048 771.894 337.771 766.101 336.863C760.361 335.93 754.96 334.44 749.909 332.336C744.883 330.188 740.567 327.486 736.962 324.242Z" fill="#D4D4D4"/>
<g filter="url(#filter3_d_3338_1151)">
<path d="M942.708 317.315L844.148 233.935C840.453 230.808 838.849 218.688 843.47 217.246C922.942 192.451 1001.46 178.435 1003.77 166.985C1003.77 166.985 1102.07 252.678 1105.78 256.097C1106.25 260.21 1105.8 264.528 1105.17 268.21C1104.34 273.057 1100.7 276.986 1096.06 278.625C1039.38 298.66 1008.74 308.124 983.766 317.765C957.71 327.823 947.077 320.821 942.708 317.315Z" fill="#D9D9D9"/>
<path d="M945.04 305.357L842.34 219.752C839.813 217.599 846.005 215.77 849.605 214.577C929.347 184.704 969.474 171.816 980.365 167.596C991.257 163.375 1001.12 163.106 1004.82 166.524C1032.05 189.684 1089.26 238.324 1100.23 247.604C1111.2 256.884 1103.47 263.535 1098.23 265.701C1037.37 286.91 1012.16 295.767 986.103 305.814C960.046 315.86 948.934 309.186 945.04 305.357Z" fill="white"/>
<path d="M972.359 262.133C968.407 263.453 964.462 264.77 960.525 266.083C946.479 253.642 932.318 241.27 918.044 228.968C922.476 227.625 926.908 226.28 931.341 224.931C950.246 231.99 969.086 238.957 987.86 245.831C984.769 234.114 981.677 222.381 978.584 210.631C982.986 209.309 987.388 207.991 991.791 206.675C1005.83 218.761 1019.85 230.462 1033.87 241.78C1029.95 243.055 1026.03 244.332 1022.11 245.612C1012.65 237.823 1003.17 229.945 993.689 221.978C996.362 232.045 999.036 242.172 1001.71 252.36C998.728 253.356 995.743 254.348 992.757 255.338C976.471 249.376 960.156 243.349 943.812 237.257C953.37 245.525 962.885 253.817 972.359 262.133Z" fill="#D4D4D4"/>
</g>
<g filter="url(#filter4_d_3338_1151)">
<path d="M527.66 473.415L434.285 388.31C430.798 385.133 429.505 372.701 434.023 371.344C513.75 347.383 592.414 334.191 594.839 322.765C594.839 322.765 692.819 405.505 696.483 408.963C697.041 414.275 697.529 419.547 697.13 424.417C696.786 428.623 693.612 431.856 689.677 433.383C633.896 455.027 597.93 467.08 570.7 477.444C542.47 488.189 531.992 476.967 527.66 473.415Z" fill="#D9D9D9"/>
<path d="M534.542 464.051L432.867 373.838C430.362 371.658 436.573 369.894 440.185 368.739C520.236 339.704 560.495 327.236 571.43 323.13C582.365 319.025 592.478 314.97 597.99 318.954C624.978 342.398 682.934 390.347 692.545 401.029C701.483 410.963 693.523 420.355 688.263 422.466C633.01 444.639 601.759 455.165 575.598 464.938C549.437 474.711 534.542 464.051 534.542 464.051Z" fill="white"/>
</g>
<g filter="url(#filter5_d_3338_1151)">
<path d="M560.428 249.508L433.449 140.246C428.688 136.149 426.739 120.405 432.751 118.585C536.139 87.2761 638.176 69.9443 641.292 55.1124C641.292 55.1124 767.917 167.372 772.682 171.848C773.349 178.084 772.384 184.665 771.319 189.877C770.333 194.696 766.735 198.596 762.085 200.198C686.876 226.112 646.542 238.177 613.698 250.539C579.779 263.305 566.059 254.105 560.428 249.508Z" fill="#D9D9D9"/>
<path d="M563.584 234.018L431.257 121.824C428.001 119.003 436.055 116.698 440.74 115.188C544.534 77.2947 596.74 61.0077 610.918 55.6502C625.096 50.2928 637.895 50.051 642.661 54.5256C677.744 84.8732 751.443 148.608 765.578 160.769C779.714 172.929 769.609 181.476 762.789 184.229C683.593 211.087 650.779 222.305 616.86 235.058C582.94 247.81 568.595 239.028 563.584 234.018Z" fill="white"/>
</g>
<path d="M188.491 597.332L93.5401 509.403C91.5819 507.59 90.4521 505.047 90.6693 502.358C91.0299 497.895 92.0645 491.317 95.0331 490.084C97.7321 488.964 99.7134 498.23 101.16 497.774C187.224 472.201 338.543 421.905 350.327 417.577C362.111 413.248 373.186 418.899 377.251 422.265C407.13 445.053 461.601 492.69 473.638 501.82C476.075 503.669 475.479 494.948 476.578 496.324C480.909 501.744 482.95 512.804 476.019 515.197C406.728 539.119 270.668 586.701 242.475 597.007C214.282 607.312 197.131 606.833 188.491 597.332Z" fill="#D9D9D9"/>
<path d="M193.442 586.83L97.3667 500.594C93.2789 496.925 93.0124 490.424 97.5169 487.001C98.9285 485.928 100.299 485.061 101.386 484.718C187.45 459.145 338.768 408.849 350.552 404.521C362.336 400.192 373.412 405.842 377.477 409.209C407.355 431.997 462.098 482.214 473.235 492.39C480.45 498.982 479.109 504.326 473.344 506.316C404.053 530.238 270.893 573.645 242.7 583.95C214.507 594.256 199.143 591.367 193.442 586.83Z" fill="white"/>
<path d="M551 162.45C551.08 162.32 551.15 162.19 551.24 162.05C551.31 161.92 551.39 161.79 551.47 161.66C551.54 161.52 551.62 161.39 551.7 161.26C551.78 161.12 551.85 160.99 551.93 160.86C552.01 160.73 552.08 160.6 552.17 160.47C552.24 160.34 552.32 160.2 552.4 160.07C552.47 159.94 552.55 159.8 552.63 159.67C552.71 159.54 552.78 159.41 552.86 159.27C552.94 159.14 553.01 159.01 553.1 158.87C553.17 158.74 553.24 158.61 553.33 158.48C553.4 158.34 553.48 158.21 553.56 158.08C553.63 157.94 553.71 157.81 553.78 157.68C553.87 157.55 553.94 157.42 554.02 157.29C554.1 157.16 554.17 157.02 554.25 156.89C554.33 156.76 554.41 156.62 554.48 156.49C554.56 156.36 554.64 156.23 554.71 156.09C554.8 155.96 554.87 155.83 554.95 155.69C555.02 155.56 555.1 155.43 555.18 155.3C555.25 155.16 555.34 155.03 555.41 154.9C555.48 154.76 555.57 154.63 555.64 154.5C555.72 154.36 555.79 154.23 555.88 154.1C555.95 153.97 556.02 153.83 556.11 153.71C556.18 153.57 556.26 153.43 556.33 153.31C556.42 153.18 556.49 153.04 556.56 152.91C556.64 152.78 556.72 152.64 556.8 152.51C556.87 152.38 556.95 152.25 557.03 152.11C557.1 151.98 557.18 151.85 557.26 151.71C557.34 151.58 557.41 151.45 557.48 151.31C557.57 151.18 557.64 151.05 557.72 150.91C557.79 150.78 557.87 150.65 557.95 150.52C558.02 150.38 558.1 150.25 558.18 150.12C558.26 149.98 558.33 149.85 558.4 149.72C558.49 149.58 558.56 149.45 558.64 149.32C558.71 149.18 558.79 149.05 558.87 148.92C558.94 148.78 559.02 148.65 559.09 148.52C559.18 148.38 559.25 148.25 559.32 148.12C559.4 147.99 559.48 147.85 559.56 147.72C559.63 147.59 559.71 147.46 559.78 147.32C559.86 147.19 559.94 147.05 560.01 146.92C560.09 146.79 560.17 146.66 560.25 146.53C560.32 146.39 560.39 146.26 560.47 146.13C560.55 146 560.63 145.86 560.7 145.73C560.78 145.6 560.85 145.46 560.92 145.33C561.01 145.2 561.08 145.06 561.16 144.93C561.23 144.8 561.31 144.66 561.39 144.53C561.46 144.4 561.54 144.26 561.61 144.13C561.69 144 561.76 143.86 561.85 143.73C561.92 143.6 561.99 143.46 562.07 143.33C562.14 143.19 562.22 143.06 562.3 142.93C562.38 142.79 562.45 142.66 562.52 142.53C562.6 142.39 562.67 142.26 562.75 142.13C562.83 141.99 562.91 141.86 562.98 141.73C563.05 141.59 563.13 141.46 563.2 141.33C563.28 141.19 563.36 141.06 563.44 140.93C563.51 140.79 563.58 140.65 563.66 140.52C563.73 140.38 563.81 140.25 563.88 140.12C563.96 139.98 564.04 139.85 564.11 139.72C564.19 139.58 564.26 139.45 564.34 139.32C564.41 139.18 564.49 139.05 564.56 138.91C564.63 138.78 564.71 138.65 564.79 138.51C564.87 138.38 564.94 138.25 565.02 138.11C565.09 137.98 565.16 137.85 565.24 137.71C565.31 137.58 565.39 137.44 565.46 137.31C565.54 137.18 565.61 137.04 565.69 136.91C565.76 136.78 565.84 136.64 565.92 136.51C565.99 136.37 566.07 136.24 566.14 136.11C566.22 135.97 566.29 135.84 566.37 135.71C566.44 135.57 566.51 135.44 566.59 135.3C566.66 135.17 566.74 135.04 566.81 134.9C566.89 134.77 566.96 134.64 567.03 134.49C567.11 134.36 567.18 134.23 567.26 134.09C567.33 133.96 567.42 133.82 567.49 133.69C567.56 133.56 567.64 133.42 567.7 133.29C567.78 133.15 567.85 133.02 567.94 132.89C568.01 132.75 568.09 132.62 568.16 132.48C568.23 132.35 568.3 132.22 568.38 132.08C568.46 131.95 568.53 131.82 568.61 131.68C568.67 131.55 568.75 131.41 568.82 131.27C568.9 131.14 568.97 131 569.04 130.87C569.12 130.73 569.19 130.6 569.27 130.47C569.34 130.33 569.42 130.2 569.49 130.06C569.57 129.93 569.64 129.8 569.71 129.66C569.79 129.53 569.86 129.39 569.94 129.26C570.01 129.13 570.09 128.99 570.16 128.86C570.24 128.72 570.31 128.59 570.39 128.45C570.46 128.31 570.53 128.18 570.6 128.04C570.67 127.91 570.75 127.77 570.82 127.64C570.9 127.51 570.97 127.37 571.05 127.24C571.12 127.1 571.19 126.97 571.27 126.84C571.34 126.7 571.42 126.57 571.49 126.43C571.57 126.3 571.63 126.16 571.71 126.02C571.78 125.89 571.86 125.75 571.93 125.62C572 125.48 572.08 125.35 572.15 125.21C572.23 125.08 572.3 124.95 572.38 124.81C572.44 124.68 572.52 124.54 572.59 124.41C572.67 124.27 572.74 124.14 572.81 124C572.89 123.86 572.96 123.73 573.04 123.59C573.1 123.46 573.18 123.32 573.25 123.19C573.33 123.06 573.4 122.92 573.48 122.79C573.55 122.65 573.62 122.52 573.69 122.38C573.76 122.25 573.84 122.11 573.91 121.98C573.99 121.84 574.06 121.7 574.14 121.57C574.21 121.43 574.28 121.3 574.35 121.16C574.42 121.03 574.5 120.89 574.57 120.76C574.65 120.62 574.71 120.49 574.79 120.36C574.86 120.21 574.94 120.08 575.01 119.94C575.09 119.81 575.16 119.67 575.23 119.54C575.3 119.4 575.37 119.27 575.45 119.13C575.52 119 575.6 118.87 575.66 118.73C575.74 118.6 575.81 118.45 575.89 118.32C575.96 118.18 576.04 118.05 576.1 117.91C576.18 117.78 576.25 117.64 576.32 117.51C576.4 117.37 576.47 117.24 576.54 117.1C576.61 116.96 576.69 116.83 576.76 116.69C576.84 116.56 576.9 116.42 576.98 116.29C577.05 116.15 577.13 116.02 577.2 115.88C577.27 115.75 577.34 115.61 577.41 115.48C577.49 115.33 577.56 115.2 577.64 115.06C577.7 114.93 577.78 114.79 577.85 114.66C577.93 114.52 578 114.39 578.07 114.25C578.14 114.12 578.22 113.98 578.29 113.84C578.36 113.71 578.43 113.57 578.5 113.44C578.58 113.3 578.65 113.17 578.73 113.03C578.79 112.9 578.87 112.76 578.94 112.63C579.02 112.49 579.08 112.36 579.16 112.21C579.23 112.08 579.31 111.94 579.38 111.81C579.45 111.67 579.52 111.54 579.59 111.4C579.67 111.27 579.74 111.13 579.81 111C580.01 111.03 580.19 111.06 580.39 111.1C580.57 111.14 580.76 111.18 580.96 111.22C581.14 111.26 581.33 111.3 581.53 111.33C581.71 111.37 581.91 111.41 582.1 111.45C582.28 111.49 582.48 111.53 582.67 111.57C582.86 111.6 583.05 111.64 583.24 111.68C583.43 111.72 583.62 111.76 583.82 111.8C584 111.84 584.19 111.87 584.39 111.91C584.57 111.95 584.77 111.99 584.96 112.02C585.14 112.06 585.34 112.1 585.53 112.14C585.72 112.18 585.91 112.21 586.1 112.25C586.29 112.29 586.48 112.33 586.67 112.37C586.86 112.41 587.05 112.45 587.24 112.48C587.43 112.52 587.63 112.56 587.81 112.6C588.01 112.64 588.2 112.68 588.38 112.72C588.58 112.76 588.77 112.79 588.96 112.83C589.15 112.87 589.34 112.91 589.53 112.95C589.72 112.99 589.92 113.03 590.1 113.06C590.3 113.1 590.49 113.13 590.67 113.17C590.87 113.21 591.06 113.25 591.25 113.29C591.44 113.33 591.63 113.37 591.82 113.4C592.02 113.44 592.2 113.48 592.4 113.52C592.59 113.56 592.77 113.6 592.97 113.64C593.16 113.68 593.35 113.71 593.54 113.75C593.74 113.79 593.92 113.83 594.12 113.87C594.31 113.91 594.49 113.95 594.69 113.99C594.88 114.02 595.07 114.06 595.26 114.1C595.46 114.14 595.64 114.18 595.84 114.22C596.03 114.26 596.22 114.3 596.41 114.33C596.6 114.37 596.79 114.41 596.98 114.45C597.17 114.49 597.37 114.53 597.56 114.57C597.74 114.61 597.94 114.64 598.13 114.68C598.32 114.72 598.51 114.76 598.71 114.8C598.89 114.84 599.09 114.88 599.28 114.92C599.47 114.95 599.66 114.99 599.85 115.02C600.04 115.06 600.24 115.1 600.43 115.15C600.62 115.18 600.81 115.22 601 115.26C601.19 115.3 601.39 115.34 601.58 115.37C601.77 115.41 601.96 115.45 602.15 115.49C602.35 115.53 602.54 115.57 602.72 115.61C602.92 115.65 603.12 115.69 603.3 115.72C603.5 115.76 603.68 115.8 603.88 115.84C604.07 115.88 604.26 115.92 604.45 115.96C604.65 116 604.83 116.04 605.03 116.07C605.23 116.11 605.41 116.15 605.61 116.19C605.8 116.23 605.99 116.27 606.18 116.31C606.38 116.35 606.56 116.39 606.76 116.42C606.95 116.46 607.14 116.5 607.34 116.54C607.52 116.58 607.72 116.62 607.91 116.66C608.1 116.7 608.3 116.74 608.49 116.77C608.68 116.81 608.87 116.85 609.07 116.89C609.25 116.93 609.45 116.97 609.64 117.01C609.83 117.05 610.03 117.09 610.21 117.13C610.41 117.16 610.61 117.2 610.79 117.24C610.99 117.28 611.18 117.32 611.37 117.36C611.57 117.4 611.76 117.44 611.95 117.49C612.15 117.52 612.34 117.56 612.53 117.6C612.72 117.64 612.91 117.68 613.11 117.72C613.3 117.76 613.49 117.8 613.69 117.84C613.88 117.88 614.07 117.91 614.26 117.95C614.46 117.99 614.65 118.03 614.85 118.07C615.03 118.11 615.23 118.15 615.42 118.19C615.61 118.23 615.81 118.27 616 118.31C616.19 118.34 616.39 118.38 616.58 118.42C616.77 118.46 616.97 118.5 617.15 118.54C617.35 118.58 617.55 118.62 617.73 118.66C617.93 118.7 618.13 118.74 618.31 118.77C618.51 118.81 618.7 118.85 618.89 118.89C619.09 118.93 619.28 118.97 619.48 119.02C619.67 119.06 619.86 119.1 620.06 119.14C620.25 119.17 620.44 119.21 620.64 119.25C620.83 119.29 621.02 119.33 621.22 119.37C621.41 119.41 621.6 119.45 621.8 119.49C621.99 119.53 622.18 119.57 622.38 119.61C622.57 119.65 622.77 119.68 622.95 119.72C623.15 119.76 623.35 119.8 623.53 119.84C623.73 119.88 623.93 119.92 624.12 119.97C624.32 120.01 624.51 120.05 624.7 120.09C624.9 120.12 625.08 120.16 625.28 120.2C625.48 120.24 625.67 120.28 625.86 120.32C626.06 120.36 626.25 120.4 626.45 120.44C626.64 120.48 626.83 120.52 627.03 120.56C627.22 120.6 627.42 120.64 627.61 120.67C627.8 120.71 628 120.76 628.19 120.8C628.39 120.84 628.58 120.88 628.77 120.92C628.97 120.96 629.17 121 629.35 121.04C629.55 121.08 629.74 121.12 629.94 121.16C630.14 121.19 630.32 121.23 630.52 121.27C630.72 121.31 630.91 121.36 631.11 121.4C631.3 121.44 631.49 121.48 631.69 121.52C631.88 121.56 632.08 121.6 632.28 121.64C632.46 121.68 632.66 121.72 632.85 121.75C633.05 121.79 633.25 121.83 633.43 121.87C633.63 121.91 633.83 121.96 634.02 122C634.22 122.04 634.41 122.08 634.6 122.12C634.8 122.16 634.99 122.2 635.19 122.24C635.39 122.28 635.58 122.32 635.77 122.35C635.96 122.39 636.16 122.43 636.36 122.47C636.55 122.51 636.75 122.55 636.95 122.6C637.13 122.64 637.33 122.68 637.52 122.72C637.72 122.76 637.92 122.8 638.11 122.84C638.31 122.88 638.5 122.92 638.69 122.96C638.89 123 639.08 123.04 639.28 123.08C639.48 123.12 639.67 123.16 639.87 123.2C640.06 123.24 640.25 123.28 640.45 123.32C640.64 123.36 640.84 123.4 641.04 123.44C641.23 123.48 641.43 123.52 641.61 123.56C641.81 123.61 642.01 123.65 642.2 123.69C642.4 123.73 642.6 123.77 642.79 123.81C642.99 123.85 643.18 123.89 643.37 123.93C643.57 123.97 643.76 124 643.96 124.05C644.16 124.09 644.35 124.13 644.55 124.17C644.74 124.21 644.94 124.25 645.14 124.29C645.33 124.33 645.52 124.37 645.71 124.41C645.91 124.45 646.11 124.49 646.3 124.53C646.5 124.58 646.69 124.62 646.89 124.66C647.09 124.7 647.28 124.74 647.48 124.78C647.67 124.82 647.86 124.86 648.06 124.9C648.25 124.95 648.45 124.99 648.65 125.03C648.84 125.07 649.04 125.11 649.23 125.15C649.43 125.19 649.63 125.23 649.82 125.27C650.02 125.31 650.21 125.35 650.41 125.39C650.6 125.43 650.79 125.47 650.99 125.51C651.19 125.55 651.38 125.59 651.58 125.63C651.77 125.67 651.97 125.71 652.17 125.75C652.36 125.79 652.56 125.83 652.75 125.88C652.95 125.92 653.15 125.96 653.34 126C653.54 126.04 653.73 126.08 653.93 126.12C653.86 126.26 653.78 126.4 653.71 126.53C653.63 126.68 653.57 126.82 653.49 126.95C653.42 127.09 653.34 127.23 653.27 127.36C653.2 127.5 653.13 127.64 653.05 127.77C652.98 127.91 652.9 128.06 652.84 128.19C652.76 128.33 652.69 128.47 652.61 128.6C652.55 128.74 652.47 128.88 652.4 129.01C652.32 129.15 652.25 129.29 652.18 129.43C652.11 129.56 652.04 129.71 651.96 129.84C651.89 129.98 651.81 130.12 651.75 130.25C651.67 130.39 651.6 130.53 651.52 130.66C651.45 130.8 651.38 130.94 651.31 131.08C651.23 131.22 651.16 131.36 651.08 131.49C651.02 131.63 650.94 131.77 650.87 131.9C650.79 132.04 650.72 132.18 650.64 132.31C650.58 132.45 650.5 132.59 650.43 132.72C650.35 132.87 650.28 133.01 650.21 133.14C650.14 133.28 650.06 133.42 649.99 133.55C649.91 133.69 649.84 133.83 649.77 133.96C649.7 134.1 649.63 134.24 649.55 134.37C649.48 134.51 649.4 134.66 649.33 134.79C649.26 134.93 649.19 135.07 649.11 135.2C649.04 135.34 648.96 135.48 648.89 135.61C648.82 135.75 648.75 135.89 648.67 136.02C648.6 136.16 648.52 136.3 648.45 136.44C648.37 136.58 648.31 136.71 648.23 136.85C648.16 136.99 648.08 137.12 648.01 137.26C647.94 137.4 647.86 137.53 647.79 137.67C647.72 137.81 647.65 137.94 647.57 138.08C647.5 138.22 647.42 138.36 647.35 138.5C647.27 138.63 647.2 138.77 647.13 138.91C647.06 139.04 646.98 139.18 646.91 139.32C646.83 139.45 646.76 139.59 646.68 139.73C646.61 139.86 646.54 140 646.47 140.14C646.39 140.27 646.32 140.42 646.25 140.55C646.17 140.69 646.1 140.83 646.02 140.96C645.95 141.1 645.87 141.24 645.8 141.37C645.73 141.51 645.66 141.65 645.58 141.78C645.51 141.92 645.43 142.05 645.36 142.19C645.28 142.33 645.21 142.47 645.13 142.61C645.06 142.75 644.99 142.88 644.91 143.02C644.84 143.15 644.76 143.29 644.7 143.43C644.62 143.56 644.55 143.7 644.47 143.84C644.4 143.97 644.32 144.11 644.25 144.24C644.17 144.38 644.1 144.52 644.02 144.66C643.95 144.79 643.87 144.93 643.8 145.07C643.73 145.21 643.65 145.34 643.58 145.48C643.5 145.62 643.43 145.75 643.35 145.89C643.28 146.03 643.2 146.16 643.13 146.3C643.05 146.43 642.98 146.57 642.91 146.71C642.84 146.84 642.76 146.98 642.68 147.11C642.61 147.25 642.54 147.39 642.46 147.52C642.39 147.67 642.32 147.8 642.24 147.93C642.17 148.08 642.09 148.21 642.02 148.35C641.94 148.49 641.87 148.62 641.79 148.76C641.71 148.89 641.64 149.03 641.57 149.17C641.49 149.3 641.42 149.44 641.34 149.57C641.27 149.71 641.19 149.85 641.11 149.98C641.04 150.12 640.96 150.25 640.89 150.39C640.81 150.53 640.74 150.66 640.66 150.8C640.59 150.93 640.51 151.07 640.44 151.21C640.36 151.34 640.29 151.48 640.22 151.61C640.14 151.75 640.07 151.9 639.99 152.03C639.92 152.17 639.84 152.3 639.77 152.44C639.68 152.57 639.61 152.71 639.53 152.85C639.46 152.98 639.39 153.12 639.31 153.25C639.24 153.39 639.16 153.53 639.09 153.66C639.01 153.8 638.94 153.93 638.86 154.07C638.78 154.21 638.7 154.34 638.63 154.48C638.55 154.61 638.48 154.75 638.41 154.88C638.33 155.02 638.26 155.16 638.18 155.29C638.11 155.43 638.02 155.56 637.95 155.7C637.87 155.84 637.8 155.97 637.72 156.11C637.65 156.24 637.58 156.38 637.5 156.51C637.43 156.65 637.34 156.79 637.27 156.92C637.19 157.06 637.12 157.19 637.04 157.33C636.97 157.46 636.89 157.6 636.81 157.74C636.74 157.87 636.66 158.01 636.59 158.14C636.51 158.28 636.44 158.41 636.35 158.55C636.28 158.68 636.2 158.82 636.13 158.96C636.05 159.09 635.98 159.23 635.91 159.36C635.82 159.5 635.75 159.63 635.67 159.77C635.6 159.9 635.52 160.04 635.45 160.18C635.36 160.31 635.29 160.45 635.22 160.58C635.14 160.72 635.07 160.85 634.99 160.99C634.91 161.12 634.83 161.26 634.76 161.39C634.68 161.53 634.61 161.67 634.53 161.8C634.45 161.94 634.38 162.07 634.3 162.21C634.23 162.34 634.14 162.48 634.07 162.61C633.99 162.75 633.92 162.88 633.84 163.02C633.76 163.15 633.69 163.29 633.61 163.43C633.54 163.56 633.45 163.7 633.38 163.83C633.3 163.97 633.23 164.1 633.15 164.24C633.07 164.37 633 164.51 632.92 164.64C632.85 164.78 632.76 164.91 632.69 165.05C632.61 165.18 632.54 165.32 632.46 165.45C632.38 165.59 632.31 165.72 632.23 165.86C632.15 165.99 632.07 166.13 632 166.27C631.92 166.4 631.85 166.54 631.76 166.66C631.69 166.81 631.62 166.94 631.53 167.07C631.46 167.2 631.38 167.34 631.31 167.47C631.23 167.61 631.15 167.74 631.07 167.88C631 168.01 630.92 168.15 630.84 168.28C630.77 168.42 630.69 168.55 630.61 168.69C630.53 168.82 630.46 168.96 630.38 169.09C630.3 169.23 630.23 169.36 630.15 169.5C630.07 169.63 629.99 169.77 629.92 169.9C629.84 170.04 629.76 170.17 629.69 170.31C629.61 170.44 629.53 170.58 629.45 170.71C629.38 170.85 629.3 170.98 629.22 171.12C629.15 171.25 629.07 171.39 628.99 171.52C628.91 171.65 628.84 171.78 628.75 171.92C628.68 172.05 628.6 172.19 628.52 172.32C628.45 172.46 628.37 172.59 628.3 172.73C628.21 172.86 628.14 173 628.06 173.13C627.98 173.26 627.91 173.4 627.82 173.53C627.75 173.67 627.67 173.8 627.6 173.94C627.52 174.07 627.44 174.21 627.37 174.34C627.28 174.48 627.21 174.61 627.13 174.75C627.05 174.88 626.97 175.01 626.9 175.14C626.82 175.28 626.74 175.41 626.67 175.55C626.58 175.68 626.51 175.81 626.43 175.95C626.35 176.08 626.28 176.22 626.2 176.35C626.12 176.49 626.04 176.62 625.97 176.76C625.88 176.89 625.81 177.03 625.74 177.16C625.65 177.29 625.58 177.43 625.5 177.56C625.42 177.7 625.34 177.83 625.27 177.97C625.19 178.1 625.11 178.24 625.04 178.37C624.84 178.32 624.64 178.28 624.45 178.24C624.25 178.19 624.06 178.15 623.86 178.11C623.67 178.07 623.47 178.03 623.27 177.98C623.08 177.93 622.88 177.89 622.69 177.85C622.49 177.81 622.29 177.77 622.1 177.73C621.9 177.68 621.71 177.64 621.52 177.6C621.32 177.56 621.13 177.52 620.93 177.47C620.74 177.42 620.54 177.38 620.34 177.34C620.15 177.3 619.95 177.26 619.76 177.22C619.56 177.17 619.37 177.13 619.18 177.09C618.98 177.05 618.79 177 618.59 176.96C618.39 176.91 618.2 176.87 618 176.83C617.81 176.79 617.61 176.75 617.42 176.71C617.22 176.66 617.02 176.62 616.84 176.57C616.64 176.53 616.45 176.49 616.25 176.45C616.05 176.4 615.86 176.36 615.66 176.32C615.47 176.28 615.27 176.24 615.07 176.2C614.88 176.15 614.68 176.11 614.49 176.07C614.3 176.02 614.1 175.98 613.91 175.94C613.71 175.9 613.52 175.85 613.32 175.81C613.12 175.77 612.93 175.73 612.73 175.69C612.55 175.65 612.35 175.6 612.16 175.56C611.96 175.51 611.76 175.47 611.57 175.43C611.37 175.39 611.18 175.34 610.99 175.3C610.79 175.26 610.6 175.22 610.4 175.18C610.21 175.14 610.01 175.09 609.81 175.05C609.63 175 609.43 174.96 609.23 174.92C609.04 174.88 608.84 174.84 608.65 174.79C608.45 174.75 608.26 174.71 608.07 174.67C607.87 174.63 607.68 174.59 607.48 174.55C607.29 174.5 607.09 174.45 606.9 174.41C606.71 174.37 606.51 174.33 606.31 174.29C606.12 174.25 605.92 174.2 605.73 174.16C605.54 174.12 605.34 174.08 605.15 174.04C604.95 174 604.76 173.95 604.56 173.9C604.37 173.86 604.18 173.82 603.98 173.78C603.79 173.74 603.59 173.7 603.4 173.65C603.21 173.61 603.01 173.57 602.82 173.53C602.62 173.49 602.43 173.45 602.24 173.41C602.04 173.36 601.85 173.32 601.65 173.28C601.46 173.24 601.27 173.19 601.07 173.15C600.88 173.11 600.68 173.06 600.48 173.02C600.3 172.98 600.1 172.94 599.91 172.9C599.71 172.86 599.52 172.82 599.33 172.77C599.13 172.73 598.94 172.69 598.75 172.65C598.55 172.61 598.36 172.57 598.16 172.53C597.97 172.48 597.78 172.43 597.58 172.39C597.39 172.35 597.19 172.31 597 172.27C596.81 172.23 596.61 172.19 596.42 172.14C596.23 172.1 596.03 172.06 595.84 172.02C595.64 171.98 595.46 171.94 595.26 171.9C595.06 171.85 594.87 171.81 594.68 171.77C594.49 171.73 594.29 171.69 594.09 171.65C593.91 171.61 593.71 171.56 593.52 171.52C593.33 171.47 593.13 171.43 592.94 171.39C592.74 171.35 592.55 171.31 592.36 171.27C592.16 171.22 591.98 171.18 591.78 171.14C591.58 171.1 591.39 171.06 591.2 171.02C591.01 170.98 590.81 170.94 590.62 170.89C590.43 170.85 590.23 170.81 590.05 170.77C589.85 170.73 589.65 170.69 589.46 170.65C589.27 170.61 589.08 170.56 588.88 170.52C588.69 170.48 588.5 170.44 588.3 170.4C588.11 170.36 587.92 170.32 587.72 170.27C587.54 170.23 587.34 170.18 587.14 170.14C586.96 170.1 586.76 170.06 586.57 170.02C586.38 169.98 586.18 169.94 586 169.9C585.8 169.85 585.6 169.81 585.42 169.77C585.22 169.73 585.03 169.69 584.84 169.65C584.64 169.61 584.45 169.57 584.26 169.52C584.07 169.48 583.87 169.44 583.68 169.4C583.49 169.36 583.3 169.32 583.1 169.28C582.91 169.24 582.72 169.19 582.53 169.15C582.34 169.11 582.14 169.07 581.95 169.03C581.76 168.99 581.56 168.95 581.38 168.91C581.18 168.87 580.99 168.82 580.8 168.78C580.6 168.74 580.42 168.7 580.22 168.66C580.03 168.62 579.84 168.58 579.64 168.54C579.46 168.5 579.26 168.45 579.07 168.41C578.88 168.37 578.68 168.33 578.5 168.29C578.3 168.25 578.11 168.21 577.92 168.17C577.73 168.13 577.53 168.08 577.34 168.04C577.15 168 576.96 167.96 576.77 167.92C576.57 167.88 576.39 167.84 576.19 167.8C576 167.76 575.81 167.71 575.61 167.67C575.43 167.63 575.23 167.59 575.04 167.55C574.85 167.51 574.66 167.47 574.46 167.43C574.28 167.39 574.08 167.35 573.9 167.3C573.7 167.26 573.51 167.22 573.32 167.18C573.12 167.14 572.93 167.1 572.75 167.06C572.55 167.02 572.36 166.98 572.17 166.94C571.97 166.89 571.79 166.85 571.59 166.81C571.4 166.77 571.21 166.73 571.02 166.69C570.83 166.65 570.64 166.61 570.44 166.57C570.26 166.53 570.06 166.49 569.87 166.45C569.68 166.4 569.49 166.36 569.3 166.32C569.11 166.28 568.92 166.24 568.73 166.2C568.54 166.16 568.34 166.12 568.15 166.08C567.96 166.04 567.77 166 567.58 165.95C567.39 165.91 567.2 165.87 567.01 165.83C566.81 165.79 566.63 165.75 566.43 165.71C566.24 165.67 566.05 165.63 565.86 165.59C565.67 165.55 565.48 165.51 565.29 165.47C565.1 165.42 564.91 165.38 564.71 165.34C564.53 165.3 564.33 165.26 564.14 165.22C563.95 165.19 563.76 165.15 563.58 165.11C563.38 165.07 563.19 165.03 563 164.98C562.81 164.94 562.61 164.9 562.43 164.86C562.23 164.82 562.05 164.78 561.85 164.74C561.66 164.7 561.48 164.66 561.28 164.62C561.09 164.58 560.9 164.54 560.71 164.5C560.51 164.46 560.33 164.42 560.14 164.38C559.95 164.33 559.76 164.29 559.56 164.25C559.38 164.21 559.19 164.17 558.99 164.13C558.81 164.09 558.61 164.05 558.42 164.01C558.23 163.97 558.04 163.93 557.86 163.9C557.66 163.86 557.47 163.82 557.28 163.78C557.09 163.74 556.9 163.69 556.71 163.65C556.52 163.61 556.32 163.57 556.14 163.53C555.95 163.49 555.76 163.45 555.57 163.41C555.37 163.37 555.19 163.33 555 163.29C554.8 163.25 554.62 163.21 554.42 163.17C554.23 163.13 554.05 163.09 553.85 163.05C553.66 163.01 553.47 162.97 553.28 162.93C553.09 162.89 552.9 162.85 552.71 162.81C552.53 162.77 552.33 162.73 552.14 162.69C551.95 162.65 551.76 162.61 551.57 162.57C551.38 162.53 551.19 162.49 551 162.45Z" fill="#4185FC"/>
<path d="M577.01 146.41C577.32 146.31 577.61 146.21 577.92 146.12C578.22 146.05 578.53 145.97 578.84 145.91C579.14 145.84 579.46 145.79 579.76 145.75C580.07 145.71 580.38 145.69 580.68 145.66C580.99 145.65 581.3 145.63 581.6 145.63C581.91 145.63 582.21 145.64 582.5 145.67C582.81 145.69 583.1 145.71 583.39 145.76C583.69 145.8 583.97 145.84 584.25 145.9C584.53 145.96 584.81 146.03 585.08 146.11C585.35 146.18 585.62 146.27 585.87 146.37C586.12 146.46 586.37 146.56 586.61 146.68C586.85 146.79 587.09 146.92 587.31 147.05C587.54 147.18 587.75 147.32 587.95 147.47C588.15 147.61 588.35 147.77 588.53 147.93C588.71 148.1 588.87 148.27 589.03 148.45C589.19 148.63 589.33 148.82 589.46 149.02C589.6 149.21 589.71 149.41 589.8 149.61C589.91 149.81 589.99 150.02 590.05 150.22C590.11 150.42 590.16 150.63 590.2 150.84C590.23 151.04 590.25 151.26 590.24 151.46C590.25 151.67 590.24 151.88 590.21 152.08C590.18 152.29 590.14 152.5 590.09 152.7C590.03 152.91 589.96 153.12 589.87 153.32C589.79 153.52 589.69 153.72 589.57 153.91C589.46 154.11 589.34 154.31 589.2 154.5C589.06 154.69 588.91 154.87 588.74 155.06C588.58 155.24 588.4 155.42 588.21 155.59C588.02 155.76 587.82 155.93 587.6 156.09C587.4 156.26 587.17 156.41 586.93 156.56C586.7 156.71 586.44 156.85 586.19 156.99C585.92 157.13 585.65 157.25 585.37 157.38C585.09 157.5 584.8 157.61 584.5 157.72C584.2 157.82 583.89 157.91 583.59 157.99C583.28 158.08 582.97 158.14 582.66 158.21C582.35 158.27 582.04 158.32 581.74 158.36C581.42 158.4 581.12 158.43 580.8 158.44C580.5 158.47 580.19 158.47 579.89 158.47C579.58 158.47 579.28 158.46 578.98 158.43C578.68 158.41 578.39 158.39 578.09 158.34C577.8 158.3 577.52 158.25 577.23 158.19C576.95 158.13 576.67 158.06 576.41 157.99C576.14 157.91 575.87 157.81 575.61 157.72C575.37 157.63 575.12 157.53 574.87 157.41C574.63 157.3 574.4 157.17 574.18 157.04C573.96 156.91 573.75 156.77 573.55 156.62C573.35 156.48 573.16 156.32 572.98 156.16C572.8 156 572.63 155.83 572.48 155.64C572.33 155.47 572.19 155.28 572.05 155.08C571.93 154.89 571.81 154.69 571.72 154.5C571.63 154.3 571.55 154.09 571.49 153.89C571.42 153.69 571.37 153.48 571.34 153.28C571.31 153.07 571.3 152.86 571.29 152.65C571.29 152.45 571.3 152.24 571.33 152.03C571.36 151.83 571.41 151.62 571.46 151.42C571.52 151.22 571.6 151.02 571.68 150.81C571.76 150.61 571.86 150.41 571.97 150.21C572.08 150.02 572.21 149.83 572.34 149.64C572.48 149.45 572.64 149.26 572.8 149.07C572.97 148.89 573.14 148.72 573.33 148.55C573.52 148.37 573.72 148.2 573.93 148.04C574.15 147.87 574.37 147.72 574.61 147.57C574.84 147.42 575.09 147.28 575.35 147.14C575.6 147 575.87 146.87 576.14 146.75C576.43 146.63 576.72 146.52 577.01 146.41ZM579.18 149.19C578.88 149.3 578.59 149.42 578.34 149.57C578.07 149.7 577.83 149.86 577.61 150.02C577.39 150.18 577.21 150.36 577.04 150.55C576.87 150.74 576.73 150.93 576.61 151.13C576.5 151.33 576.42 151.54 576.35 151.74C576.29 151.95 576.26 152.16 576.26 152.38C576.27 152.58 576.31 152.79 576.37 153C576.43 153.21 576.53 153.41 576.66 153.61C576.79 153.81 576.94 153.99 577.13 154.16C577.31 154.32 577.52 154.48 577.75 154.61C577.97 154.75 578.21 154.86 578.47 154.96C578.74 155.05 579.01 155.13 579.3 155.19C579.58 155.25 579.89 155.3 580.19 155.31C580.49 155.34 580.8 155.34 581.12 155.32C581.43 155.3 581.75 155.26 582.06 155.2C582.38 155.14 582.69 155.06 583 154.95C583.3 154.84 583.59 154.72 583.85 154.58C584.12 154.44 584.35 154.29 584.57 154.12C584.79 153.96 584.98 153.78 585.15 153.6C585.32 153.41 585.46 153.21 585.58 153.01C585.69 152.81 585.77 152.6 585.83 152.4C585.89 152.19 585.92 151.98 585.92 151.76C585.92 151.56 585.88 151.34 585.81 151.14C585.75 150.92 585.65 150.72 585.52 150.52C585.39 150.32 585.23 150.14 585.04 149.97C584.86 149.8 584.66 149.66 584.43 149.52C584.2 149.39 583.96 149.27 583.7 149.18C583.43 149.07 583.16 149 582.87 148.94C582.59 148.88 582.29 148.84 581.98 148.81C581.68 148.8 581.37 148.79 581.05 148.81C580.75 148.83 580.43 148.87 580.11 148.94C579.8 149 579.49 149.08 579.18 149.19Z" fill="white"/>
<path d="M595.5 140.12C595.69 140.05 595.89 139.98 596.09 139.92C596.29 139.87 596.49 139.81 596.68 139.76C596.89 139.71 597.09 139.67 597.29 139.62C597.49 139.58 597.7 139.55 597.9 139.51C598.1 139.48 598.3 139.46 598.5 139.44C598.71 139.41 598.9 139.4 599.1 139.38C599.31 139.37 599.51 139.35 599.71 139.35C599.91 139.35 600.11 139.35 600.31 139.35C600.51 139.36 600.7 139.36 600.9 139.38C601.1 139.39 601.29 139.41 601.48 139.43C601.68 139.45 601.87 139.47 602.06 139.51C602.25 139.54 602.44 139.58 602.63 139.61C602.8 139.65 602.99 139.7 603.17 139.74C603.35 139.78 603.53 139.84 603.71 139.89C603.88 139.95 604.05 140.01 604.22 140.07C604.39 140.13 604.55 140.2 604.72 140.27C604.53 140.5 604.34 140.72 604.15 140.95C603.96 141.17 603.77 141.41 603.59 141.63C603.4 141.86 603.21 142.09 603.03 142.31C602.84 142.54 602.64 142.76 602.45 142.99C602.29 142.92 602.12 142.85 601.94 142.79C601.76 142.73 601.57 142.68 601.37 142.63C601.19 142.59 600.99 142.56 600.79 142.53C600.58 142.5 600.38 142.49 600.17 142.48C599.97 142.48 599.76 142.48 599.55 142.49C599.34 142.51 599.12 142.53 598.92 142.56C598.7 142.59 598.49 142.63 598.29 142.68C598.07 142.74 597.86 142.8 597.66 142.87C597.37 142.98 597.08 143.1 596.83 143.24C596.57 143.38 596.33 143.53 596.13 143.7C595.91 143.86 595.72 144.03 595.56 144.22C595.39 144.4 595.26 144.59 595.15 144.79C595.04 144.99 594.95 145.19 594.9 145.4C594.84 145.61 594.82 145.81 594.82 146.03C594.83 146.23 594.86 146.44 594.92 146.64C594.99 146.85 595.09 147.05 595.21 147.25C595.35 147.44 595.5 147.62 595.69 147.79C595.87 147.96 596.07 148.1 596.3 148.24C596.52 148.36 596.76 148.48 597.02 148.58C597.28 148.67 597.55 148.75 597.83 148.81C598.12 148.87 598.41 148.91 598.71 148.93C599.01 148.96 599.32 148.96 599.63 148.93C599.94 148.92 600.25 148.87 600.56 148.82C600.86 148.75 601.17 148.67 601.48 148.56C601.69 148.49 601.89 148.4 602.08 148.32C602.27 148.23 602.45 148.13 602.62 148.02C602.79 147.92 602.95 147.8 603.1 147.69C603.24 147.57 603.37 147.45 603.49 147.32C603.62 147.2 603.72 147.07 603.82 146.93C603.92 146.8 604 146.65 604.07 146.52C604.14 146.38 604.19 146.23 604.24 146.09C604.28 145.94 604.3 145.79 604.31 145.64C604.67 145.66 605.03 145.67 605.38 145.69C605.73 145.7 606.08 145.72 606.44 145.73C606.78 145.75 607.14 145.77 607.49 145.78C607.84 145.8 608.19 145.81 608.55 145.83C608.53 145.96 608.5 146.1 608.47 146.24C608.43 146.38 608.4 146.52 608.35 146.65C608.3 146.79 608.25 146.92 608.19 147.06C608.13 147.19 608.07 147.33 607.99 147.46C607.93 147.59 607.85 147.73 607.77 147.85C607.68 147.99 607.59 148.11 607.49 148.24C607.4 148.36 607.3 148.49 607.19 148.62C607.08 148.74 606.97 148.86 606.86 148.97C606.73 149.1 606.61 149.21 606.48 149.33C606.35 149.45 606.22 149.55 606.08 149.66C605.93 149.78 605.78 149.88 605.63 149.98C605.48 150.09 605.33 150.19 605.17 150.28C605.01 150.38 604.84 150.48 604.67 150.58C604.5 150.66 604.32 150.75 604.14 150.83C603.96 150.92 603.76 151 603.57 151.08C603.38 151.16 603.19 151.23 602.98 151.3C602.7 151.4 602.39 151.5 602.09 151.58C601.79 151.66 601.49 151.73 601.18 151.79C600.88 151.85 600.57 151.9 600.27 151.94C599.97 151.98 599.66 152.01 599.35 152.02C599.05 152.05 598.75 152.05 598.45 152.05C598.15 152.05 597.84 152.04 597.55 152.01C597.26 152 596.96 151.97 596.68 151.93C596.39 151.88 596.11 151.84 595.83 151.78C595.55 151.72 595.28 151.65 595.01 151.57C594.74 151.5 594.48 151.41 594.23 151.32C593.98 151.22 593.73 151.12 593.5 151.01C593.26 150.89 593.02 150.77 592.81 150.65C592.59 150.52 592.38 150.38 592.19 150.23C591.99 150.09 591.8 149.94 591.62 149.77C591.44 149.61 591.27 149.44 591.12 149.27C590.96 149.09 590.82 148.9 590.69 148.71C590.57 148.52 590.45 148.32 590.35 148.12C590.27 147.93 590.18 147.73 590.12 147.53C590.06 147.33 590 147.12 589.97 146.92C589.94 146.72 589.92 146.51 589.92 146.31C589.92 146.1 589.93 145.9 589.96 145.69C589.98 145.49 590.02 145.29 590.07 145.08C590.13 144.88 590.2 144.68 590.28 144.48C590.37 144.28 590.46 144.09 590.56 143.89C590.68 143.7 590.8 143.51 590.93 143.32C591.06 143.13 591.21 142.95 591.37 142.77C591.53 142.58 591.7 142.41 591.89 142.23C592.07 142.07 592.27 141.89 592.48 141.74C592.68 141.57 592.9 141.42 593.14 141.27C593.37 141.12 593.6 140.98 593.86 140.85C594.12 140.71 594.37 140.58 594.65 140.46C594.93 140.34 595.2 140.22 595.5 140.12Z" fill="white"/>
<path d="M614.92 149.36C615.12 149.29 615.34 149.23 615.54 149.17C615.75 149.12 615.96 149.08 616.18 149.05C616.38 149.02 616.6 148.99 616.81 148.98C617.02 148.97 617.23 148.97 617.44 148.97C617.65 148.97 617.85 148.99 618.06 149.01C618.26 149.03 618.46 149.07 618.65 149.11C618.85 149.15 619.03 149.2 619.22 149.26C619.4 149.32 619.58 149.39 619.75 149.46C619.65 149.58 619.56 149.7 619.45 149.81C619.36 149.93 619.25 150.05 619.16 150.16C619.06 150.28 618.96 150.4 618.87 150.52C618.76 150.64 618.67 150.76 618.56 150.88C618.39 150.79 618.2 150.73 618 150.69C617.8 150.64 617.59 150.61 617.38 150.61C617.16 150.6 616.93 150.61 616.71 150.64C616.49 150.67 616.27 150.73 616.05 150.8C615.74 150.91 615.47 151.06 615.25 151.23C615.03 151.4 614.86 151.59 614.74 151.8C614.63 152 614.56 152.23 614.57 152.44C614.57 152.66 614.64 152.87 614.77 153.08C614.92 153.29 615.11 153.46 615.35 153.6C615.58 153.74 615.86 153.84 616.15 153.9C616.44 153.96 616.77 153.99 617.09 153.97C617.42 153.95 617.74 153.89 618.06 153.78C618.28 153.71 618.48 153.61 618.65 153.5C618.83 153.39 618.99 153.26 619.11 153.13C619.24 153.01 619.34 152.86 619.41 152.71C619.49 152.57 619.53 152.41 619.54 152.26C619.92 152.28 620.28 152.29 620.65 152.31C621.02 152.32 621.39 152.34 621.75 152.37C621.73 152.5 621.7 152.65 621.65 152.79C621.6 152.94 621.54 153.07 621.46 153.22C621.39 153.35 621.31 153.49 621.2 153.62C621.1 153.75 620.99 153.88 620.87 154.01C620.75 154.12 620.61 154.25 620.47 154.36C620.32 154.47 620.16 154.59 619.99 154.68C619.82 154.79 619.64 154.89 619.45 154.97C619.26 155.05 619.06 155.14 618.85 155.21C618.54 155.31 618.23 155.41 617.91 155.47C617.59 155.52 617.27 155.56 616.95 155.59C616.63 155.6 616.32 155.6 616 155.58C615.7 155.55 615.4 155.51 615.11 155.45C614.82 155.39 614.53 155.31 614.27 155.21C614 155.11 613.75 154.99 613.53 154.86C613.29 154.72 613.08 154.57 612.9 154.4C612.7 154.23 612.54 154.04 612.41 153.84C612.28 153.64 612.17 153.43 612.11 153.22C612.04 153.01 612 152.8 611.99 152.58C612 152.37 612.02 152.15 612.08 151.94C612.14 151.73 612.22 151.52 612.33 151.32C612.45 151.12 612.58 150.92 612.75 150.73C612.92 150.54 613.12 150.37 613.33 150.19C613.55 150.03 613.8 149.87 614.06 149.74C614.32 149.59 614.61 149.47 614.92 149.36Z" fill="white"/>
<path d="M585.47 150.45C585.81 150.33 586.15 150.22 586.48 150.1C586.82 149.98 587.15 149.87 587.48 149.75C587.81 149.63 588.15 149.51 588.48 149.4C588.81 149.28 589.15 149.16 589.49 149.04C589.56 149.17 589.64 149.28 589.72 149.4C589.8 149.52 589.88 149.64 589.95 149.75C590.03 149.87 590.11 149.99 590.19 150.11C590.27 150.22 590.34 150.34 590.42 150.46C590.5 150.58 590.58 150.69 590.66 150.81C590.73 150.93 590.81 151.04 590.89 151.16C590.97 151.28 591.05 151.4 591.12 151.51C591.2 151.64 591.28 151.75 591.36 151.87C591.45 151.99 591.52 152.11 591.6 152.22C591.68 152.34 591.76 152.46 591.84 152.57C591.91 152.69 591.99 152.81 592.07 152.93C592.15 153.04 592.23 153.16 592.3 153.28C592.38 153.4 592.46 153.51 592.54 153.63C592.62 153.75 592.69 153.87 592.77 153.99C592.85 154.1 592.93 154.22 593.01 154.34C593.08 154.46 593.16 154.57 593.24 154.69C592.9 154.81 592.57 154.93 592.24 155.04C591.9 155.15 591.57 155.27 591.23 155.39C590.89 155.5 590.55 155.62 590.22 155.74C589.88 155.85 589.55 155.97 589.21 156.09C589.13 155.96 589.05 155.85 588.98 155.73C588.9 155.62 588.82 155.5 588.74 155.38C588.67 155.27 588.59 155.14 588.51 155.03C588.43 154.91 588.36 154.8 588.27 154.67C588.2 154.56 588.13 154.45 588.05 154.32C587.97 154.21 587.89 154.09 587.82 153.97C587.74 153.85 587.66 153.74 587.58 153.62C587.5 153.5 587.43 153.38 587.35 153.27C587.27 153.15 587.19 153.03 587.11 152.92C587.04 152.8 586.96 152.68 586.88 152.56C586.8 152.45 586.72 152.33 586.65 152.21C586.57 152.09 586.49 151.98 586.41 151.86C586.33 151.74 586.26 151.63 586.18 151.51C586.1 151.39 586.02 151.27 585.94 151.16C585.86 151.04 585.79 150.92 585.71 150.8C585.63 150.69 585.55 150.57 585.47 150.45Z" fill="white"/>
<path d="M595.92 157.07C596.11 157 596.3 156.95 596.49 156.91C596.69 156.88 596.88 156.85 597.07 156.84C597.45 156.82 597.83 156.85 598.18 156.92C598.53 156.99 598.85 157.11 599.14 157.28C599.27 157.36 599.39 157.45 599.51 157.56C599.62 157.65 599.72 157.77 599.8 157.89C599.88 158.01 599.94 158.13 599.99 158.26C600.03 158.39 600.04 158.52 600.04 158.65C600.05 158.91 599.98 159.16 599.83 159.41C599.7 159.65 599.49 159.88 599.23 160.09C599.09 160.18 598.95 160.27 598.79 160.36C598.62 160.44 598.45 160.52 598.26 160.58C598.08 160.65 597.88 160.7 597.69 160.73C597.5 160.77 597.3 160.8 597.11 160.81C596.73 160.83 596.35 160.8 596 160.73C595.65 160.66 595.33 160.53 595.05 160.37C594.91 160.29 594.79 160.2 594.67 160.09C594.56 159.99 594.47 159.88 594.39 159.76C594.3 159.63 594.25 159.51 594.2 159.38C594.16 159.25 594.15 159.12 594.14 159C594.14 158.74 594.21 158.49 594.36 158.24C594.49 158 594.7 157.77 594.96 157.57C595.1 157.46 595.24 157.38 595.4 157.29C595.57 157.21 595.74 157.13 595.92 157.07ZM596.33 157.69C596.1 157.77 595.88 157.89 595.71 158.01C595.54 158.14 595.41 158.29 595.32 158.45C595.23 158.61 595.18 158.78 595.19 158.94C595.19 159.11 595.24 159.27 595.34 159.43C595.45 159.59 595.59 159.72 595.77 159.82C595.95 159.93 596.16 160.01 596.39 160.06C596.61 160.11 596.86 160.12 597.11 160.11C597.35 160.09 597.6 160.05 597.85 159.96C598.09 159.88 598.3 159.76 598.47 159.64C598.65 159.51 598.77 159.36 598.87 159.2C598.96 159.04 599.01 158.88 599 158.71C599 158.55 598.95 158.37 598.84 158.23C598.74 158.06 598.59 157.93 598.41 157.83C598.24 157.72 598.03 157.64 597.79 157.59C597.57 157.54 597.32 157.52 597.08 157.54C596.83 157.56 596.58 157.6 596.33 157.69Z" fill="white"/>
<path d="M595.22 155.7C595.54 155.59 595.88 155.5 596.22 155.43C596.56 155.37 596.9 155.32 597.23 155.31C597.58 155.28 597.9 155.29 598.23 155.3C598.56 155.33 598.89 155.38 599.2 155.44C599.5 155.51 599.81 155.6 600.08 155.7C600.37 155.8 600.63 155.93 600.87 156.08C601.12 156.21 601.35 156.39 601.54 156.56C601.74 156.74 601.91 156.94 602.06 157.15C602.21 157.38 602.33 157.63 602.39 157.86C602.46 158.1 602.49 158.34 602.49 158.59C602.48 158.83 602.44 159.08 602.36 159.31C602.28 159.55 602.16 159.79 602.02 160.01C601.8 159.83 601.6 159.63 601.39 159.44C601.46 159.28 601.52 159.12 601.54 158.95C601.58 158.79 601.58 158.63 601.57 158.46C601.56 158.29 601.53 158.13 601.48 157.96C601.42 157.8 601.34 157.64 601.24 157.49C601.11 157.31 600.98 157.15 600.81 157C600.65 156.86 600.47 156.72 600.27 156.61C600.08 156.49 599.86 156.39 599.63 156.3C599.4 156.22 599.16 156.15 598.91 156.1C598.66 156.04 598.4 156 598.13 155.99C597.86 155.97 597.6 155.96 597.32 155.98C597.05 156 596.77 156.03 596.49 156.08C596.22 156.14 595.94 156.21 595.68 156.31C595.41 156.4 595.16 156.5 594.93 156.62C594.7 156.74 594.49 156.88 594.31 157.02C594.12 157.17 593.94 157.31 593.8 157.48C593.65 157.64 593.53 157.81 593.43 157.99C593.33 158.16 593.25 158.34 593.2 158.52C593.15 158.71 593.13 158.88 593.13 159.07C593.13 159.25 593.16 159.44 593.22 159.62C593.27 159.8 593.36 159.98 593.47 160.15C593.58 160.33 593.73 160.49 593.89 160.64C594.05 160.78 594.23 160.91 594.42 161.03C594.62 161.14 594.84 161.25 595.07 161.34C595.3 161.42 595.53 161.49 595.79 161.54C596.04 161.6 596.3 161.64 596.56 161.65C596.83 161.67 597.1 161.67 597.38 161.66C597.65 161.64 597.93 161.61 598.21 161.56C598.48 161.51 598.75 161.43 599.02 161.34C599.23 161.27 599.44 161.18 599.63 161.09C599.82 161 600 160.9 600.16 160.79C600.34 160.95 600.51 161.11 600.69 161.27C600.49 161.4 600.28 161.51 600.06 161.62C599.83 161.72 599.59 161.83 599.34 161.91C599.01 162.02 598.66 162.11 598.33 162.18C597.99 162.24 597.65 162.29 597.31 162.3C596.97 162.33 596.64 162.32 596.3 162.29C595.98 162.27 595.65 162.23 595.34 162.16C595.04 162.09 594.74 162.01 594.46 161.9C594.17 161.79 593.91 161.67 593.67 161.53C593.42 161.38 593.2 161.22 593.01 161.04C592.8 160.86 592.63 160.66 592.5 160.45C592.35 160.23 592.25 160.02 592.17 159.79C592.11 159.57 592.07 159.34 592.07 159.11C592.07 158.89 592.1 158.66 592.16 158.43C592.23 158.21 592.32 157.99 592.44 157.78C592.56 157.56 592.72 157.35 592.9 157.15C593.08 156.95 593.28 156.76 593.52 156.59C593.75 156.41 594.01 156.25 594.29 156.1C594.58 155.95 594.89 155.82 595.22 155.7Z" fill="white"/>
<path d="M598.98 158.22C599.26 158.12 599.55 158.03 599.83 157.93C599.92 158.07 600.02 158.21 600.11 158.35C600.21 158.5 600.3 158.64 600.4 158.79C600.49 158.93 600.59 159.07 600.68 159.22C600.78 159.36 600.88 159.51 600.97 159.65C600.69 159.75 600.4 159.85 600.13 159.95C600.03 159.8 599.94 159.66 599.84 159.52C599.74 159.37 599.65 159.23 599.55 159.08C599.45 158.94 599.36 158.79 599.26 158.65C599.17 158.5 599.07 158.36 598.98 158.22Z" fill="white"/>
<path d="M611.22 134.5C611.46 134.42 611.7 134.34 611.94 134.27C612.18 134.2 612.43 134.15 612.67 134.09C612.92 134.05 613.17 134 613.41 133.97C613.65 133.94 613.9 133.91 614.15 133.89C614.39 133.87 614.64 133.87 614.88 133.87C615.13 133.87 615.36 133.87 615.6 133.89C615.84 133.9 616.08 133.93 616.31 133.96C616.54 133.99 616.78 134.03 617 134.08C617.22 134.13 617.45 134.18 617.67 134.25C617.88 134.31 618.09 134.37 618.3 134.46C618.51 134.53 618.7 134.61 618.91 134.7C619.1 134.8 619.28 134.9 619.47 135C619.65 135.1 619.81 135.21 619.98 135.34C620.14 135.45 620.3 135.58 620.45 135.71C620.6 135.84 620.73 135.98 620.86 136.12C620.99 136.27 621.11 136.42 621.22 136.58C621.36 136.8 621.48 137.02 621.58 137.24C621.68 137.46 621.75 137.69 621.79 137.91C621.85 138.14 621.88 138.37 621.88 138.6C621.88 138.83 621.86 139.06 621.81 139.28C621.78 139.52 621.71 139.74 621.63 139.97C621.55 140.19 621.44 140.41 621.32 140.62C621.19 140.84 621.04 141.05 620.88 141.26C620.72 141.47 620.54 141.66 620.33 141.86C620.22 141.69 620.11 141.53 620 141.37C619.89 141.21 619.79 141.04 619.68 140.88C619.57 140.72 619.46 140.56 619.35 140.39C619.24 140.23 619.13 140.08 619.01 139.91C618.9 139.75 618.79 139.58 618.68 139.43C618.57 139.26 618.46 139.1 618.35 138.93C618.24 138.78 618.14 138.61 618.03 138.45C617.92 138.28 617.81 138.13 617.7 137.97C617.6 137.82 617.47 137.68 617.34 137.55C617.19 137.43 617.04 137.31 616.87 137.22C616.7 137.12 616.51 137.03 616.32 136.96C616.12 136.89 615.92 136.82 615.71 136.78C615.49 136.74 615.27 136.71 615.04 136.7C614.82 136.68 614.58 136.67 614.35 136.69C614.12 136.7 613.89 136.74 613.65 136.78C613.42 136.83 613.19 136.9 612.96 136.98C612.74 137.06 612.53 137.16 612.34 137.25C612.14 137.36 611.97 137.48 611.81 137.6C611.65 137.72 611.51 137.86 611.38 138C611.26 138.13 611.16 138.29 611.08 138.43C611 138.58 610.94 138.74 610.9 138.9C610.86 139.05 610.84 139.21 610.84 139.37C610.85 139.52 610.88 139.68 610.92 139.83C610.98 139.99 611.05 140.15 611.15 140.3C611.26 140.45 611.37 140.62 611.49 140.79C611.6 140.95 611.71 141.11 611.82 141.27C611.92 141.44 612.03 141.6 612.14 141.76C612.25 141.93 612.36 142.09 612.47 142.25C612.58 142.42 612.69 142.58 612.81 142.74C612.92 142.9 613.03 143.07 613.14 143.23C613.25 143.39 613.36 143.56 613.47 143.73C613.58 143.88 613.69 144.05 613.8 144.21C613.46 144.22 613.12 144.2 612.79 144.17C612.46 144.14 612.13 144.1 611.82 144.04C611.5 143.98 611.19 143.91 610.89 143.82C610.59 143.73 610.29 143.63 610.01 143.52C609.74 143.4 609.47 143.27 609.21 143.12C608.97 142.99 608.72 142.83 608.5 142.67C608.28 142.5 608.08 142.31 607.89 142.11C607.7 141.93 607.53 141.72 607.39 141.5C607.29 141.34 607.19 141.18 607.11 141.03C607.04 140.86 606.97 140.71 606.92 140.54C606.86 140.38 606.82 140.2 606.79 140.04C606.76 139.88 606.74 139.71 606.74 139.54C606.74 139.38 606.75 139.21 606.76 139.04C606.79 138.88 606.82 138.71 606.86 138.55C606.9 138.38 606.95 138.22 607.02 138.06C607.09 137.89 607.16 137.73 607.25 137.57C607.34 137.42 607.43 137.26 607.54 137.11C607.65 136.96 607.76 136.81 607.89 136.65C608.02 136.51 608.16 136.36 608.31 136.23C608.46 136.09 608.61 135.95 608.78 135.82C608.95 135.69 609.12 135.56 609.31 135.44C609.49 135.32 609.69 135.2 609.89 135.09C610.1 134.98 610.31 134.88 610.53 134.78C610.75 134.67 610.98 134.59 611.22 134.5Z" fill="white"/>
<path d="M621.48 130.81C621.72 130.72 621.97 130.64 622.2 130.57C622.45 130.51 622.7 130.45 622.95 130.4C623.2 130.34 623.44 130.31 623.69 130.27C623.94 130.24 624.18 130.21 624.43 130.19C624.68 130.18 624.92 130.17 625.18 130.17C625.41 130.17 625.66 130.18 625.9 130.19C626.15 130.21 626.39 130.24 626.62 130.27C626.86 130.3 627.09 130.34 627.32 130.39C627.55 130.43 627.77 130.49 627.99 130.56C628.21 130.62 628.43 130.69 628.64 130.76C628.85 130.85 629.05 130.93 629.25 131.02C629.44 131.11 629.64 131.21 629.81 131.32C630 131.43 630.18 131.54 630.34 131.67C630.51 131.78 630.67 131.91 630.81 132.04C630.96 132.18 631.11 132.32 631.23 132.47C631.36 132.61 631.49 132.77 631.6 132.93C631.74 133.15 631.87 133.37 631.97 133.59C632.07 133.82 632.14 134.06 632.2 134.28C632.25 134.52 632.27 134.75 632.28 134.98C632.28 135.22 632.27 135.45 632.23 135.67C632.18 135.91 632.13 136.14 632.05 136.37C631.96 136.59 631.86 136.82 631.74 137.03C631.61 137.26 631.46 137.48 631.3 137.68C631.14 137.89 630.95 138.09 630.75 138.28C630.64 138.13 630.52 137.96 630.41 137.79C630.3 137.62 630.19 137.46 630.08 137.3C629.96 137.13 629.85 136.97 629.73 136.8C629.62 136.64 629.51 136.48 629.4 136.31C629.29 136.14 629.18 135.99 629.06 135.82C628.95 135.65 628.84 135.48 628.73 135.33C628.62 135.16 628.51 134.99 628.4 134.83C628.28 134.67 628.16 134.5 628.05 134.34V134.33C627.94 134.18 627.83 134.04 627.69 133.92C627.54 133.79 627.38 133.67 627.21 133.57C627.04 133.47 626.85 133.38 626.66 133.31C626.46 133.23 626.25 133.18 626.02 133.13C625.81 133.09 625.59 133.05 625.36 133.04C625.13 133.02 624.89 133.02 624.67 133.04C624.43 133.05 624.19 133.08 623.96 133.13C623.72 133.18 623.49 133.25 623.26 133.33C623.04 133.41 622.83 133.5 622.63 133.61C622.44 133.72 622.26 133.83 622.1 133.96C621.94 134.08 621.8 134.22 621.68 134.36C621.56 134.5 621.46 134.65 621.37 134.8C621.29 134.95 621.23 135.11 621.18 135.27C621.15 135.43 621.13 135.59 621.13 135.75C621.14 135.91 621.17 136.07 621.22 136.23C621.27 136.38 621.36 136.54 621.46 136.69C621.57 136.86 621.68 137.02 621.79 137.19C621.91 137.36 622.02 137.52 622.13 137.69C622.24 137.86 622.35 138.02 622.47 138.18C622.58 138.35 622.7 138.52 622.81 138.68C622.92 138.85 623.04 139.02 623.15 139.19C623.26 139.34 623.37 139.51 623.48 139.68C623.59 139.84 623.71 140.01 623.82 140.18C623.94 140.35 624.05 140.51 624.16 140.67C623.82 140.68 623.48 140.66 623.14 140.63C622.81 140.61 622.48 140.56 622.16 140.5C621.84 140.44 621.52 140.36 621.21 140.27C620.91 140.19 620.62 140.08 620.33 139.96C620.05 139.84 619.77 139.72 619.52 139.57C619.27 139.43 619.03 139.26 618.8 139.09C618.57 138.92 618.36 138.74 618.18 138.54C617.98 138.35 617.82 138.13 617.66 137.92C617.55 137.76 617.46 137.6 617.38 137.43C617.29 137.27 617.23 137.1 617.17 136.94C617.12 136.77 617.08 136.6 617.05 136.43C617.02 136.26 617 136.1 617 135.92C616.98 135.76 616.99 135.59 617.01 135.42C617.03 135.25 617.06 135.08 617.1 134.91C617.14 134.75 617.2 134.58 617.26 134.42C617.32 134.25 617.4 134.09 617.48 133.92C617.57 133.76 617.67 133.61 617.78 133.45C617.89 133.3 618.01 133.15 618.13 133C618.26 132.84 618.4 132.7 618.55 132.56C618.69 132.42 618.86 132.27 619.02 132.14C619.19 132.01 619.37 131.88 619.56 131.76C619.75 131.64 619.94 131.52 620.15 131.41C620.35 131.29 620.57 131.18 620.79 131.09C621.01 130.99 621.24 130.89 621.48 130.81Z" fill="white"/>
<path d="M607.41 141.53C607.72 141.42 608.03 141.32 608.33 141.21C608.64 141.1 608.95 140.99 609.26 140.89C609.56 140.77 609.88 140.66 610.18 140.55C610.49 140.44 610.79 140.33 611.11 140.23C611.2 140.36 611.29 140.5 611.38 140.63C611.47 140.77 611.56 140.9 611.65 141.04C611.75 141.17 611.84 141.31 611.93 141.45C612.03 141.59 612.12 141.72 612.21 141.86C612.3 141.99 612.39 142.13 612.48 142.26C612.57 142.4 612.66 142.53 612.76 142.66C612.85 142.81 612.94 142.95 613.04 143.08C613.13 143.22 613.21 143.35 613.3 143.48C613.4 143.62 613.49 143.76 613.58 143.89C613.67 144.03 613.77 144.17 613.86 144.3C613.95 144.44 614.04 144.57 614.13 144.71C614.22 144.84 614.31 144.98 614.41 145.11C614.5 145.25 614.59 145.39 614.68 145.53C614.78 145.66 614.87 145.8 614.96 145.93C615.05 146.07 615.14 146.2 615.23 146.34C615.32 146.47 615.41 146.61 615.51 146.75C615.19 146.86 614.89 146.97 614.57 147.07C614.27 147.18 613.96 147.29 613.65 147.4C613.34 147.5 613.03 147.61 612.73 147.73C612.42 147.84 612.11 147.95 611.8 148.05C611.7 147.92 611.61 147.78 611.52 147.64C611.43 147.5 611.34 147.37 611.25 147.23C611.16 147.1 611.07 146.96 610.98 146.83C610.88 146.69 610.79 146.56 610.7 146.43C610.61 146.28 610.51 146.14 610.43 146.01C610.34 145.88 610.25 145.74 610.15 145.61C610.06 145.47 609.97 145.34 609.88 145.2C609.79 145.07 609.69 144.93 609.61 144.79C609.52 144.65 609.43 144.52 609.33 144.38C609.24 144.25 609.15 144.11 609.06 143.98C608.96 143.84 608.87 143.71 608.78 143.57C608.69 143.44 608.6 143.3 608.51 143.16C608.42 143.03 608.33 142.89 608.23 142.75C608.14 142.62 608.05 142.49 607.96 142.35C607.87 142.22 607.77 142.08 607.69 141.95C607.6 141.81 607.51 141.67 607.41 141.53Z" fill="white"/>
<path d="M617.65 137.9C617.96 137.79 618.26 137.67 618.58 137.56C618.88 137.46 619.19 137.35 619.49 137.24C619.81 137.12 620.11 137.01 620.42 136.91C620.72 136.8 621.04 136.69 621.34 136.57C621.43 136.71 621.53 136.85 621.62 136.99C621.72 137.12 621.81 137.26 621.9 137.39C621.99 137.53 622.08 137.66 622.17 137.8C622.27 137.94 622.36 138.08 622.46 138.21C622.55 138.35 622.64 138.48 622.74 138.62C622.82 138.75 622.91 138.89 623.01 139.03C623.1 139.17 623.2 139.31 623.29 139.44C623.38 139.58 623.48 139.71 623.57 139.85C623.65 139.98 623.75 140.13 623.84 140.26C623.94 140.4 624.03 140.53 624.12 140.67C624.22 140.8 624.31 140.94 624.4 141.08C624.49 141.22 624.58 141.35 624.68 141.49C624.77 141.62 624.86 141.76 624.96 141.89C625.05 142.03 625.14 142.17 625.24 142.31C625.32 142.44 625.42 142.58 625.51 142.72C625.6 142.85 625.7 142.99 625.79 143.13C625.48 143.24 625.17 143.34 624.86 143.45C624.55 143.56 624.24 143.67 623.93 143.78C623.62 143.89 623.32 144 623.01 144.11C622.7 144.21 622.39 144.32 622.08 144.44C621.99 144.29 621.89 144.16 621.8 144.02C621.71 143.89 621.62 143.75 621.53 143.62C621.44 143.48 621.34 143.34 621.25 143.2C621.16 143.07 621.06 142.93 620.97 142.8C620.88 142.66 620.79 142.53 620.7 142.39C620.6 142.25 620.51 142.11 620.42 141.98C620.32 141.84 620.23 141.71 620.14 141.57C620.04 141.44 619.95 141.3 619.87 141.16C619.77 141.02 619.68 140.89 619.59 140.75C619.49 140.62 619.4 140.48 619.31 140.35C619.21 140.21 619.13 140.08 619.04 139.94C618.94 139.8 618.85 139.66 618.76 139.53C618.66 139.39 618.57 139.26 618.48 139.12C618.38 138.99 618.29 138.85 618.21 138.71C618.11 138.57 618.02 138.44 617.93 138.3C617.83 138.17 617.74 138.03 617.65 137.9Z" fill="white"/>
<path d="M609.28 158.47C608.99 158.57 608.7 158.66 608.4 158.72C608.11 158.78 607.82 158.83 607.53 158.86C607.24 158.89 606.95 158.9 606.67 158.9C606.4 158.89 606.12 158.87 605.86 158.83C605.6 158.79 605.36 158.74 605.12 158.67C604.9 158.6 604.68 158.52 604.48 158.42C604.29 158.33 604.11 158.21 603.95 158.08C603.8 157.95 603.67 157.81 603.56 157.65C603.43 157.44 603.34 157.21 603.31 156.99C603.28 156.76 603.31 156.52 603.39 156.29C603.46 156.05 603.59 155.82 603.76 155.59C603.92 155.36 604.14 155.14 604.4 154.94C604.51 155.1 604.61 155.25 604.72 155.41C604.83 155.58 604.93 155.73 605.04 155.89C605.15 156.06 605.25 156.22 605.36 156.38C605.47 156.54 605.58 156.7 605.69 156.86C605.79 157.01 605.94 157.13 606.12 157.22C606.31 157.32 606.53 157.38 606.77 157.42C607.02 157.45 607.29 157.45 607.56 157.43C607.84 157.4 608.13 157.33 608.41 157.24C608.68 157.15 608.92 157.03 609.13 156.89C609.33 156.75 609.49 156.6 609.61 156.44C609.73 156.28 609.8 156.11 609.81 155.95C609.83 155.79 609.79 155.62 609.69 155.47C609.58 155.32 609.47 155.15 609.36 154.98C609.26 154.82 609.15 154.66 609.04 154.5C608.93 154.33 608.81 154.18 608.7 154.01C608.6 153.84 608.49 153.68 608.38 153.52C608.78 153.5 609.16 153.51 609.53 153.56C609.89 153.6 610.24 153.67 610.55 153.78C610.86 153.88 611.15 154.01 611.39 154.17C611.63 154.35 611.82 154.53 611.97 154.75C612.08 154.91 612.15 155.07 612.19 155.24C612.24 155.4 612.25 155.58 612.23 155.75C612.22 155.92 612.18 156.1 612.11 156.27C612.04 156.45 611.94 156.61 611.81 156.78C611.69 156.95 611.54 157.12 611.37 157.27C611.21 157.43 611.02 157.59 610.8 157.73C610.59 157.87 610.35 158.01 610.1 158.14C609.85 158.26 609.58 158.37 609.28 158.47Z" fill="white"/>
<path d="M605.56 156.72C605.2 156.83 604.84 156.96 604.5 157.08C604.14 157.21 603.79 157.32 603.43 157.45C603.34 157.31 603.25 157.18 603.16 157.05C603.06 156.91 602.98 156.77 602.89 156.63C602.8 156.5 602.71 156.36 602.62 156.23C602.53 156.09 602.44 155.96 602.35 155.82C602.25 155.69 602.16 155.56 602.07 155.42C601.99 155.28 601.9 155.14 601.81 155.01C601.72 154.87 601.63 154.74 601.54 154.6C601.44 154.47 601.35 154.33 601.26 154.2C601.62 154.07 601.97 153.96 602.33 153.83C602.68 153.71 603.03 153.59 603.38 153.46C603.48 153.6 603.57 153.74 603.66 153.87C603.75 154.01 603.84 154.14 603.93 154.28C604.02 154.41 604.1 154.54 604.2 154.68C604.29 154.81 604.38 154.95 604.47 155.09C604.56 155.23 604.65 155.36 604.74 155.5C604.84 155.63 604.93 155.77 605.02 155.9C605.1 156.04 605.19 156.17 605.28 156.3C605.37 156.44 605.46 156.58 605.56 156.72Z" fill="white"/>
<path d="M611.92 154.68C611.74 154.74 611.56 154.81 611.36 154.88C611.18 154.94 611 155 610.8 155.07C610.62 155.14 610.44 155.2 610.25 155.26C610.06 155.32 609.88 155.39 609.69 155.46C609.6 155.31 609.5 155.17 609.4 155.02C609.3 154.88 609.21 154.74 609.11 154.59C609.01 154.45 608.92 154.3 608.82 154.16C608.72 154.01 608.63 153.87 608.53 153.72C608.43 153.58 608.33 153.44 608.24 153.29C608.14 153.15 608.05 153 607.96 152.86C607.86 152.71 607.76 152.57 607.67 152.42C607.57 152.28 607.47 152.13 607.38 151.99C607.56 151.93 607.74 151.86 607.93 151.8C608.12 151.73 608.3 151.67 608.49 151.61C608.67 151.54 608.86 151.47 609.04 151.41C609.23 151.35 609.42 151.28 609.6 151.21C609.7 151.36 609.79 151.5 609.89 151.65C609.99 151.79 610.09 151.93 610.18 152.08C610.28 152.22 610.38 152.37 610.47 152.51C610.57 152.66 610.67 152.8 610.77 152.95C610.86 153.09 610.96 153.24 611.06 153.38C611.15 153.52 611.25 153.67 611.34 153.81C611.44 153.96 611.53 154.1 611.63 154.25C611.73 154.39 611.83 154.54 611.92 154.68Z" fill="white"/>
<path d="M627.99 134.19C628.29 134.09 628.59 133.98 628.89 133.87C629.19 133.77 629.48 133.65 629.79 133.55C630.09 133.45 630.38 133.33 630.68 133.23C630.99 133.12 631.28 133.01 631.58 132.91C631.68 133.04 631.77 133.18 631.86 133.31C631.95 133.46 632.05 133.59 632.14 133.73C632.24 133.87 632.33 134 632.43 134.14C632.52 134.27 632.61 134.41 632.7 134.55C632.79 134.69 632.89 134.82 632.98 134.96C633.08 135.09 633.17 135.23 633.27 135.37C633.36 135.51 633.45 135.64 633.54 135.78C633.64 135.92 633.73 136.05 633.83 136.2C633.92 136.33 634.02 136.47 634.11 136.6C634.2 136.74 634.29 136.87 634.38 137.01C634.48 137.15 634.57 137.29 634.67 137.43C634.76 137.56 634.86 137.7 634.95 137.83C635.04 137.98 635.13 138.11 635.23 138.25C635.32 138.38 635.42 138.52 635.51 138.66C635.61 138.8 635.7 138.93 635.79 139.07C635.88 139.2 635.97 139.34 636.07 139.48C635.77 139.59 635.47 139.69 635.17 139.8C634.87 139.91 634.57 140.01 634.26 140.12C633.97 140.23 633.67 140.33 633.37 140.44C633.07 140.55 632.76 140.66 632.47 140.76C632.38 140.62 632.28 140.49 632.19 140.35C632.09 140.21 632 140.07 631.9 139.94C631.81 139.8 631.73 139.67 631.63 139.53C631.54 139.4 631.44 139.25 631.35 139.12C631.25 138.98 631.16 138.84 631.06 138.71C630.97 138.57 630.89 138.43 630.79 138.29C630.7 138.16 630.6 138.02 630.51 137.89C630.41 137.75 630.32 137.62 630.22 137.47C630.14 137.34 630.05 137.2 629.95 137.07C629.86 136.93 629.76 136.79 629.67 136.66C629.58 136.52 629.48 136.38 629.39 136.24C629.3 136.11 629.21 135.97 629.11 135.84C629.02 135.7 628.92 135.56 628.83 135.42C628.74 135.29 628.64 135.15 628.56 135.02C628.46 134.88 628.37 134.75 628.27 134.6C628.18 134.46 628.08 134.33 627.99 134.19Z" fill="white"/>
<path d="M619.37 147.8C619.55 147.74 619.74 147.67 619.92 147.61C620.11 147.54 620.29 147.47 620.48 147.41C620.67 147.35 620.85 147.28 621.04 147.22C621.22 147.15 621.41 147.08 621.59 147.02C621.68 147.14 621.76 147.26 621.84 147.38C621.92 147.51 622.01 147.63 622.09 147.75C622.17 147.88 622.25 148 622.33 148.11C622.42 148.24 622.5 148.36 622.59 148.48C622.66 148.61 622.74 148.73 622.83 148.85C622.91 148.97 623 149.09 623.07 149.21C623.16 149.34 623.24 149.46 623.32 149.58C623.41 149.7 623.48 149.82 623.57 149.94C623.65 150.07 623.74 150.19 623.82 150.31C623.9 150.44 623.98 150.55 624.06 150.67C624.15 150.8 624.23 150.92 624.31 151.04C624.39 151.17 624.48 151.29 624.56 151.41C624.64 151.53 624.72 151.65 624.8 151.78C624.89 151.9 624.97 152.02 625.05 152.14C625.13 152.26 625.21 152.38 625.3 152.51C625.38 152.63 625.46 152.75 625.54 152.88C625.36 152.94 625.17 153 624.98 153.06C624.8 153.14 624.61 153.2 624.43 153.26C624.24 153.32 624.05 153.4 623.87 153.46C623.67 153.52 623.49 153.58 623.31 153.65C623.22 153.53 623.14 153.41 623.06 153.29C622.98 153.16 622.9 153.04 622.81 152.92C622.73 152.79 622.65 152.68 622.57 152.56C622.49 152.43 622.4 152.31 622.32 152.19C622.24 152.06 622.16 151.95 622.08 151.82C621.99 151.7 621.91 151.58 621.83 151.46C621.75 151.33 621.67 151.21 621.58 151.09C621.5 150.97 621.42 150.85 621.34 150.72C621.25 150.6 621.17 150.48 621.09 150.36C621.01 150.24 620.93 150.12 620.85 149.99C620.76 149.87 620.68 149.75 620.6 149.63C620.52 149.51 620.43 149.39 620.35 149.26C620.27 149.14 620.19 149.02 620.11 148.9C620.02 148.77 619.94 148.66 619.85 148.53C619.78 148.41 619.7 148.29 619.61 148.16C619.53 148.04 619.44 147.93 619.37 147.8Z" fill="white"/>
<path d="M623.87 146.31C623.59 146.38 623.31 146.49 623.04 146.63C622.79 146.77 622.55 146.94 622.35 147.11C622.14 147.29 621.98 147.47 621.88 147.65C621.54 148.22 622.32 148.61 622.8 149.02C622.92 149.12 623.03 149.22 623.15 149.32C623.14 149.21 623.14 149.08 623.17 148.93C623.21 148.79 623.27 148.65 623.38 148.5C623.5 148.35 623.65 148.2 623.88 148.05C624.11 147.9 624.39 147.76 624.77 147.63C624.62 147.41 624.47 147.19 624.31 146.97C624.17 146.75 624.02 146.53 623.87 146.31Z" fill="white"/>
<path d="M602.01 160.02C601.92 160.18 601.55 160.33 601.17 160.36C600.97 160.38 600.77 160.35 600.59 160.3C600.41 160.23 600.24 160.11 600.13 159.95C600.4 159.85 600.69 159.75 600.97 159.65C601.04 159.75 601.19 159.8 601.41 159.42C601.66 159.5 602.15 159.77 602.01 160.02Z" fill="white"/>
<rect x="621.261" y="147.661" width="0.642058" height="2.46151" transform="rotate(-33.8904 621.261 147.661)" fill="white"/>
<path d="M550.213 374.733C548.886 375.142 547.559 375.551 546.231 375.96C552.188 390.756 558.373 405.657 564.788 420.661C560.265 422.046 555.737 423.428 551.204 424.806C543.782 407.265 536.786 389.897 530.217 372.703C537.631 370.43 545.035 368.154 552.431 365.875C577.737 377.46 603.076 389.127 628.45 400.875C623.971 402.279 619.492 403.68 615.014 405.077C593.358 394.907 571.758 384.793 550.213 374.733ZM547.102 403.173C562.361 398.591 577.544 393.979 592.65 389.34C594.928 391.383 597.202 393.427 599.472 395.472C584.392 400.124 569.254 404.751 554.058 409.352C551.726 407.29 549.407 405.23 547.102 403.173Z" fill="#D4D4D4"/>
<defs>
<filter id="filter0_d_3338_1151" x="6.23047" y="170.758" width="518.22" height="264.964" filterUnits="userSpaceOnUse" color-interpolation-filters="sRGB">
<feFlood flood-opacity="0" result="BackgroundImageFix"/>
<feColorMatrix in="SourceAlpha" type="matrix" values="0 0 0 0 0 0 0 0 0 0 0 0 0 0 0 0 0 0 127 0" result="hardAlpha"/>
<feOffset dy="14"/>
<feGaussianBlur stdDeviation="7.75"/>
<feComposite in2="hardAlpha" operator="out"/>
<feColorMatrix type="matrix" values="0 0 0 0 0 0 0 0 0 0 0 0 0 0 0 0 0 0 0.25 0"/>
<feBlend mode="normal" in2="BackgroundImageFix" result="effect1_dropShadow_3338_1151"/>
<feBlend mode="normal" in="SourceGraphic" in2="effect1_dropShadow_3338_1151" result="shape"/>
</filter>
<filter id="filter1_i_3338_1151" x="71.0981" y="269.598" width="30.606" height="22.8589" filterUnits="userSpaceOnUse" color-interpolation-filters="sRGB">
<feFlood flood-opacity="0" result="BackgroundImageFix"/>
<feBlend mode="normal" in="SourceGraphic" in2="BackgroundImageFix" result="shape"/>
<feColorMatrix in="SourceAlpha" type="matrix" values="0 0 0 0 0 0 0 0 0 0 0 0 0 0 0 0 0 0 127 0" result="hardAlpha"/>
<feOffset dy="4"/>
<feGaussianBlur stdDeviation="2"/>
<feComposite in2="hardAlpha" operator="arithmetic" k2="-1" k3="1"/>
<feColorMatrix type="matrix" values="0 0 0 0 0 0 0 0 0 0 0 0 0 0 0 0 0 0 0.25 0"/>
<feBlend mode="normal" in2="shape" result="effect1_innerShadow_3338_1151"/>
</filter>
<filter id="filter2_d_3338_1151" x="620.634" y="235.091" width="297.768" height="191.222" filterUnits="userSpaceOnUse" color-interpolation-filters="sRGB">
<feFlood flood-opacity="0" result="BackgroundImageFix"/>
<feColorMatrix in="SourceAlpha" type="matrix" values="0 0 0 0 0 0 0 0 0 0 0 0 0 0 0 0 0 0 127 0" result="hardAlpha"/>
<feOffset dy="11"/>
<feGaussianBlur stdDeviation="8.1"/>
<feComposite in2="hardAlpha" operator="out"/>
<feColorMatrix type="matrix" values="0 0 0 0 0 0 0 0 0 0 0 0 0 0 0 0 0 0 0.25 0"/>
<feBlend mode="normal" in2="BackgroundImageFix" result="effect1_dropShadow_3338_1151"/>
<feBlend mode="normal" in="SourceGraphic" in2="effect1_dropShadow_3338_1151" result="shape"/>
</filter>
<filter id="filter3_d_3338_1151" x="824.433" y="158.973" width="297.741" height="191.195" filterUnits="userSpaceOnUse" color-interpolation-filters="sRGB">
<feFlood flood-opacity="0" result="BackgroundImageFix"/>
<feColorMatrix in="SourceAlpha" type="matrix" values="0 0 0 0 0 0 0 0 0 0 0 0 0 0 0 0 0 0 127 0" result="hardAlpha"/>
<feOffset dy="11"/>
<feGaussianBlur stdDeviation="8.1"/>
<feComposite in2="hardAlpha" operator="out"/>
<feColorMatrix type="matrix" values="0 0 0 0 0 0 0 0 0 0 0 0 0 0 0 0 0 0 0.25 0"/>
<feBlend mode="normal" in2="BackgroundImageFix" result="effect1_dropShadow_3338_1151"/>
<feBlend mode="normal" in="SourceGraphic" in2="effect1_dropShadow_3338_1151" result="shape"/>
</filter>
<filter id="filter4_d_3338_1151" x="414.924" y="312.121" width="298.552" height="197.066" filterUnits="userSpaceOnUse" color-interpolation-filters="sRGB">
<feFlood flood-opacity="0" result="BackgroundImageFix"/>
<feColorMatrix in="SourceAlpha" type="matrix" values="0 0 0 0 0 0 0 0 0 0 0 0 0 0 0 0 0 0 127 0" result="hardAlpha"/>
<feOffset dy="11"/>
<feGaussianBlur stdDeviation="8.1"/>
<feComposite in2="hardAlpha" operator="out"/>
<feColorMatrix type="matrix" values="0 0 0 0 0 0 0 0 0 0 0 0 0 0 0 0 0 0 0.25 0"/>
<feBlend mode="normal" in2="BackgroundImageFix" result="effect1_dropShadow_3338_1151"/>
<feBlend mode="normal" in="SourceGraphic" in2="effect1_dropShadow_3338_1151" result="shape"/>
</filter>
<filter id="filter5_d_3338_1151" x="413.5" y="49.8833" width="374.902" height="236.652" filterUnits="userSpaceOnUse" color-interpolation-filters="sRGB">
<feFlood flood-opacity="0" result="BackgroundImageFix"/>
<feColorMatrix in="SourceAlpha" type="matrix" values="0 0 0 0 0 0 0 0 0 0 0 0 0 0 0 0 0 0 127 0" result="hardAlpha"/>
<feOffset dy="14"/>
<feGaussianBlur stdDeviation="7.75"/>
<feComposite in2="hardAlpha" operator="out"/>
<feColorMatrix type="matrix" values="0 0 0 0 0 0 0 0 0 0 0 0 0 0 0 0 0 0 0.25 0"/>
<feBlend mode="normal" in2="BackgroundImageFix" result="effect1_dropShadow_3338_1151"/>
<feBlend mode="normal" in="SourceGraphic" in2="effect1_dropShadow_3338_1151" result="shape"/>
</filter>
</defs>
</svg>
