<svg width="193" height="193" viewBox="0 0 193 193" fill="none" xmlns="http://www.w3.org/2000/svg">
<rect y="96.1074" width="135.916" height="137.027" transform="rotate(-45 0 96.1074)" fill="#FFF3C3"/>
<rect x="87.8613" y="118.495" width="33.6288" height="5.92447" rx="2.96223" transform="rotate(-77.7132 87.8613 118.495)" fill="#946E59"/>
<rect x="136.031" y="103.722" width="28.1861" height="6.37271" rx="3.18635" transform="rotate(135.895 136.031 103.722)" fill="#F28277"/>
<rect x="131.933" y="107.901" width="27.4026" height="6.37271" rx="3.18635" transform="rotate(-136.436 131.933 107.901)" fill="#F28277"/>
<rect width="28.1861" height="6.37271" rx="3.18635" transform="matrix(0.718068 0.695973 0.695974 -0.718068 52.0386 103.647)" fill="#F28277"/>
<rect width="27.4026" height="6.37271" rx="3.18635" transform="matrix(0.724608 -0.689162 -0.689162 -0.724608 56.136 107.827)" fill="#F28277"/>
<path d="M91.905 75.2759C90.8212 77.4616 94.5981 80.228 97.1328 80.3878C104.42 81.1865 109.087 77.5124 107.82 66.6497C111.622 53.231 106.975 52.9648 104.176 54.509C101.694 56.7987 101.166 58.1798 100.146 63.295C98.245 64.4132 99.1427 65.8509 98.8786 66.6496C98.8786 66.0639 97.643 64.7646 93.3339 66.1704C87.9477 67.9276 89.215 72.081 90.0071 72.72C90.7992 73.359 92.6971 73.6785 91.905 75.2759Z" fill="#F28277"/>
<path d="M93.762 70.245C92.9422 71.2094 91.9584 77.3177 96.5562 78.1097C107.862 80.5326 106.715 65.5834 105.895 64.4582C105.075 63.3329 100.983 63.1605 101.147 66.0539C101.311 68.9473 100.819 69.5902 99.0156 68.7865C97.5727 68.1435 94.6911 69.2269 93.762 70.245Z" fill="#FF9A4F"/>
<ellipse cx="99.2694" cy="73.7606" rx="2.87442" ry="2.95006" fill="#FEE57E"/>
</svg>
