<svg width="225" height="225" viewBox="0 0 225 225" fill="none" xmlns="http://www.w3.org/2000/svg">
<rect y="111.651" width="157.899" height="159.189" transform="rotate(-45 0 111.651)" fill="#F1EBE1"/>
<path d="M139.142 60.0924C133.995 61.8369 130.636 58.2378 130.059 57.0809C136.794 56.4382 136.632 56.8973 139.142 60.0924C140.316 54.9875 144.727 54.9875 147.033 54.9875C146.239 57.6502 143.494 60.9188 139.142 60.0924Z" fill="#44624A"/>
<path d="M139.142 67.1805V60.0924M139.142 60.0924C133.995 61.8369 130.636 58.2378 130.059 57.0809C136.794 56.4382 136.632 56.8973 139.142 60.0924ZM139.142 60.0924C140.316 54.9875 144.727 54.9875 147.033 54.9875C146.239 57.6502 143.494 60.9188 139.142 60.0924Z" stroke="#44624A" stroke-width="0.3"/>
<path d="M81.2843 93.3244C76.1378 95.0688 72.779 91.4697 72.2012 90.3129C78.9368 89.6702 78.7743 90.1292 81.2843 93.3244C82.4581 88.2195 86.8693 88.2195 89.1757 88.2195C88.3811 90.8821 85.6363 94.1507 81.2843 93.3244Z" fill="#A5D0AE"/>
<path d="M81.2843 100.412V93.3244M81.2843 93.3244C76.1378 95.0688 72.779 91.4697 72.2012 90.3129C78.9368 89.6702 78.7743 90.1292 81.2843 93.3244ZM81.2843 93.3244C82.4581 88.2195 86.8693 88.2195 89.1757 88.2195C88.3811 90.8821 85.6363 94.1507 81.2843 93.3244Z" stroke="#A5D0AE" stroke-width="0.3"/>
<path fill-rule="evenodd" clip-rule="evenodd" d="M114.997 221.78L112.563 224.214L49.4004 161.051C54.1329 150.504 62.4294 144.018 76.8785 144.018C76.8785 144.018 113.743 139.936 114.997 185.397V221.78Z" fill="#95BD91"/>
<circle cx="81.7647" cy="118.582" r="19.3653" fill="#95BD91"/>
<path fill-rule="evenodd" clip-rule="evenodd" d="M177.862 158.916L112.563 224.214L98.7383 210.389V175.343C100.302 118.533 139.078 122.966 139.078 122.966C163.066 122.966 173.455 137.333 177.862 158.916Z" fill="#44624A"/>
<ellipse cx="139.861" cy="91.2079" rx="24.1468" ry="24.0273" fill="#44624A"/>
</svg>
