<svg width="300" height="300" viewBox="0 0 300 300" fill="none" xmlns="http://www.w3.org/2000/svg">
<rect width="211.269" height="212.995" transform="matrix(0.707119 -0.707095 0.707119 0.707095 0 149.385)" fill="#F1EBE1"/>
<path d="M186.178 90.8054C179.292 93.1393 174.797 88.324 174.024 86.7763C183.037 85.9164 182.819 86.5306 186.178 90.8054C187.749 83.9755 193.651 83.9755 196.738 83.9755C195.674 87.5379 192.002 91.911 186.178 90.8054Z" fill="#44624A"/>
<path d="M186.178 100.289V90.8054M186.178 90.8054C179.292 93.1393 174.797 88.324 174.024 86.7763C183.037 85.9164 182.819 86.5306 186.178 90.8054ZM186.178 90.8054C187.749 83.9755 193.651 83.9755 196.738 83.9755C195.674 87.5379 192.002 91.911 186.178 90.8054Z" stroke="#44624A" stroke-width="4"/>
<path d="M108.763 135.268C101.877 137.602 97.3822 132.787 96.609 131.239C105.622 130.379 105.404 130.993 108.763 135.268C110.334 128.438 116.236 128.438 119.322 128.438C118.259 132 114.586 136.374 108.763 135.268Z" fill="#A5D0AE"/>
<path d="M108.763 144.751V135.268M108.763 135.268C101.877 137.602 97.3822 132.787 96.609 131.239C105.622 130.379 105.404 130.993 108.763 135.268ZM108.763 135.268C110.334 128.438 116.236 128.438 119.322 128.438C118.259 132 114.586 136.374 108.763 135.268Z" stroke="#A5D0AE" stroke-width="4"/>
<path d="M102.866 203.095C102.965 203.085 152.195 197.694 153.871 258.458V296.734L150.615 299.99L69.7733 219.153C76.4585 209.065 86.8307 203.095 102.866 203.095Z" fill="#95BD91"/>
<ellipse cx="109.405" cy="169.062" rx="25.9117" ry="25.9099" fill="#95BD91"/>
<path d="M132.118 245.007C134.21 168.998 186.094 174.928 186.094 174.928C214.975 174.928 229.122 190.492 235.963 214.647L150.616 299.99L132.118 281.492V245.007Z" fill="#44624A"/>
<ellipse cx="187.14" cy="132.436" rx="32.3096" ry="32.1474" fill="#44624A"/>
</svg>
