<svg width="300" height="300" viewBox="0 0 300 300" fill="none" xmlns="http://www.w3.org/2000/svg">
<path d="M0 149.39L149.39 0L300 150.61L150.61 300L0 149.39Z" fill="#CCEBFD"/>
<path d="M232.383 218.227L195.297 255.313C145.224 249.621 106.202 203.867 106.202 148.267C106.202 94.2032 143.099 49.4485 191.174 41.7843L224.044 74.6547C186.02 84.6839 158.663 112.615 158.663 145.503C158.663 180.749 190.084 210.302 232.383 218.227Z" fill="#96D5FF"/>
<path d="M168.1 97.5553C166.809 91.7897 173.205 87.3933 178.125 90.6649L216.926 116.466C222.262 120.014 219.862 128.321 213.457 128.477L201.28 128.774C198.684 128.837 196.369 130.428 195.38 132.829L190.739 144.091C188.298 150.014 179.682 149.278 178.282 143.026L168.1 97.5553Z" fill="#3A3A3A"/>
<path d="M73.5738 181.712C73.5738 171.456 81.888 163.142 92.1441 163.142H131.558C141.814 163.142 150.128 171.456 150.128 181.712C150.128 191.968 141.814 200.282 131.558 200.282H92.1441C81.888 200.282 73.5738 191.968 73.5738 181.712Z" fill="#336393"/>
<path d="M141.77 181.566C141.77 186.971 137.388 191.353 131.983 191.353C126.578 191.353 122.196 186.971 122.196 181.566C122.196 176.161 126.578 171.779 131.983 171.779C137.388 171.779 141.77 176.161 141.77 181.566Z" fill="white"/>
</svg>
