<svg width="224" height="224" viewBox="0 0 224 224" fill="none" xmlns="http://www.w3.org/2000/svg">
<path d="M0 111.544L111.544 0L224 112.456L112.456 224L0 111.544Z" fill="#CCEBFD"/>
<path d="M173.513 162.943L145.822 190.634C108.434 186.384 79.2976 152.221 79.2976 110.706C79.2976 70.3384 106.847 36.9216 142.743 31.199L167.287 55.7422C138.895 63.2306 118.469 84.086 118.469 108.642C118.469 134.959 141.93 157.025 173.513 162.943Z" fill="#96D5FF"/>
<path d="M125.515 72.8413C124.55 68.5363 129.327 65.2536 133 67.6965L161.972 86.9614C165.955 89.6103 164.164 95.8128 159.381 95.9294L150.289 96.1512C148.35 96.1985 146.622 97.3861 145.884 99.1791L142.418 107.588C140.595 112.011 134.163 111.461 133.117 106.792L125.515 72.8413Z" fill="#3A3A3A"/>
<path d="M54.9351 135.678C54.9351 128.021 61.143 121.813 68.8009 121.813H98.2296C105.888 121.813 112.095 128.021 112.095 135.678C112.095 143.336 105.888 149.544 98.2296 149.544H68.8009C61.1431 149.544 54.9351 143.336 54.9351 135.678Z" fill="#336393"/>
<path d="M105.855 135.569C105.855 139.605 102.583 142.877 98.5475 142.877C94.5117 142.877 91.24 139.605 91.24 135.569C91.24 131.533 94.5117 128.262 98.5475 128.262C102.583 128.262 105.855 131.533 105.855 135.569Z" fill="white"/>
</svg>
