<svg width="176" height="121" viewBox="0 0 176 121" fill="none" xmlns="http://www.w3.org/2000/svg">
<rect x="53.6265" y="0.869141" width="2.51375" height="26.1032" fill="#102D39"/>
<path d="M56.1238 48.6987C7.83774 35.43 24.6239 31.8891 51.994 32.2825C26.0952 29.8306 17.5513 32.098 9.98819 33.197C-13.0865 36.5501 19.2954 49.1556 36.8211 53.7965C77.3139 64.5194 111.093 68.3219 134.738 68.0493C158.382 67.7768 171.46 65.3414 173.817 60.4129C176.175 55.4844 148.251 46.2938 124.187 42.791C192 59.7935 116.824 59.7308 100.642 57.3754C93.1742 56.2883 83.0467 56.097 56.1238 48.6987Z" fill="#102D39"/>
<path fill-rule="evenodd" clip-rule="evenodd" d="M113.095 69.0605L98.6808 118.469H110.412L124.396 69.9309C120.782 69.7292 117.013 69.4412 113.095 69.0605ZM127.701 58.4603C123.759 58.4729 119.848 58.3899 116.253 58.2353L116.728 56.6069L130.715 48L127.701 58.4603Z" fill="#102D39"/>
<path d="M113.095 69.0605L113.251 67.4527L111.919 67.3232L111.544 68.6081L113.095 69.0605ZM98.6808 118.469L97.13 118.016L96.5268 120.084H98.6808V118.469ZM110.412 118.469V120.084H111.627L111.964 118.916L110.412 118.469ZM124.396 69.9309L125.949 70.3782L126.51 68.431L124.486 68.3181L124.396 69.9309ZM127.701 58.4603L127.706 60.0757L128.918 60.0718L129.253 58.9075L127.701 58.4603ZM116.253 58.2353L114.702 57.7829L114.125 59.7606L116.184 59.8492L116.253 58.2353ZM116.728 56.6069L115.882 55.2311L115.352 55.5572L115.177 56.1545L116.728 56.6069ZM130.715 48L132.267 48.4473L133.423 44.4371L129.868 46.6243L130.715 48ZM111.544 68.6081L97.13 118.016L100.232 118.921L114.646 69.5129L111.544 68.6081ZM98.6808 120.084H110.412V116.853H98.6808V120.084ZM111.964 118.916L125.949 70.3782L122.844 69.4837L108.859 118.022L111.964 118.916ZM112.939 70.6683C116.878 71.0511 120.669 71.3407 124.306 71.5438L124.486 68.3181C120.895 68.1176 117.148 67.8313 113.251 67.4527L112.939 70.6683ZM127.696 56.8449C123.779 56.8575 119.893 56.7749 116.323 56.6214L116.184 59.8492C119.803 60.0048 123.739 60.0884 127.706 60.0757L127.696 56.8449ZM115.177 56.1545L114.702 57.7829L117.804 58.6877L118.279 57.0593L115.177 56.1545ZM129.868 46.6243L115.882 55.2311L117.575 57.9827L131.562 49.3758L129.868 46.6243ZM129.253 58.9075L132.267 48.4473L129.163 47.5528L126.149 58.0131L129.253 58.9075ZM70.5159 31.7961L77.1243 53.4297L80.2141 52.4858L73.6057 30.8523L70.5159 31.7961ZM80.6771 65.0604L97.1359 118.941L100.226 117.997L83.7669 64.1166L80.6771 65.0604Z" fill="#102D39"/>
<path fill-rule="evenodd" clip-rule="evenodd" d="M100.028 56.8382C100.933 53.1383 101.415 49.2528 101.415 45.2456C101.415 20.2571 82.658 0 59.5195 0C50.9036 0 52.7705 1.06649 58.508 4.34411C68.179 9.86872 88.8468 21.6754 88.8468 45.2456C88.8468 48.958 88.3341 52.3785 87.4324 55.5287C88.8792 55.7031 90.1888 55.8648 91.4255 56.052C93.4798 56.363 96.4849 56.6355 100.028 56.8382ZM96.8799 65.7423C92.6591 65.3152 88.2658 64.786 83.7092 64.1468C76.9462 75.6141 65.1408 82.358 58.508 86.147C52.7705 89.4247 50.9036 90.4911 59.5195 90.4911C75.8263 90.4911 89.9571 80.4301 96.8799 65.7423Z" fill="#102D39"/>
<path d="M111.966 37.3242L111.75 31.5043L116.211 34.6456L121.272 33.9425L118.303 38.3062L119.286 44.6903L114.058 40.9849L108.807 41.8075L111.966 37.3242Z" fill="#102D39"/>
</svg>
