<svg width="193" height="193" viewBox="0 0 193 193" fill="none" xmlns="http://www.w3.org/2000/svg">
<rect y="96.1074" width="135.916" height="137.027" transform="rotate(-45 0 96.1074)" fill="#F6F6F6"/>
<rect x="129.328" y="136.915" width="37.3079" height="8.09945" rx="4.04972" transform="rotate(-111.58 129.328 136.915)" fill="#946E59"/>
<path d="M117.323 77.8213C109.75 81.0826 96.0247 89.7319 96.7894 105.187C96.7894 106.889 97.8943 108.703 100.481 103.06C101.846 100.083 109.053 90.6157 112.07 95.5454L114.057 99.5156L124.707 95.5454C124.045 92.8086 123.066 89.7242 124.622 87.378C126.185 85.0234 129.342 84.7731 131.238 87.4632L137.344 85.6199L131.806 72.7168L125.275 74.5601C126.836 78.8139 120.021 81.9333 117.323 77.8213Z" fill="#B1B1B1"/>
<ellipse cx="133.223" cy="106.009" rx="2.408" ry="4.5327" transform="rotate(-18.7372 133.223 106.009)" fill="#B1B1B1"/>
<path d="M142.847 101.519L135.155 106.833L133.798 103.872L142.847 101.519Z" fill="#B1B1B1"/>
<path fill-rule="evenodd" clip-rule="evenodd" d="M113.913 106.26L117.448 117.477C111.836 122.687 104.319 125.873 96.0582 125.873C78.6912 125.873 64.6125 111.794 64.6125 94.4271C64.6125 77.0601 78.6912 62.9814 96.0582 62.9814C104.495 62.9814 112.156 66.3041 117.804 71.7123L104.024 75.2697C102.094 74.6486 100.036 74.3132 97.8995 74.3132C86.8691 74.3132 77.9273 83.2551 77.9273 94.2854C77.9273 105.316 86.8691 114.258 97.8995 114.258C104.433 114.258 110.235 111.12 113.878 106.269L113.913 106.26Z" fill="#47484A"/>
<path d="M95.6264 56.1826H104.372L107.417 64.9282H92.6592L95.6264 56.1826Z" fill="#47484A"/>
<path d="M80.3606 130.403L72.8312 125.646L75.0687 116.299L87.7747 124.327L80.3606 130.403Z" fill="#47484A"/>
<path d="M104.45 132.979H95.7044L92.6591 123.551H107.417L104.45 132.979Z" fill="#47484A"/>
<path d="M62.9811 114.087L59.3584 105.95L66.4076 99.417L72.5208 113.148L62.9811 114.087Z" fill="#47484A"/>
<path d="M58.6464 88.3618L61.1014 79.8002L70.7009 79.3264L66.5581 93.7741L58.6464 88.3618Z" fill="#47484A"/>
<path d="M71.7006 65.3439L78.9845 60.2183L86.7561 65.8731L74.4645 74.5227L71.7006 65.3439Z" fill="#47484A"/>
</svg>
