<svg width="300" height="300" viewBox="0 0 300 300" fill="none" xmlns="http://www.w3.org/2000/svg">
<rect y="149.39" width="211.269" height="212.995" transform="rotate(-45 0 149.39)" fill="white"/>
<rect x="194.331" y="212.821" width="57.9916" height="12.5898" rx="6.29491" transform="rotate(-111.58 194.331 212.821)" fill="#946E59"/>
<path d="M175.672 120.966C163.9 126.035 142.565 139.48 143.754 163.504C143.754 166.149 145.471 168.969 149.492 160.198C151.614 155.569 162.816 140.854 167.505 148.517L170.595 154.688L187.149 148.517C186.12 144.262 184.598 139.468 187.018 135.821C189.446 132.161 194.354 131.772 197.301 135.954L206.792 133.088L198.184 113.032L188.031 115.897C190.459 122.509 179.865 127.358 175.672 120.966Z" fill="#B1B1B1"/>
<ellipse cx="200.387" cy="164.78" rx="3.743" ry="7.04565" transform="rotate(-18.7372 200.387 164.78)" fill="#B1B1B1"/>
<path d="M215.345 157.802L203.389 166.062L201.281 161.459L215.345 157.802Z" fill="#B1B1B1"/>
<path d="M142.617 97.8991C155.731 97.8991 167.638 103.064 176.417 111.47L154.995 117.001C151.996 116.036 148.799 115.513 145.479 115.513C128.334 115.513 114.434 129.413 114.434 146.558C114.434 163.704 128.334 177.603 145.479 177.603C155.635 177.603 164.65 172.725 170.314 165.186L170.371 165.171L175.864 182.605C167.141 190.704 155.458 195.658 142.617 195.658C115.622 195.658 93.7381 173.773 93.7381 146.778C93.7383 119.783 115.622 97.8993 142.617 97.8991Z" fill="#47484A"/>
<path d="M141.946 87.3304H155.54L160.274 100.925H137.334L141.946 87.3304Z" fill="#47484A"/>
<path d="M118.217 202.7L106.513 195.305L109.991 180.776L129.741 193.255L118.217 202.7Z" fill="#47484A"/>
<path d="M155.662 206.704H142.068L137.334 192.048H160.274L155.662 206.704Z" fill="#47484A"/>
<path d="M91.2019 177.338L85.5708 164.691L96.528 154.535L106.03 175.878L91.2019 177.338Z" fill="#47484A"/>
<path d="M84.4645 137.35L88.2805 124.042L103.202 123.306L96.7625 145.763L84.4645 137.35Z" fill="#47484A"/>
<path d="M104.756 101.571L116.078 93.6034L128.158 102.393L109.052 115.838L104.756 101.571Z" fill="#47484A"/>
</svg>
