<svg width="224" height="224" viewBox="0 0 224 224" fill="none" xmlns="http://www.w3.org/2000/svg">
<rect y="111.544" width="157.748" height="159.036" transform="rotate(-45 0 111.544)" fill="#F6F6F6"/>
<rect x="150.101" y="158.906" width="43.3004" height="9.4004" rx="4.7002" transform="rotate(-111.58 150.101 158.906)" fill="#946E59"/>
<path d="M136.168 90.3214C127.379 94.1065 111.448 104.145 112.336 122.083C112.336 124.058 113.618 126.163 116.621 119.614C118.205 116.159 126.569 105.171 130.07 110.892L132.377 115.5L144.737 110.892C143.969 107.716 142.833 104.136 144.639 101.413C146.453 98.6803 150.118 98.3897 152.318 101.512L159.404 99.3726L152.977 84.397L145.396 86.5364C147.209 91.4734 139.299 95.0939 136.168 90.3214Z" fill="#B1B1B1"/>
<ellipse cx="154.622" cy="123.036" rx="2.79478" ry="5.26075" transform="rotate(-18.7372 154.622 123.036)" fill="#B1B1B1"/>
<path d="M165.791 117.826L156.863 123.993L155.289 120.556L165.791 117.826Z" fill="#B1B1B1"/>
<path fill-rule="evenodd" clip-rule="evenodd" d="M132.211 123.328L136.313 136.347C129.8 142.393 121.076 146.091 111.488 146.091C91.3312 146.091 74.9912 129.751 74.9912 109.594C74.9912 89.4377 91.3312 73.0977 111.488 73.0977C121.28 73.0977 130.171 76.954 136.726 83.2308L120.732 87.3596C118.493 86.6388 116.104 86.2496 113.625 86.2496C100.823 86.2496 90.4445 96.6277 90.4445 109.43C90.4445 122.232 100.823 132.61 113.625 132.61C121.208 132.61 127.941 128.968 132.17 123.338L132.211 123.328Z" fill="#47484A"/>
<path d="M110.986 65.2065H121.137L124.671 75.3568H107.542L110.986 65.2065Z" fill="#47484A"/>
<path d="M93.2684 151.349L84.5296 145.828L87.1265 134.979L101.873 144.297L93.2684 151.349Z" fill="#47484A"/>
<path d="M121.227 154.339H111.077L107.542 143.396H124.671L121.227 154.339Z" fill="#47484A"/>
<path d="M73.0974 132.412L68.8929 122.969L77.0742 115.386L84.1694 131.322L73.0974 132.412Z" fill="#47484A"/>
<path d="M68.0668 102.555L70.9162 92.6178L82.0576 92.068L77.2493 108.836L68.0668 102.555Z" fill="#47484A"/>
<path d="M83.2174 75.8393L91.6713 69.8903L100.691 76.4534L86.4253 86.4923L83.2174 75.8393Z" fill="#47484A"/>
</svg>
