<svg width="180" height="180" viewBox="0 0 1080 1080" fill="none" xmlns="http://www.w3.org/2000/svg">
<g filter="url(#filter0_d_26_164)">
<ellipse cx="541.296" cy="538.996" rx="498.511" ry="494.155" fill="url(#paint0_linear_26_164)"/>
</g>
<g filter="url(#filter1_fn_26_164)">
<path d="M501.753 987.527C357.061 934.064 165.703 768.954 160.12 605.184C152.641 385.768 250.568 379.15 336.787 381.72C423.005 384.291 403.937 702.725 582.209 723.931C760.48 745.136 682.617 1054.36 501.753 987.527Z" fill="#F99650"/>
</g>
<g filter="url(#filter2_fn_26_164)">
<path d="M668.511 250.13C760.17 275.437 825.431 335.563 855.448 418.782C901.42 546.237 894.775 588.286 841.711 591.198C788.648 594.11 821.665 387.975 711.104 384.234C600.544 380.493 553.938 218.495 668.511 250.13Z" fill="#FB576C"/>
</g>
<path d="M413.588 368.709V241.475C501.103 264.608 658.076 339.866 657.982 343.005C656.037 407.907 656.252 475.38 538.054 475.38C438.87 475.38 416.397 407.05 413.588 368.709Z" stroke="white" stroke-width="17"/>
<path d="M530.924 284.529L655.39 235.049L657.983 343.005" stroke="white" stroke-width="17"/>
<path d="M482.304 263.966C510.179 194.566 582.136 226.053 590.563 260.11" stroke="white" stroke-width="17"/>
<path d="M607.067 621.891L554.558 651.942V591.84L607.067 621.891Z" fill="white"/>
<path d="M457.67 797.962L510.179 828.013V767.911L457.67 797.962Z" fill="white"/>
<g filter="url(#filter3_f_26_164)">
<path d="M264.854 389.272L264.851 389.272C264.786 422.027 251.269 445.2 219.111 445.44V445.456C258.444 445.538 264.852 470.958 264.852 502.122C264.802 498.547 264.797 499.058 264.786 499.567L264.869 503.654C264.858 503.149 264.852 502.643 264.852 502.136C264.869 464.14 276.275 444.145 311.06 445.47C311.531 445.488 311.998 445.511 312.461 445.538V445.374C312.305 445.397 312.149 445.42 311.994 445.441C278.107 445.441 264.995 420.34 264.854 389.272Z" fill="#FFD58C"/>
</g>
<g filter="url(#filter4_f_26_164)">
<path d="M341.647 754.266H341.643C341.553 799.166 322.968 830.932 278.751 831.26V831.283C332.833 831.394 341.645 866.24 341.645 908.959C341.576 904.059 341.568 904.759 341.553 905.457L341.667 911.059C341.653 910.368 341.645 909.674 341.645 908.979C341.667 856.894 357.351 829.485 405.181 831.302C405.828 831.326 406.47 831.357 407.106 831.394V831.17C406.892 831.202 406.678 831.233 406.464 831.262C359.87 831.262 341.842 796.854 341.647 754.266Z" fill="#FFD58C"/>
</g>
<g filter="url(#filter5_f_26_164)">
<path d="M803.207 310.875L803.204 310.875C803.114 355.775 784.528 387.541 740.312 387.869V387.892C794.394 388.004 803.206 422.849 803.206 465.568C803.136 460.669 803.129 461.369 803.114 462.066L803.228 467.668C803.213 466.977 803.206 466.284 803.206 465.588C803.228 413.503 818.911 386.094 866.741 387.911C867.389 387.936 868.031 387.967 868.667 388.004V387.779C868.453 387.812 868.239 387.842 868.025 387.872C821.43 387.872 803.402 353.463 803.207 310.875Z" fill="#FFD58C"/>
</g>
<path d="M521.2 470.881V664.945" stroke="white" stroke-width="15"/>
<ellipse cx="521.2" cy="669.443" rx="12.9652" ry="12.8519" fill="white"/>
<ellipse cx="512.124" cy="930.337" rx="12.9652" ry="12.8519" fill="white"/>
<ellipse cx="661.224" cy="846.799" rx="12.9652" ry="12.8519" fill="white"/>
<path d="M549.723 474.094V776.114" stroke="white" stroke-width="15"/>
<ellipse cx="549.723" cy="776.114" rx="12.9652" ry="12.8519" fill="white"/>
<ellipse cx="544.537" cy="821.095" rx="12.9652" ry="12.8519" fill="white"/>
<path d="M543.24 715.067H512.771V929.694" stroke="white" stroke-width="17"/>
<path d="M543.24 715.067H512.771V929.694" stroke="white" stroke-width="15"/>
<path d="M661.224 846.799H544.537V823.666" stroke="white" stroke-width="15"/>
<path d="M544.537 850.655V1038.93" stroke="white" stroke-width="15"/>
<path d="M329.315 583.335V623.819C330.612 641.169 339.213 670.947 375.99 673.299C416.182 675.869 464.802 675.869 482.953 675.869" stroke="white" stroke-width="17"/>
<path d="M473.877 682.295V640.253C472.58 622.903 468.518 596.611 431.74 594.259C391.548 591.689 338.391 591.689 320.24 591.689" stroke="white" stroke-width="17"/>
<path d="M331.908 592.974L469.987 673.941" stroke="white" stroke-width="17"/>
<path d="M743.553 690.006V730.49C742.256 747.84 733.656 777.617 696.878 779.969C656.686 782.54 608.067 782.54 589.915 782.54" stroke="white" stroke-width="17"/>
<path d="M598.991 788.966V746.924C600.288 729.574 604.351 703.282 641.128 700.93C681.32 698.36 734.477 698.36 752.629 698.36" stroke="white" stroke-width="17"/>
<path d="M740.96 699.645L602.881 780.612" stroke="white" stroke-width="17"/>
<path d="M540 5C838.233 5.00013 1080 244.654 1080 540.281C1080 835.909 838.234 1075.56 540 1075.56C241.766 1075.56 0 835.909 0 540.281C0.000133111 244.654 241.766 5 540 5ZM539.362 53.0303C267.537 53.0305 47.1787 271.464 47.1787 540.914C47.179 810.364 267.537 1028.8 539.362 1028.8C811.188 1028.8 1031.55 810.364 1031.55 540.914C1031.55 271.463 811.188 53.0303 539.362 53.0303Z" fill="url(#paint1_linear_26_164)"/>
<defs>
<filter id="filter0_d_26_164" x="38.7852" y="44.8408" width="1005.02" height="996.311" filterUnits="userSpaceOnUse" color-interpolation-filters="sRGB">
<feFlood flood-opacity="0" result="BackgroundImageFix"/>
<feColorMatrix in="SourceAlpha" type="matrix" values="0 0 0 0 0 0 0 0 0 0 0 0 0 0 0 0 0 0 127 0" result="hardAlpha"/>
<feOffset dy="4"/>
<feGaussianBlur stdDeviation="2"/>
<feComposite in2="hardAlpha" operator="out"/>
<feColorMatrix type="matrix" values="0 0 0 0 0 0 0 0 0 0 0 0 0 0 0 0 0 0 0.25 0"/>
<feBlend mode="normal" in2="BackgroundImageFix" result="effect1_dropShadow_26_164"/>
<feBlend mode="normal" in="SourceGraphic" in2="effect1_dropShadow_26_164" result="shape"/>
</filter>
<filter id="filter1_fn_26_164" x="-40.2832" y="181.383" width="923.291" height="1015.58" filterUnits="userSpaceOnUse" color-interpolation-filters="sRGB">
<feFlood flood-opacity="0" result="BackgroundImageFix"/>
<feBlend mode="normal" in="SourceGraphic" in2="BackgroundImageFix" result="shape"/>
<feGaussianBlur stdDeviation="100" result="effect1_foregroundBlur_26_164"/>
<feTurbulence type="fractalNoise" baseFrequency="1 1" stitchTiles="stitch" numOctaves="3" result="noise" seed="6860" />
<feColorMatrix in="noise" type="luminanceToAlpha" result="alphaNoise" />
<feComponentTransfer in="alphaNoise" result="coloredNoise1">
<feFuncA type="discrete" tableValues="0 0 0 0 0 0 0 0 0 0 0 0 0 0 0 1 1 1 1 1 1 1 1 1 1 1 1 1 1 1 1 1 1 1 0 0 0 0 0 0 0 0 0 0 0 0 0 0 0 0 0 0 0 0 0 0 0 0 0 0 0 0 0 0 0 0 0 0 0 0 0 0 0 0 0 0 0 0 0 0 0 0 0 0 0 0 0 0 0 0 0 0 0 0 0 0 0 0 0 0 "/>
</feComponentTransfer>
<feComposite operator="in" in2="effect1_foregroundBlur_26_164" in="coloredNoise1" result="noise1Clipped" />
<feFlood flood-color="rgba(0, 0, 0, 0.25)" result="color1Flood" />
<feComposite operator="in" in2="noise1Clipped" in="color1Flood" result="color1" />
<feMerge result="effect2_noise_26_164">
<feMergeNode in="effect1_foregroundBlur_26_164" />
<feMergeNode in="color1" />
</feMerge>
</filter>
<filter id="filter2_fn_26_164" x="352.158" y="-3.96362" width="783.952" height="845.192" filterUnits="userSpaceOnUse" color-interpolation-filters="sRGB">
<feFlood flood-opacity="0" result="BackgroundImageFix"/>
<feBlend mode="normal" in="SourceGraphic" in2="BackgroundImageFix" result="shape"/>
<feGaussianBlur stdDeviation="125" result="effect1_foregroundBlur_26_164"/>
<feTurbulence type="fractalNoise" baseFrequency="0.66666668653488159 0.66666668653488159" stitchTiles="stitch" numOctaves="3" result="noise" seed="945" />
<feColorMatrix in="noise" type="luminanceToAlpha" result="alphaNoise" />
<feComponentTransfer in="alphaNoise" result="coloredNoise1">
<feFuncA type="discrete" tableValues="1 1 1 1 1 1 1 1 1 1 1 1 1 1 1 1 1 1 1 1 1 1 1 1 1 1 1 1 1 1 1 1 1 1 1 1 1 1 1 1 1 1 1 1 1 1 1 1 1 1 1 0 0 0 0 0 0 0 0 0 0 0 0 0 0 0 0 0 0 0 0 0 0 0 0 0 0 0 0 0 0 0 0 0 0 0 0 0 0 0 0 0 0 0 0 0 0 0 0 0 "/>
</feComponentTransfer>
<feComposite operator="in" in2="effect1_foregroundBlur_26_164" in="coloredNoise1" result="noise1Clipped" />
<feFlood flood-color="rgba(0, 0, 0, 0.25)" result="color1Flood" />
<feComposite operator="in" in2="noise1Clipped" in="color1Flood" result="color1" />
<feMerge result="effect2_noise_26_164">
<feMergeNode in="effect1_foregroundBlur_26_164" />
<feMergeNode in="color1" />
</feMerge>
</filter>
<filter id="filter3_f_26_164" x="212.511" y="382.672" width="106.55" height="127.582" filterUnits="userSpaceOnUse" color-interpolation-filters="sRGB">
<feFlood flood-opacity="0" result="BackgroundImageFix"/>
<feBlend mode="normal" in="SourceGraphic" in2="BackgroundImageFix" result="shape"/>
<feGaussianBlur stdDeviation="3.3" result="effect1_foregroundBlur_26_164"/>
</filter>
<filter id="filter4_f_26_164" x="273.551" y="749.066" width="138.755" height="167.193" filterUnits="userSpaceOnUse" color-interpolation-filters="sRGB">
<feFlood flood-opacity="0" result="BackgroundImageFix"/>
<feBlend mode="normal" in="SourceGraphic" in2="BackgroundImageFix" result="shape"/>
<feGaussianBlur stdDeviation="2.6" result="effect1_foregroundBlur_26_164"/>
</filter>
<filter id="filter5_f_26_164" x="735.112" y="305.675" width="138.755" height="167.193" filterUnits="userSpaceOnUse" color-interpolation-filters="sRGB">
<feFlood flood-opacity="0" result="BackgroundImageFix"/>
<feBlend mode="normal" in="SourceGraphic" in2="BackgroundImageFix" result="shape"/>
<feGaussianBlur stdDeviation="2.6" result="effect1_foregroundBlur_26_164"/>
</filter>
<linearGradient id="paint0_linear_26_164" x1="541.296" y1="44.8408" x2="541.296" y2="1033.15" gradientUnits="userSpaceOnUse">
<stop stop-color="#F55654"/>
<stop offset="1" stop-color="#743B73"/>
</linearGradient>
<linearGradient id="paint1_linear_26_164" x1="540" y1="5" x2="540" y2="1075.56" gradientUnits="userSpaceOnUse">
<stop stop-color="#427C80"/>
<stop offset="0.5" stop-color="#91B87C"/>
<stop offset="1" stop-color="#FFD68C"/>
</linearGradient>
</defs>
</svg>