<svg width="300" height="300" viewBox="0 0 300 300" fill="none" xmlns="http://www.w3.org/2000/svg">
<rect y="149.39" width="211.269" height="212.995" transform="rotate(-45 0 149.39)" fill="#FFF3C3"/>
<rect x="140.59" y="178.832" width="52.2728" height="9.20901" rx="4.60451" transform="rotate(-77.7132 140.59 178.832)" fill="#946E59"/>
<rect x="215.464" y="155.869" width="43.8126" height="9.90576" rx="4.95288" transform="rotate(135.895 215.464 155.869)" fill="#F28277"/>
<rect x="209.095" y="162.365" width="42.5948" height="9.90576" rx="4.95288" transform="rotate(-136.436 209.095 162.365)" fill="#F28277"/>
<rect width="43.8126" height="9.90576" rx="4.95288" transform="matrix(0.718068 0.695973 0.695973 -0.718068 84.9069 155.753)" fill="#F28277"/>
<rect width="42.5948" height="9.90576" rx="4.95288" transform="matrix(0.724608 -0.689162 -0.689162 -0.724608 91.2759 162.249)" fill="#F28277"/>
<path d="M146.875 111.652C145.191 115.05 151.062 119.35 155.002 119.598C166.329 120.84 173.583 115.129 171.613 98.2437C177.523 77.3857 170.3 76.9718 165.949 79.3722C162.091 82.9313 161.271 85.0782 159.685 93.0291C156.73 94.7673 158.126 97.0021 157.715 98.2437C157.715 97.3332 155.795 95.3136 149.097 97.4987C140.724 100.23 142.694 106.686 143.925 107.679C145.157 108.673 148.107 109.169 146.875 111.652Z" fill="#F28277"/>
<path d="M149.762 103.832C148.487 105.331 146.958 114.826 154.105 116.057C171.679 119.823 169.895 96.5861 168.621 94.837C167.347 93.088 160.986 92.8199 161.241 97.3174C161.496 101.815 160.731 102.814 157.928 101.565C155.685 100.566 151.206 102.25 149.762 103.832Z" fill="#FF9A4F"/>
<ellipse cx="158.323" cy="109.297" rx="4.46801" ry="4.58559" fill="#FEE57E"/>
</svg>