<svg width="134" height="159" viewBox="0 0 134 159" fill="none" xmlns="http://www.w3.org/2000/svg">
<mask id="path-1-outside-1_332_2289" maskUnits="userSpaceOnUse" x="0" y="0" width="151" height="159" fill="black">
<rect fill="white" width="151" height="159"/>
<path d="M114.067 121.785C110.214 121.785 107.033 121.258 104.524 120.204C102.014 119.092 99.9416 117.628 98.3073 115.813C95.6808 117.277 92.4997 118.535 88.7641 119.589C85.087 120.585 81.3806 121.082 77.645 121.082C71.925 121.082 66.701 120.175 61.9732 118.36C57.2454 116.545 53.1304 113.881 49.6284 110.368C46.1846 106.797 43.4997 102.435 41.5736 97.2833C39.7058 92.1313 38.7719 86.1596 38.7719 79.3683C38.7719 73.5722 39.6474 68.1275 41.3985 63.034C43.2079 57.9405 45.8636 53.5203 49.3657 49.7734C52.9261 45.9679 57.2454 42.9821 62.3234 40.8159C67.4014 38.6497 73.1799 37.5666 79.6587 37.5666C85.729 37.5666 91.3032 38.0642 96.3812 39.0595C101.459 39.9962 105.37 40.9622 108.113 41.9575V96.932C108.113 100.796 108.755 103.518 110.039 105.099C111.382 106.621 113.133 107.382 115.292 107.382C118.444 107.382 121.158 106.299 123.435 104.133C125.77 101.967 127.696 99.1567 129.213 95.7025C130.731 92.2483 131.84 88.3258 132.54 83.9348C133.241 79.5439 133.591 75.0652 133.591 70.4986C133.591 62.9462 132.278 55.8621 129.651 49.2465C127.024 42.5722 123.26 36.7177 118.357 31.6827C113.454 26.6478 107.5 22.6959 100.496 19.8272C93.5503 16.9585 85.6998 15.5241 76.9446 15.5241C68.2478 15.5241 60.2513 16.9877 52.9553 19.915C45.6593 22.8423 39.3556 27.0283 34.0441 32.4731C28.7909 37.9178 24.7052 44.6213 21.7868 52.5836C18.8684 60.4873 17.4092 69.474 17.4092 79.5439C17.4092 90.0822 18.9559 99.3324 22.0494 107.295C25.2013 115.257 29.5497 121.931 35.0947 127.317C40.6397 132.645 47.2061 136.655 54.7939 139.348C62.3818 142.042 70.7284 143.388 79.8338 143.388C86.8964 143.388 92.704 142.949 97.2567 142.071C101.868 141.251 104.845 140.607 106.187 140.139L107.938 153.399C105.954 154.161 102.276 154.951 96.9065 155.771C91.595 156.59 85.9041 157 79.8338 157C69.2108 157 59.1715 155.478 49.7159 152.433C40.2603 149.389 32.0012 144.705 24.9387 138.382C17.8761 132.118 12.2728 124.097 8.12865 114.32C4.04288 104.543 2 92.9509 2 79.5439C2 66.5467 4.0137 55.2181 8.0411 45.5581C12.1269 35.8395 17.6135 27.7894 24.5009 21.4079C31.3883 14.9679 39.3264 10.1379 48.3151 6.91785C57.3621 3.63928 66.9053 2 76.9446 2C86.7504 2 96.0018 3.61001 104.699 6.83003C113.454 9.9915 121.1 14.5873 127.637 20.6176C134.233 26.6478 139.428 33.966 143.222 42.5722C147.074 51.1199 149 60.8093 149 71.6402C149 79.7781 148.066 86.9792 146.198 93.2436C144.389 99.4495 141.908 104.689 138.756 108.963C135.663 113.178 131.957 116.369 127.637 118.535C123.376 120.702 118.853 121.785 114.067 121.785ZM78.1703 107.207C80.6802 107.207 83.2192 106.943 85.7874 106.416C88.3556 105.89 90.6611 105.07 92.704 103.958C92.3538 102.435 92.1203 100.884 92.0036 99.3031C91.8868 97.7224 91.8285 96.2295 91.8285 94.8244V52.4957C91.1281 52.2616 89.7564 52.0274 87.7135 51.7932C85.6706 51.559 83.3943 51.4419 80.8845 51.4419C72.4211 51.4419 66.0881 54.0765 61.8856 59.3456C57.6831 64.6147 55.5819 71.2889 55.5819 79.3683C55.5819 87.8574 57.6248 94.6194 61.7105 99.6544C65.7963 104.689 71.2829 107.207 78.1703 107.207Z"/>
</mask>
<path d="M114.067 121.785C110.214 121.785 107.033 121.258 104.524 120.204C102.014 119.092 99.9416 117.628 98.3073 115.813C95.6808 117.277 92.4997 118.535 88.7641 119.589C85.087 120.585 81.3806 121.082 77.645 121.082C71.925 121.082 66.701 120.175 61.9732 118.36C57.2454 116.545 53.1304 113.881 49.6284 110.368C46.1846 106.797 43.4997 102.435 41.5736 97.2833C39.7058 92.1313 38.7719 86.1596 38.7719 79.3683C38.7719 73.5722 39.6474 68.1275 41.3985 63.034C43.2079 57.9405 45.8636 53.5203 49.3657 49.7734C52.9261 45.9679 57.2454 42.9821 62.3234 40.8159C67.4014 38.6497 73.1799 37.5666 79.6587 37.5666C85.729 37.5666 91.3032 38.0642 96.3812 39.0595C101.459 39.9962 105.37 40.9622 108.113 41.9575V96.932C108.113 100.796 108.755 103.518 110.039 105.099C111.382 106.621 113.133 107.382 115.292 107.382C118.444 107.382 121.158 106.299 123.435 104.133C125.77 101.967 127.696 99.1567 129.213 95.7025C130.731 92.2483 131.84 88.3258 132.54 83.9348C133.241 79.5439 133.591 75.0652 133.591 70.4986C133.591 62.9462 132.278 55.8621 129.651 49.2465C127.024 42.5722 123.26 36.7177 118.357 31.6827C113.454 26.6478 107.5 22.6959 100.496 19.8272C93.5503 16.9585 85.6998 15.5241 76.9446 15.5241C68.2478 15.5241 60.2513 16.9877 52.9553 19.915C45.6593 22.8423 39.3556 27.0283 34.0441 32.4731C28.7909 37.9178 24.7052 44.6213 21.7868 52.5836C18.8684 60.4873 17.4092 69.474 17.4092 79.5439C17.4092 90.0822 18.9559 99.3324 22.0494 107.295C25.2013 115.257 29.5497 121.931 35.0947 127.317C40.6397 132.645 47.2061 136.655 54.7939 139.348C62.3818 142.042 70.7284 143.388 79.8338 143.388C86.8964 143.388 92.704 142.949 97.2567 142.071C101.868 141.251 104.845 140.607 106.187 140.139L107.938 153.399C105.954 154.161 102.276 154.951 96.9065 155.771C91.595 156.59 85.9041 157 79.8338 157C69.2108 157 59.1715 155.478 49.7159 152.433C40.2603 149.389 32.0012 144.705 24.9387 138.382C17.8761 132.118 12.2728 124.097 8.12865 114.32C4.04288 104.543 2 92.9509 2 79.5439C2 66.5467 4.0137 55.2181 8.0411 45.5581C12.1269 35.8395 17.6135 27.7894 24.5009 21.4079C31.3883 14.9679 39.3264 10.1379 48.3151 6.91785C57.3621 3.63928 66.9053 2 76.9446 2C86.7504 2 96.0018 3.61001 104.699 6.83003C113.454 9.9915 121.1 14.5873 127.637 20.6176C134.233 26.6478 139.428 33.966 143.222 42.5722C147.074 51.1199 149 60.8093 149 71.6402C149 79.7781 148.066 86.9792 146.198 93.2436C144.389 99.4495 141.908 104.689 138.756 108.963C135.663 113.178 131.957 116.369 127.637 118.535C123.376 120.702 118.853 121.785 114.067 121.785ZM78.1703 107.207C80.6802 107.207 83.2192 106.943 85.7874 106.416C88.3556 105.89 90.6611 105.07 92.704 103.958C92.3538 102.435 92.1203 100.884 92.0036 99.3031C91.8868 97.7224 91.8285 96.2295 91.8285 94.8244V52.4957C91.1281 52.2616 89.7564 52.0274 87.7135 51.7932C85.6706 51.559 83.3943 51.4419 80.8845 51.4419C72.4211 51.4419 66.0881 54.0765 61.8856 59.3456C57.6831 64.6147 55.5819 71.2889 55.5819 79.3683C55.5819 87.8574 57.6248 94.6194 61.7105 99.6544C65.7963 104.689 71.2829 107.207 78.1703 107.207Z" fill="#91B9FF"/>
<path d="M114.067 121.785C110.214 121.785 107.033 121.258 104.524 120.204C102.014 119.092 99.9416 117.628 98.3073 115.813C95.6808 117.277 92.4997 118.535 88.7641 119.589C85.087 120.585 81.3806 121.082 77.645 121.082C71.925 121.082 66.701 120.175 61.9732 118.36C57.2454 116.545 53.1304 113.881 49.6284 110.368C46.1846 106.797 43.4997 102.435 41.5736 97.2833C39.7058 92.1313 38.7719 86.1596 38.7719 79.3683C38.7719 73.5722 39.6474 68.1275 41.3985 63.034C43.2079 57.9405 45.8636 53.5203 49.3657 49.7734C52.9261 45.9679 57.2454 42.9821 62.3234 40.8159C67.4014 38.6497 73.1799 37.5666 79.6587 37.5666C85.729 37.5666 91.3032 38.0642 96.3812 39.0595C101.459 39.9962 105.37 40.9622 108.113 41.9575V96.932C108.113 100.796 108.755 103.518 110.039 105.099C111.382 106.621 113.133 107.382 115.292 107.382C118.444 107.382 121.158 106.299 123.435 104.133C125.77 101.967 127.696 99.1567 129.213 95.7025C130.731 92.2483 131.84 88.3258 132.54 83.9348C133.241 79.5439 133.591 75.0652 133.591 70.4986C133.591 62.9462 132.278 55.8621 129.651 49.2465C127.024 42.5722 123.26 36.7177 118.357 31.6827C113.454 26.6478 107.5 22.6959 100.496 19.8272C93.5503 16.9585 85.6998 15.5241 76.9446 15.5241C68.2478 15.5241 60.2513 16.9877 52.9553 19.915C45.6593 22.8423 39.3556 27.0283 34.0441 32.4731C28.7909 37.9178 24.7052 44.6213 21.7868 52.5836C18.8684 60.4873 17.4092 69.474 17.4092 79.5439C17.4092 90.0822 18.9559 99.3324 22.0494 107.295C25.2013 115.257 29.5497 121.931 35.0947 127.317C40.6397 132.645 47.2061 136.655 54.7939 139.348C62.3818 142.042 70.7284 143.388 79.8338 143.388C86.8964 143.388 92.704 142.949 97.2567 142.071C101.868 141.251 104.845 140.607 106.187 140.139L107.938 153.399C105.954 154.161 102.276 154.951 96.9065 155.771C91.595 156.59 85.9041 157 79.8338 157C69.2108 157 59.1715 155.478 49.7159 152.433C40.2603 149.389 32.0012 144.705 24.9387 138.382C17.8761 132.118 12.2728 124.097 8.12865 114.32C4.04288 104.543 2 92.9509 2 79.5439C2 66.5467 4.0137 55.2181 8.0411 45.5581C12.1269 35.8395 17.6135 27.7894 24.5009 21.4079C31.3883 14.9679 39.3264 10.1379 48.3151 6.91785C57.3621 3.63928 66.9053 2 76.9446 2C86.7504 2 96.0018 3.61001 104.699 6.83003C113.454 9.9915 121.1 14.5873 127.637 20.6176C134.233 26.6478 139.428 33.966 143.222 42.5722C147.074 51.1199 149 60.8093 149 71.6402C149 79.7781 148.066 86.9792 146.198 93.2436C144.389 99.4495 141.908 104.689 138.756 108.963C135.663 113.178 131.957 116.369 127.637 118.535C123.376 120.702 118.853 121.785 114.067 121.785ZM78.1703 107.207C80.6802 107.207 83.2192 106.943 85.7874 106.416C88.3556 105.89 90.6611 105.07 92.704 103.958C92.3538 102.435 92.1203 100.884 92.0036 99.3031C91.8868 97.7224 91.8285 96.2295 91.8285 94.8244V52.4957C91.1281 52.2616 89.7564 52.0274 87.7135 51.7932C85.6706 51.559 83.3943 51.4419 80.8845 51.4419C72.4211 51.4419 66.0881 54.0765 61.8856 59.3456C57.6831 64.6147 55.5819 71.2889 55.5819 79.3683C55.5819 87.8574 57.6248 94.6194 61.7105 99.6544C65.7963 104.689 71.2829 107.207 78.1703 107.207Z" stroke="#3B70CC" stroke-width="4" mask="url(#path-1-outside-1_332_2289)"/>
</svg>
