<svg width="164" height="168" viewBox="0 0 164 168" fill="none" xmlns="http://www.w3.org/2000/svg">
<mask id="path-1-inside-1_399_951" fill="white">
<path fill-rule="evenodd" clip-rule="evenodd" d="M176.49 0C183.118 0 188.49 5.3726 188.49 12V129.368C188.49 135.995 183.118 141.368 176.49 141.368H41.4683L11.1803 167.481L16.5449 141.368H12C5.37262 141.368 3.05176e-05 135.995 3.05176e-05 129.368V12C3.05176e-05 5.37258 5.37263 0 12 0H176.49Z"/>
</mask>
<path fill-rule="evenodd" clip-rule="evenodd" d="M176.49 0C183.118 0 188.49 5.3726 188.49 12V129.368C188.49 135.995 183.118 141.368 176.49 141.368H41.4683L11.1803 167.481L16.5449 141.368H12C5.37262 141.368 3.05176e-05 135.995 3.05176e-05 129.368V12C3.05176e-05 5.37258 5.37263 0 12 0H176.49Z" fill="#BBEAB5"/>
<path d="M41.4683 141.368L39.5094 139.096L40.3536 138.368H41.4683V141.368ZM11.1803 167.481L13.1393 169.754L6.46959 175.504L8.24171 166.878L11.1803 167.481ZM16.5449 141.368V138.368H20.2239L19.4836 141.972L16.5449 141.368ZM185.49 12C185.49 7.02945 181.461 3 176.49 3V-3C184.775 -3 191.49 3.71575 191.49 12H185.49ZM185.49 129.368V12H191.49V129.368H185.49ZM176.49 138.368C181.461 138.368 185.49 134.338 185.49 129.368H191.49C191.49 137.652 184.775 144.368 176.49 144.368V138.368ZM41.4683 138.368H176.49V144.368H41.4683V138.368ZM9.22139 165.209L39.5094 139.096L43.4273 143.64L13.1393 169.754L9.22139 165.209ZM19.4836 141.972L14.119 168.085L8.24171 166.878L13.6063 140.764L19.4836 141.972ZM12 138.368H16.5449V144.368H12V138.368ZM3.00003 129.368C3.00003 134.338 7.02948 138.368 12 138.368V144.368C3.71576 144.368 -2.99997 137.652 -2.99997 129.368H3.00003ZM3.00003 12V129.368H-2.99997V12H3.00003ZM12 3C7.02948 3 3.00003 7.02944 3.00003 12H-2.99997C-2.99997 3.71572 3.71579 -3 12 -3V3ZM176.49 3H12V-3H176.49V3Z" fill="#88CA88" mask="url(#path-1-inside-1_399_951)"/>
</svg>
