<svg width="221" height="110" viewBox="0 0 221 110" fill="none" xmlns="http://www.w3.org/2000/svg">
<path d="M34.1381 54.9714L102.426 22.2459L102.434 22.2421L102.442 22.2383C105.889 20.5564 108.299 17.9402 108.299 14.2338C108.299 12.3987 107.696 10.4823 106.732 8.55332L106.727 8.54297L106.721 8.53267C104.923 5.01814 102.255 2.5 98.5216 2.5C96.8027 2.5 95.0807 3.00335 93.3932 3.84598C93.3903 3.84742 93.3874 3.84887 93.3845 3.85032L9.02319 45.2219C9.01987 45.2235 9.01656 45.2251 9.01325 45.2267C6.97253 46.2078 5.26035 47.4636 4.13463 49.1012C2.97933 50.7819 2.5 52.7999 2.5 54.9714C2.5 57.1429 2.97933 59.1609 4.13463 60.8416C5.26035 62.4792 6.97253 63.735 9.01325 64.7161C9.01656 64.7177 9.01987 64.7193 9.02319 64.7209L93.3845 106.093C93.3875 106.094 93.3904 106.095 93.3934 106.097C95.0808 106.94 96.8028 107.443 98.5216 107.443C102.255 107.443 104.923 104.925 106.721 101.41L106.727 101.4L106.732 101.39C107.696 99.4606 108.299 97.5441 108.299 95.709C108.299 92.0027 105.889 89.3864 102.442 87.7045L102.434 87.7007L102.426 87.6969L34.1381 54.9714ZM219.161 54.9729L150.873 87.6984L150.865 87.7022L150.857 87.706C147.41 89.3878 145 92.0041 145 95.7104C145 97.5456 145.603 99.462 146.567 101.391L146.572 101.401L146.578 101.412C148.376 104.926 151.044 107.444 154.778 107.444C156.496 107.444 158.218 106.941 159.905 106.099C159.908 106.097 159.911 106.096 159.915 106.094L244.276 64.7223C244.279 64.7207 244.283 64.7191 244.286 64.7175C246.327 63.7364 248.039 62.4806 249.164 60.843C250.32 59.1624 250.799 57.1444 250.799 54.9729C250.799 52.8014 250.32 50.7833 249.164 49.1027C248.039 47.4651 246.327 46.2093 244.286 45.2283C244.283 45.2267 244.279 45.225 244.276 45.2234L159.915 3.85179C159.911 3.85023 159.908 3.84866 159.905 3.8471C158.218 3.00468 156.496 2.50146 154.778 2.50146C151.044 2.50146 148.376 5.01961 146.578 8.53413L146.572 8.54443L146.567 8.55479C145.603 10.4837 145 12.4002 145 14.2353C145 17.9416 147.41 20.5579 150.857 22.2398L150.865 22.2436L150.873 22.2474L219.161 54.9729Z" fill="#FFF9DD" stroke="#F8E59A" stroke-width="5"/>
</svg>
